<?xml version="1.0" encoding="utf-8"?>
<!-- Generator: Adobe Illustrator 22.1.0, SVG Export Plug-In . SVG Version: 6.00 Build 0)  -->
<svg version="1.1" id="Calque_1" xmlns="http://www.w3.org/2000/svg" xmlns:xlink="http://www.w3.org/1999/xlink" x="0px" y="0px"
	 viewBox="0 0 792 792" style="enable-background:new 0 0 792 792;" xml:space="preserve">
<style type="text/css">
	.st0{fill:#A77FB7;}
	.st1{fill:#FFFFFF;}
	.st2{fill:none;}
	.st3{fill:#DFC5E1;}
</style>
<g>
	<g>
		<g>
			<path class="st0" d="M596.9,364c5.6,0.3,10.2,4.6,10.8,10.2c1.6,10-10.1,10-15.3,8.8c-5.2-1.2-9.5-6.7-5.7-13.5
				C589.9,363.8,596.9,364,596.9,364z"/>
		</g>
		<g>
			<rect x="314.1" y="449.7" class="st1" width="347.2" height="6.9"/>
		</g>
		<g>
			<g>
				<path class="st1" d="M386.6,428.9c-0.3,0.4-0.4,0.8-0.4,1.1c0,0.8,0.8,1.5,2.3,2.1c1.6,0.6,3.4,0.9,5.7,1c0.4,4.1,0.8,6.4,1.2,7
					c-0.5,1.1-2,2.1-4.5,3.2c-2.4,1.1-5.2,1.6-8.3,1.6c-4.1,0-7.6-0.9-10.5-2.6c-2.9-1.7-4.4-4-4.4-6.8c0-0.7,0.1-1.4,0.2-2
					l9.1-40.6c2.3-1.5,5-2.6,8.1-3.4c3.2-0.8,6.4-1.2,9.9-1.2c4.9,0,9.1,0.8,12.5,2.5c4,1.9,6.4,4.6,7.2,8.1l9.7,40.2
					c-3,3.8-7.8,5.8-14.5,5.8c-3.2,0-6-0.6-8.2-1.7c-2.2-1.2-3.6-2.8-3.9-5l-0.9-5.2c1.7,0,3.4-0.4,4.9-1c1.6-0.6,2.4-1.3,2.4-2
					c0-0.5-0.2-0.8-0.6-1.1c-1.1,0.8-2.4,1.4-4,1.7c-1.6,0.4-3,0.6-4.4,0.6C391.7,431.2,388.7,430.5,386.6,428.9z M396.2,416.4
					c0.5,0,0.9-0.1,1.2-0.3c-0.7-4.3-1.2-6.9-1.5-7.7c-0.3-0.8-0.8-1.2-1.4-1.2c-0.3,0-0.6,0.1-1,0.3l1.6,8.6
					C395.3,416.3,395.7,416.4,396.2,416.4z"/>
				<path class="st2" d="M410.2,445.5c-3.3,0-6.2-0.6-8.5-1.8c-2.4-1.2-3.8-3.1-4.2-5.4l-1.1-5.9l0.7,0c1.6,0,3.2-0.3,4.7-0.9
					c1.5-0.6,2-1.1,2-1.4c0-0.1,0-0.3-0.1-0.4c-1.1,0.7-2.3,1.2-3.7,1.6c-1.6,0.4-3.1,0.6-4.5,0.6c-3.6,0-6.5-0.7-8.7-2.1
					c0,0.1,0,0.2,0,0.3c0,0.7,1.1,1.2,1.9,1.5c1.5,0.5,3.3,0.9,5.5,1l0.5,0l0,0.5c0.5,5.4,0.9,6.5,1.1,6.7l0.2,0.3l-0.2,0.3
					c-0.6,1.2-2.2,2.3-4.8,3.4c-2.5,1.1-5.4,1.6-8.5,1.6c-4.2,0-7.8-0.9-10.7-2.7c-3.1-1.9-4.6-4.3-4.6-7.3c0-0.8,0.1-1.5,0.2-2.1
					l9.1-40.8l0.2-0.1c2.3-1.5,5.1-2.6,8.3-3.5c3.2-0.8,6.6-1.3,10-1.3c5,0,9.3,0.9,12.8,2.5c4.1,1.9,6.6,4.8,7.5,8.5l9.8,40.5
					l-0.2,0.2C422,443.5,417,445.5,410.2,445.5z M397.7,433.5l0.8,4.6c0.3,2,1.5,3.5,3.6,4.6c2.2,1.1,4.8,1.7,8,1.7
					c6.3,0,11-1.8,13.8-5.3l-9.7-40c-0.8-3.4-3.1-6-6.9-7.8c-3.4-1.6-7.5-2.4-12.3-2.4c-3.3,0-6.6,0.4-9.7,1.2
					c-3,0.8-5.6,1.9-7.8,3.2l-9,40.4c-0.1,0.5-0.2,1.1-0.2,1.8c0,2.6,1.3,4.6,4.1,6.3c2.8,1.7,6.2,2.5,10.2,2.5c3,0,5.7-0.5,8-1.6
					c2.5-1.1,3.6-2,4-2.7c-0.3-0.7-0.7-2.3-1.1-6.4c-2.1-0.2-3.8-0.5-5.3-1c-1.8-0.6-2.7-1.5-2.7-2.6c0-0.5,0.2-0.9,0.5-1.4l0.3-0.5
					l0.5,0.4c2,1.5,4.8,2.2,8.5,2.2c1.3,0,2.7-0.2,4.2-0.6c1.5-0.4,2.8-0.9,3.8-1.7l0.3-0.2l0.3,0.3c0.5,0.4,0.8,0.9,0.8,1.6
					c0,1.3-1.6,2-2.8,2.5C400.8,433.1,399.3,433.4,397.7,433.5z M396.2,417c-0.6,0-1.1-0.2-1.5-0.5l-0.1-0.1l-1.7-9.2l0.4-0.2
					c0.5-0.2,0.9-0.3,1.3-0.3c0.6,0,1.4,0.3,1.9,1.6c0.3,0.9,0.8,3.4,1.5,7.8l0.1,0.4l-0.3,0.2C397.3,416.9,396.7,417,396.2,417z
					 M395.6,415.8c0.4,0.2,0.8,0.1,1.1,0c-0.7-4-1.2-6.4-1.4-7.2c-0.3-0.8-0.7-0.8-0.9-0.8c-0.1,0-0.2,0-0.4,0.1L395.6,415.8z"/>
			</g>
			<g>
				<path class="st1" d="M452.2,434.1l-4.9,9.6c-2.1,0.8-4.5,1.2-7,1.2c-4.4,0-8-1.3-10.8-3.8c-2.8-2.5-4.2-5.9-4.2-10.1
					c0-3.8,1.3-7.1,3.8-10c2.5-2.9,6.1-5.4,10.8-7.4c-0.3-0.9-0.9-1.4-1.7-1.4s-2.3,0.8-4.5,2.3c-2.1-1.1-4-2.9-5.6-5.5
					c-1.6-2.6-2.4-5.5-2.4-8.9c0-3.4,1.2-6.2,3.7-8.6c2.5-2.4,5.9-3.6,10.2-3.6c3.8,0,6.8,0.7,9.3,2.1l4.5,9l3.7-9.2
					c2.4-1.1,5.1-1.6,8.1-1.6c4.2,0,7.7,1.2,10.3,3.5c2.6,2.4,4,5.7,4,10c0,3.6-1.3,6.9-3.8,10c-2.5,3.1-5.8,5.6-9.8,7.4
					c0.3,0.8,0.9,1.2,1.7,1.2s2.1-0.6,3.9-1.9l8.8,11c0,4.6-1.1,8.2-3.4,11c-2.5,3-6,4.5-10.4,4.5
					C459.6,445,454.9,441.4,452.2,434.1z"/>
				<path class="st2" d="M466.3,445.6c-6.6,0-11.3-3.4-14.2-10.1l-4.5,8.7l-0.2,0.1c-2.2,0.8-4.6,1.2-7.2,1.2
					c-4.5,0-8.3-1.3-11.2-3.9c-2.9-2.6-4.4-6.2-4.4-10.5c0-3.9,1.3-7.4,3.9-10.4c2.5-2.9,6-5.3,10.4-7.3c-0.3-0.5-0.7-0.5-1-0.5
					c-0.4,0-1.5,0.3-4.2,2.2l-0.3,0.2l-0.3-0.2c-2.2-1.2-4.2-3.1-5.8-5.7c-1.7-2.6-2.5-5.7-2.5-9.2c0-3.5,1.3-6.5,3.9-9
					c2.6-2.5,6.2-3.7,10.6-3.7c3.8,0,7,0.7,9.5,2.2l0.1,0.1l4,8l3.3-8.2l0.2-0.1c2.5-1.1,5.3-1.7,8.3-1.7c4.4,0,8,1.2,10.7,3.6
					c2.8,2.5,4.2,6,4.2,10.5c0,3.7-1.3,7.2-3.9,10.4c-2.5,3-5.6,5.5-9.4,7.3c0.2,0.3,0.5,0.4,0.9,0.4c0.5,0,1.5-0.3,3.6-1.8l0.4-0.3
					l9.2,11.6v0.2c0,4.7-1.2,8.5-3.5,11.3C474.5,444,470.9,445.6,466.3,445.6z M452.3,432.7l0.5,1.2c2.6,7.1,7.1,10.5,13.6,10.5
					c4.2,0,7.6-1.5,9.9-4.3c2.1-2.6,3.2-6.1,3.3-10.4l-8.3-10.4c-1.7,1.1-3,1.7-3.8,1.7c-1.1,0-1.8-0.6-2.2-1.6l-0.2-0.5l0.5-0.2
					c3.9-1.8,7.1-4.2,9.6-7.2c2.4-3,3.7-6.2,3.7-9.6c0-4.1-1.3-7.3-3.8-9.6c-2.5-2.2-5.9-3.4-9.9-3.4c-2.8,0-5.4,0.5-7.7,1.5
					l-4.1,10.2l-5-10c-2.3-1.3-5.3-1.9-8.8-1.9c-4.2,0-7.5,1.2-9.8,3.4c-2.3,2.3-3.5,5-3.5,8.2c0,3.2,0.8,6.1,2.3,8.6
					c1.5,2.3,3.2,4.1,5.1,5.1c2.9-1.9,4-2.2,4.6-2.2c0.7,0,1.8,0.3,2.3,1.8l0.2,0.5l-0.5,0.2c-4.5,1.9-8.1,4.4-10.5,7.2
					c-2.4,2.8-3.7,6.1-3.7,9.7c0,4,1.4,7.3,4,9.7c2.7,2.4,6.2,3.6,10.5,3.6c2.3,0,4.5-0.4,6.5-1.1L452.3,432.7z"/>
			</g>
			<g>
				<path class="st1" d="M508.2,445.5c-5.1,0-9.7-1-13.9-3.1s-7.6-5.3-10.2-9.6c-2.6-4.3-3.9-9.7-3.9-16.1c0-9.4,2.8-16.7,8.4-21.9
					c5-4.6,11.4-7,19.3-7c8.6,0,15.3,2.7,20.3,8c5,5.3,7.5,12.3,7.5,20.9c0,9.6-2.7,17-8,22C522.9,443.2,516.4,445.5,508.2,445.5z
					 M509.9,414.7c0-2.8-0.1-4.8-0.4-5.9c-0.3-1.1-0.7-1.6-1.4-1.6c-0.4,0-0.8,0.1-1.2,0.4c0.1,0.5,0.1,1.2,0.3,2
					c0.1,0.9,0.2,2.7,0.2,5.5v2.8c0,1.9,0,3.3-0.1,4.2c-0.1,0.9-0.2,1.6-0.2,2.3c0,0.3-0.1,0.7-0.1,1c0.3,0.3,0.7,0.4,1.2,0.4
					c0.7,0,1.2-0.5,1.4-1.6c0.3-1.1,0.4-3,0.4-5.9V414.7z"/>
				<path class="st2" d="M508.2,446.1c-5.1,0-9.9-1.1-14.2-3.2c-4.3-2.1-7.8-5.4-10.5-9.8c-2.6-4.4-4-9.9-4-16.4
					c0-9.5,2.9-17,8.6-22.3c5.1-4.7,11.7-7.1,19.7-7.1c8.7,0,15.7,2.7,20.7,8.1c5.1,5.4,7.6,12.6,7.6,21.3c0,9.7-2.8,17.3-8.2,22.4
					C523.2,443.7,516.5,446.1,508.2,446.1z M507.9,388.3c-7.7,0-14.1,2.3-18.9,6.8c-5.5,5.1-8.3,12.4-8.3,21.5
					c0,6.3,1.3,11.7,3.8,15.9c2.5,4.2,5.9,7.3,10,9.4c4.1,2,8.7,3.1,13.7,3.1c8,0,14.4-2.3,19.1-6.7c5.2-4.9,7.8-12.2,7.8-21.6
					c0-8.5-2.5-15.4-7.3-20.5C523,390.9,516.3,388.3,507.9,388.3z M508.1,426.4c-0.6,0-1.1-0.2-1.5-0.6l-0.2-0.2l0.3-3.6
					c0.1-0.9,0.1-2.3,0.1-4.2v-2.8c0-2.7-0.1-4.6-0.2-5.4c-0.1-0.9-0.2-1.5-0.3-2.1l0-0.3l0.2-0.2c0.4-0.4,1-0.6,1.5-0.6
					c0.7,0,1.6,0.4,2,2c0.3,1.1,0.4,3.1,0.4,6v3.7c0,2.9-0.1,4.9-0.4,6C509.7,426.1,508.8,426.4,508.1,426.4z M507.6,425.2
					c0.2,0.1,0.4,0.1,0.6,0.1c0.1,0,0.6,0,0.9-1.2c0.2-1,0.4-2.9,0.4-5.7v-3.7c0-2.8-0.1-4.7-0.4-5.7c-0.3-1.2-0.7-1.2-0.9-1.2
					c-0.2,0-0.4,0-0.5,0.1c0.1,0.5,0.1,1,0.2,1.7c0.1,0.9,0.2,2.7,0.2,5.5v2.8c0,1.9,0,3.4-0.1,4.3L507.6,425.2z"/>
			</g>
			<g>
				<path class="st1" d="M548,444.2c-3.2,0-5.6-0.8-7.3-2.5c-1.7-1.7-2.6-4.2-2.6-7.6v-41.7c1.5-1.3,3.3-2.3,5.5-3
					c2.2-0.7,4.4-1,6.8-1c3.4,0,6.4,0.9,8.7,2.6c2.6,1.9,3.9,4.6,3.9,8v23.3c-1.6,0.1-3.2,0.6-4.7,1.3c-1.5,0.8-2.3,1.5-2.3,2.3
					c0,0.5,0.3,0.9,0.8,1.2c2.8-2.4,7-3.5,12.5-3.5h10.1c1.9,3.3,2.8,6.7,2.8,10.1c0,1.7-0.3,3.6-0.9,5.7c-0.6,2.1-1.4,3.7-2.4,4.8
					H548z"/>
				<path class="st2" d="M579.2,444.7H548c-3.3,0-5.9-0.9-7.7-2.7c-1.8-1.8-2.8-4.5-2.8-8v-42l0.2-0.2c1.6-1.3,3.5-2.4,5.7-3.1
					c2.2-0.7,4.6-1.1,6.9-1.1c3.5,0,6.6,0.9,9.1,2.7c2.7,2,4.1,4.9,4.1,8.5v23.9l-0.5,0c-1.5,0.1-3,0.6-4.5,1.3
					c-1.3,0.6-2,1.3-2,1.8c0,0.1,0,0.3,0.2,0.5c2.9-2.2,7.1-3.4,12.6-3.4h10.4l0.2,0.3c1.9,3.4,2.9,6.9,2.9,10.4
					c0,1.8-0.3,3.7-0.9,5.8c-0.6,2.2-1.5,3.8-2.5,5L579.2,444.7z M538.6,392.6v41.5c0,3.2,0.8,5.6,2.4,7.2c1.6,1.6,3.9,2.4,6.9,2.4
					h30.8c0.9-1,1.6-2.5,2.1-4.4c0.6-2,0.9-3.9,0.9-5.5c0-3.2-0.9-6.4-2.6-9.5h-9.8c-5.4,0-9.5,1.1-12.2,3.4l-0.3,0.3l-0.4-0.2
					c-0.9-0.6-1.1-1.2-1.1-1.7c0-1,0.9-2,2.6-2.8c1.4-0.7,2.9-1.1,4.4-1.3v-22.8c0-3.3-1.2-5.7-3.7-7.6c-2.3-1.6-5.1-2.4-8.4-2.4
					c-2.3,0-4.5,0.3-6.6,1C541.8,390.6,540,391.5,538.6,392.6z"/>
			</g>
			<g>
				<path class="st1" d="M609,396.8v44.1c-1.3,1.1-3.1,2.1-5.2,2.9c-2.2,0.8-4.8,1.2-8,1.2s-5.8-0.7-8-2.1c-2.5-1.5-3.7-3.6-3.7-6.4
					v-44.1c1.3-1.1,3.1-2.1,5.2-2.9c2.2-0.8,4.8-1.2,7.9-1.2s5.8,0.7,8.1,2C607.7,391.9,609,394.1,609,396.8z"/>
				<path class="st2" d="M595.7,447.2c-3.6,0-6.7-0.8-9.2-2.4c-3.1-1.9-4.8-4.8-4.8-8.3v-45.1l0.8-0.7c1.5-1.3,3.5-2.4,6-3.3
					c2.4-0.9,5.4-1.3,8.7-1.3c3.5,0,6.6,0.8,9.2,2.4c3.1,2,4.8,4.9,4.8,8.4v45.1l-0.8,0.7c-1.5,1.3-3.5,2.4-6,3.3
					C602.1,446.8,599.1,447.2,595.7,447.2z M586.3,393.5v43c0,1.9,0.8,3.4,2.6,4.4c1.8,1.2,4.1,1.8,6.8,1.8c2.9,0,5.3-0.3,7.2-1
					c1.5-0.5,2.7-1.1,3.7-1.8v-43c0-1.9-0.8-3.4-2.6-4.5c-1.8-1.1-4.2-1.7-6.8-1.7c-2.8,0-5.2,0.3-7.2,1
					C588.6,392.2,587.3,392.8,586.3,393.5z"/>
			</g>
			<g>
				<path class="st1" d="M648.6,410.9v30c-1.3,1.1-3.1,2.1-5.2,2.9c-2.2,0.8-4.8,1.2-8,1.2c-3.1,0-5.8-0.7-8-2.1
					c-2.5-1.5-3.7-3.6-3.7-6.4v-27.5h-9.9c-2-2.9-3.1-6.1-3.1-9.6c0-2.4,0.4-4.4,1.1-6.2c0.8-1.7,1.7-3.1,2.8-4.1h44.1
					c0.8,1.3,1.5,2.8,2,4.7c0.5,1.8,0.8,3.6,0.8,5.4c0,3.4-0.7,5.8-2.2,7.4s-3.5,2.4-6,2.4h-12.5c-0.1,0.2-0.1,0.4-0.1,0.6
					c0,0.5,0.3,0.9,0.9,1c0.6,0.2,2,0.3,4,0.3H648.6z"/>
				<path class="st2" d="M650.9,441.9l-0.8,0.7c-1.5,1.3-3.5,2.4-6,3.3c-2.4,0.8-5.4,1.3-8.7,1.3c-3.6,0-6.7-0.8-9.2-2.4
					c-3.1-1.9-4.8-4.8-4.8-8.3v-25.2h-8.8l-0.7-1c-2.3-3.3-3.5-7-3.5-10.9c0-2.7,0.4-5,1.3-7.1c0.9-2.1,2-3.7,3.4-4.9l0.6-0.6h46.2
					l0.7,1.1c0.9,1.5,1.7,3.2,2.3,5.2c0.6,2,0.9,4.1,0.9,6.1c0,3.9-1,7-2.8,9c-1.9,2.1-4.5,3.1-7.6,3.1h-2.5 M615,406.6h11v29.8
					c0,1.9,0.8,3.4,2.6,4.4c1.8,1.2,4.1,1.8,6.8,1.8c2.9,0,5.3-0.3,7.2-1c1.5-0.5,2.7-1.1,3.7-1.8v-26.6h-0.6c-3,0-4.1-0.2-4.7-0.4
					c-1.5-0.4-2.5-1.7-2.5-3.2c0-0.5,0.1-1.1,0.3-1.5l0.6-1.4h14c1.9,0,3.3-0.5,4.3-1.6c1.1-1.1,1.6-3.1,1.6-5.8
					c0-1.6-0.2-3.2-0.7-4.8c-0.3-1.1-0.7-2.1-1.2-3h-41.8c-0.6,0.7-1.2,1.6-1.6,2.7c-0.6,1.5-0.9,3.2-0.9,5.3
					C612.9,402,613.6,404.4,615,406.6z M642.2,408.4C642.2,408.4,642.2,408.4,642.2,408.4C642.2,408.4,642.2,408.4,642.2,408.4z"/>
			</g>
		</g>
		<g>
			<path class="st0" d="M349.1,366.5c-1.4-6.7-4.2-13.1-6.9-19.4c-3.2-7.6-4.8-15.3-2.5-23.4c0.4-1.7,0.1-3.5,0.1-6.8
				c-2.5,1.9-4.5,2.6-5.2,4c-2.5,5-5.7,10.1-6.6,15.5c-1.3,7.5-0.8,15.2-1.1,22.9c-0.5,10.3-3.9,19.1-12.6,25.1
				c3.4,7.7,7.5,15,12.2,22c2.1,3.1,6,6.3,5,11.1C346.2,403.9,353.5,387,349.1,366.5z"/>
			<path class="st1" d="M327.7,424l1.4-7c0.5-2.5-0.8-4.3-2.9-7c-0.6-0.8-1.2-1.5-1.8-2.3c-4.7-7.1-8.9-14.6-12.4-22.4l-0.8-1.7
				l1.6-1.1c7.3-5,11.2-12.7,11.6-23.3c0.1-2.5,0.1-5,0.2-7.5c0-5.2,0.1-10.5,1-15.7c0.8-4.6,3-8.9,5.2-13.1c0.6-1,1.1-2.1,1.6-3.1
				c0.7-1.5,2.1-2.3,3.6-3.3c0.7-0.4,1.5-0.9,2.3-1.5l3.7-2.7v4.6c0,1.1,0,2.1,0.1,2.9c0.1,1.7,0.1,3.1-0.2,4.5
				c-1.9,6.8-1.1,13.6,2.4,21.9c2.7,6.4,5.5,13,7,19.8l0,0c4.3,20.1-1.9,37.9-18.4,53.2L327.7,424z M317,385.2
				c3.2,6.9,7,13.7,11.2,20c0.4,0.6,1,1.3,1.5,2c1.2,1.5,2.6,3.3,3.4,5.4c12.7-13.3,17.3-28.6,13.7-45.5v0
				c-1.4-6.4-4.1-12.8-6.7-18.9c-3.9-9.3-4.8-17.2-2.6-25c0.1-0.5,0.2-1.2,0.1-2c-0.5,0.3-0.9,0.6-1,0.9c-0.5,1.1-1.1,2.1-1.7,3.2
				c-2,3.8-4.1,7.8-4.8,11.7c-0.8,4.8-0.9,9.8-0.9,15c0,2.5,0,5.1-0.2,7.6C328.5,370.8,324.6,379.3,317,385.2z"/>
		</g>
		<g>
			<path class="st0" d="M310.5,352.8c-1.4-6.7-4.2-13.1-6.9-19.4c-3.2-7.6-4.8-15.3-2.5-23.4c0.4-1.7,0.1-3.5,0.1-6.8
				c-2.5,1.9-4.5,2.6-5.2,4c-2.5,5-5.7,10.1-6.6,15.5c-1.3,7.5-0.8,15.2-1.1,22.9c-0.5,10.3-3.9,19.1-12.6,25.1
				c3.4,7.7,7.5,15,12.2,22c2.1,3.1,6,6.3,5,11.1C307.6,390.1,314.9,373.3,310.5,352.8z"/>
			<path class="st1" d="M289.1,410.3l1.4-7c0.5-2.5-0.8-4.3-3-7c-0.6-0.7-1.2-1.5-1.8-2.3c-4.7-7.1-8.9-14.6-12.4-22.4l-0.8-1.7
				l1.6-1.1c7.3-5,11.2-12.7,11.6-23.3c0.1-2.4,0.1-4.9,0.2-7.4c0-5.2,0.1-10.6,1-15.8c0.8-4.6,3-8.9,5.2-13.1
				c0.6-1,1.1-2.1,1.6-3.1c0.7-1.5,2-2.3,3.6-3.3c0.7-0.4,1.5-0.9,2.3-1.6l3.7-2.7v4.6c0,1.1,0,2.1,0.1,2.9c0.1,1.7,0.2,3.1-0.2,4.5
				c-1.9,6.8-1.1,13.6,2.4,21.9c2.7,6.4,5.5,13,7,19.8l0,0c4.3,20-1.9,37.9-18.4,53.2L289.1,410.3z M278.4,371.4
				c3.2,6.9,7,13.6,11.2,20c0.4,0.6,1,1.3,1.5,2c1.2,1.5,2.6,3.3,3.4,5.4c12.7-13.3,17.3-28.6,13.7-45.5v0
				c-1.4-6.4-4.1-12.8-6.7-18.9c-3.9-9.3-4.8-17.2-2.6-25c0.1-0.5,0.1-1.2,0.1-2c-0.5,0.3-0.9,0.6-1,0.8c-0.5,1.1-1.1,2.1-1.7,3.2
				c-2,3.8-4.1,7.8-4.8,11.7c-0.9,4.9-0.9,9.8-1,15.1c0,2.5,0,5-0.2,7.5C289.9,357.1,286,365.5,278.4,371.4z"/>
		</g>
		<g>
			<path class="st0" d="M230.7,354.9c1.4-6.7,4.2-13.1,6.9-19.4c3.2-7.6,4.8-15.3,2.5-23.4c-0.5-1.7-0.1-3.5-0.1-6.8
				c2.5,1.9,4.5,2.6,5.2,4c2.5,5,5.7,10.1,6.6,15.5c1.3,7.5,0.8,15.2,1.1,22.9c0.5,10.3,3.9,19.1,12.6,25.1c-3.5,7.7-7.6,15-12.3,22
				c-2.1,3.1-6,6.3-5,11.1C233.6,392.3,226.3,375.4,230.7,354.9z"/>
			<path class="st1" d="M252,412.4l-5.2-4.8c-16.5-15.2-22.7-33.1-18.4-53.2v0c1.5-6.9,4.3-13.4,7-19.8c3.6-8.4,4.3-15.2,2.5-22
				c-0.4-1.4-0.3-2.8-0.2-4.5c0-0.8,0.1-1.8,0.1-2.9v-4.6l3.7,2.7c0.8,0.6,1.6,1.1,2.3,1.6c1.5,1,2.8,1.8,3.6,3.3
				c0.5,1,1.1,2.1,1.6,3.1c2.2,4.1,4.5,8.4,5.2,13.1c0.9,5.2,1,10.6,1,15.8c0,2.4,0,4.9,0.2,7.3c0.5,10.7,4.3,18.3,11.6,23.3
				l1.6,1.1l-0.8,1.7c-3.5,7.8-7.7,15.3-12.5,22.3c-0.5,0.8-1.1,1.6-1.7,2.3c-2.2,2.7-3.5,4.5-3,7.1L252,412.4z M232.9,355.4
				c-3.6,16.9,0.9,32.2,13.6,45.5c0.8-2.1,2.2-3.9,3.4-5.4c0.6-0.7,1.1-1.4,1.5-2c4.3-6.3,8.1-13.1,11.3-20
				c-7.6-5.9-11.5-14.3-12-25.8c-0.1-2.5-0.1-5-0.2-7.5c0-5.2-0.1-10.2-1-15c-0.7-3.9-2.7-7.9-4.8-11.7c-0.6-1.1-1.1-2.1-1.7-3.2
				c-0.1-0.2-0.5-0.5-1-0.9c0,0.8,0,1.5,0.1,2c2.1,7.8,1.3,15.7-2.6,24.9C237,342.6,234.3,349,232.9,355.4L232.9,355.4z"/>
		</g>
		<g>
			<path class="st0" d="M372.3,422.2c3.7-5.7,6.3-12.2,8.9-18.6c3.1-7.7,7.4-14.2,14.8-18.4c1.5-0.8,2.5-2.4,4.8-4.8
				c-3.1-0.5-5-1.3-6.5-0.9c-5.4,1.8-11.2,3.1-15.7,6.3c-6.2,4.3-11.3,10.2-17,15.4c-7.6,7-16.3,10.8-26.7,8.8
				c-3,7.9-5.3,16-6.9,24.2c-0.7,3.7-0.1,8.7-4.3,11.4C343.9,446.5,360.9,439.8,372.3,422.2z"/>
			<path class="st1" d="M326.9,448.1c-1.1,0-2.2,0-3.3-0.1l-7.2-0.3l6-3.9c2.1-1.4,2.5-3.6,2.9-7.1c0.1-1,0.2-1.9,0.4-2.9
				c1.6-8.3,4-16.6,7-24.6l0.7-1.8l1.9,0.4c8.7,1.6,16.8-1.1,24.7-8.3c1.8-1.6,3.5-3.3,5.2-5c3.7-3.7,7.6-7.5,12-10.5
				c3.9-2.7,8.5-4.2,13-5.6c1.1-0.3,2.2-0.7,3.3-1c1.6-0.5,3.1-0.2,4.9,0.2c0.8,0.2,1.7,0.4,2.7,0.5l4.5,0.7l-3.2,3.2
				c-0.8,0.8-1.4,1.5-2,2.1c-1.2,1.3-2.1,2.3-3.3,3c-6.1,3.5-10.4,8.8-13.8,17.2l-0.1,0.2c-2.6,6.3-5.2,12.9-9,18.7l0,0
				C363.7,439.8,347.8,448.1,326.9,448.1z M336.5,412.7c-2.6,7.2-4.7,14.6-6.2,22.1c-0.1,0.7-0.2,1.6-0.3,2.5
				c-0.2,2-0.5,4.2-1.4,6.2c18.4-0.4,32.4-8,41.8-22.5c3.5-5.5,6.1-11.8,8.6-18l0.1-0.2c3.8-9.3,8.8-15.5,15.8-19.5
				c0.5-0.3,0.9-0.7,1.5-1.3c-0.6-0.1-1.1-0.2-1.3-0.1c-1.1,0.4-2.2,0.7-3.3,1.1c-4.2,1.3-8.5,2.6-11.8,4.9
				c-4.1,2.8-7.6,6.3-11.4,10c-1.7,1.7-3.5,3.5-5.4,5.1C354.8,410.7,346,413.9,336.5,412.7z"/>
		</g>
		<g>
			<path class="st0" d="M161.1,418.3c-3.7-5.7-6.3-12.2-8.9-18.6c-3.1-7.7-7.4-14.2-14.8-18.4c-1.5-0.8-2.5-2.4-4.8-4.8
				c3.1-0.5,5-1.4,6.5-0.9c5.4,1.8,11.2,3.1,15.7,6.3c6.2,4.3,11.3,10.2,17,15.4c7.6,7,16.3,10.8,26.7,8.8c3,7.9,5.3,16,6.9,24.2
				c0.7,3.7,0.1,8.7,4.3,11.4C189.6,442.6,172.5,435.9,161.1,418.3z"/>
			<path class="st1" d="M206.5,444.2c-20.8,0-36.7-8.3-47.3-24.7l0,0c-3.8-5.9-6.4-12.4-9-18.7l-0.1-0.2
				c-3.4-8.4-7.7-13.7-13.8-17.2c-1.3-0.7-2.2-1.7-3.3-3c-0.6-0.6-1.2-1.3-2-2.1l-3.2-3.2l4.5-0.7c1-0.1,1.9-0.4,2.7-0.5
				c1.8-0.4,3.3-0.8,4.9-0.2c1.1,0.4,2.2,0.7,3.3,1c4.5,1.4,9.1,2.8,13,5.5c4.4,3.1,8.2,6.9,11.9,10.5c1.7,1.7,3.5,3.4,5.2,5
				c7.9,7.2,15.9,9.9,24.7,8.3l1.9-0.4l0.7,1.8c3,8,5.4,16.2,7,24.6c0.2,0.9,0.3,1.9,0.4,2.9c0.4,3.5,0.8,5.7,2.9,7.1l6,3.9
				l-7.1,0.3C208.6,444.2,207.6,444.2,206.5,444.2z M163.1,417c9.4,14.5,23.4,22.1,41.7,22.5c-0.9-2.1-1.2-4.3-1.4-6.2
				c-0.1-0.9-0.2-1.7-0.3-2.5c-1.5-7.5-3.5-14.9-6.1-22.1c-9.5,1.2-18.3-2-26.7-9.7c-1.8-1.7-3.6-3.4-5.4-5.2
				c-3.6-3.5-7.3-7.2-11.4-10c-3.3-2.3-7.6-3.6-11.7-4.9c-1.1-0.4-2.2-0.7-3.4-1.1c-0.2-0.1-0.7,0-1.3,0.1c0.6,0.6,1,1.1,1.5,1.3
				c7,4,12,10.2,15.8,19.5l0.1,0.2C157,405.2,159.5,411.6,163.1,417z"/>
		</g>
		<g>
			<path class="st0" d="M188,361.7c1.4-6.7,4.2-13.1,6.9-19.4c3.2-7.6,4.8-15.3,2.5-23.4c-0.4-1.6,0-3.5,0-6.8
				c2.5,1.9,4.5,2.6,5.2,4c2.5,5,5.7,10.1,6.6,15.5c1.3,7.5,0.8,15.2,1.1,22.9c0.5,10.3,3.9,19.1,12.6,25.1c-3.4,7.7-7.5,15-12.2,22
				c-2.1,3.1-6,6.3-5,11.1C190.9,399,183.6,382.2,188,361.7z"/>
			<path class="st1" d="M209.4,419.1l-5.2-4.8c-16.6-15.2-22.8-33.1-18.5-53.2c1.5-6.8,4.3-13.4,7-19.7l0-0.1
				c3.5-8.4,4.3-15.1,2.4-21.9c-0.4-1.4-0.3-2.8-0.2-4.4c0.1-0.9,0.1-1.9,0.1-3v-4.6l3.7,2.7c0.8,0.6,1.6,1.1,2.3,1.5
				c1.5,1,2.9,1.8,3.6,3.3c0.5,1,1.1,2.1,1.6,3.1c2.2,4.1,4.5,8.4,5.2,13.1c0.9,5.2,1,10.6,1,15.8c0,2.4,0,4.9,0.2,7.3
				c0.5,10.7,4.3,18.3,11.6,23.3l1.6,1.1l-0.8,1.7c-3.5,7.8-7.7,15.3-12.4,22.4c-0.5,0.8-1.1,1.6-1.7,2.3c-2.2,2.7-3.5,4.5-3,7
				L209.4,419.1z M199.5,316.2c0,0.9,0,1.5,0.1,2c2.1,7.8,1.3,15.7-2.6,24.9l0,0.1c-2.6,6.1-5.3,12.5-6.7,18.9l0,0
				c-3.7,17,1,32.2,13.7,45.5c0.8-2.1,2.2-3.9,3.4-5.4c0.6-0.7,1.1-1.4,1.5-2c4.3-6.3,8-13.1,11.3-20c-7.6-5.9-11.5-14.3-12-25.8
				c-0.1-2.5-0.1-5.1-0.2-7.5c-0.1-5.2-0.1-10.2-1-15.1c-0.7-3.9-2.7-7.9-4.8-11.7c-0.6-1.1-1.1-2.1-1.7-3.2
				C200.4,316.9,200,316.5,199.5,316.2z"/>
		</g>
		<g>
			<ellipse class="st0" cx="265.6" cy="420.6" rx="72.1" ry="54.2"/>
			<path class="st1" d="M265.6,477c-41,0-74.4-25.3-74.4-56.5s33.4-56.5,74.4-56.5s74.4,25.3,74.4,56.5S306.6,477,265.6,477z
				 M265.6,368.7c-38.5,0-69.8,23.3-69.8,51.9s31.3,51.9,69.8,51.9s69.8-23.3,69.8-51.9S304.1,368.7,265.6,368.7z"/>
		</g>
		<g>
			<path class="st1" d="M230.4,399.6c-5.3,0.3-9.5,4.3-10.1,9.6c-1.5,9.4,9.5,9.4,14.4,8.3s8.9-6.3,5.3-12.6
				C236.9,399.4,230.4,399.6,230.4,399.6z"/>
		</g>
		<g>
			<path class="st1" d="M294.4,399.6c5.3,0.3,9.5,4.3,10.1,9.6c1.5,9.4-9.5,9.4-14.4,8.3s-8.9-6.3-5.3-12.6
				C287.9,399.4,294.4,399.6,294.4,399.6z"/>
		</g>
		<g>
			<path class="st3" d="M284.5,427.2c-0.1,3.2,4.1,6,9.4,6.1c5.3,0.2,9.6-2.3,9.8-5.5c0.1-3.2-4.1-6-9.4-6.2
				S284.6,423.9,284.5,427.2z"/>
		</g>
		<g>
			<path class="st3" d="M221.2,426.4c-0.1,3.2,4.1,6,9.4,6.1s9.7-2.3,9.8-5.5c0.1-3.2-4.1-6-9.4-6.2
				C225.6,420.7,221.3,423.2,221.2,426.4z"/>
		</g>
	</g>
	<g>
		<path class="st1" d="M325.2,487.4l-3.2-21.7v-0.1c0-0.2,0.1-0.4,0.2-0.5c0.1-0.1,0.3-0.2,0.5-0.2h0.7c0.4,0,0.6,0.2,0.6,0.5
			l3,20.4l11.6-20.4c0.2-0.3,0.4-0.5,0.7-0.5h1c0.2,0,0.3,0.1,0.4,0.2c0.1,0.1,0.1,0.2,0.1,0.4c0,0.2,0,0.3-0.1,0.5l-12.2,21.4
			c-0.2,0.3-0.4,0.5-0.6,0.6c-0.2,0.1-0.4,0.2-0.7,0.2h-1C325.6,488.2,325.3,487.9,325.2,487.4z"/>
		<path class="st1" d="M340.9,486.9c-1-1.1-1.5-2.6-1.5-4.4c0-0.5,0-1,0.1-1.6c0.1-0.7,0.3-1.6,0.6-2.7c0.7-2.3,1.8-4.2,3.4-5.6
			c1.6-1.4,3.4-2.1,5.6-2.1c1.9,0,3.3,0.5,4.3,1.5c1,1,1.5,2.5,1.5,4.3c0,0.8-0.1,1.7-0.3,2.7l-0.1,0.5c0,0.2-0.2,0.4-0.3,0.5
			c-0.2,0.1-0.4,0.2-0.6,0.2h-11.8l-0.1,0.3c-0.1,0.4-0.1,0.8-0.1,1.3c0,1.3,0.4,2.4,1.1,3.3c0.7,0.9,1.7,1.3,3,1.3
			c1.2,0,2.3-0.2,3.1-0.7c0.9-0.5,1.5-1,1.9-1.4c0.3-0.3,0.5-0.4,0.6-0.5c0.1-0.1,0.3-0.1,0.6-0.1h0.5c0.2,0,0.3,0,0.4,0.1
			c0.1,0.1,0.2,0.2,0.2,0.4c0,0.4-0.4,1-1.1,1.6c-0.7,0.7-1.7,1.3-2.9,1.8c-1.2,0.5-2.5,0.8-3.8,0.8
			C343.4,488.5,341.9,487.9,340.9,486.9z M352.7,478.5l0-0.1c0.1-0.6,0.2-1.2,0.2-1.6c0-1.3-0.4-2.3-1.1-3.1
			c-0.7-0.8-1.8-1.2-3.1-1.2c-1.6,0-3,0.6-4.2,1.7c-1.2,1.1-2,2.5-2.3,4.2l0,0.1H352.7z"/>
		<path class="st1" d="M356.8,488c-0.1-0.1-0.1-0.3-0.1-0.5l3.4-15.8c0-0.2,0.1-0.4,0.3-0.5c0.2-0.1,0.4-0.2,0.6-0.2h0.6
			c0.2,0,0.4,0.1,0.5,0.2c0.1,0.1,0.1,0.3,0.1,0.5l-0.3,1.6c0.7-0.8,1.6-1.5,2.6-1.9c1-0.5,2.1-0.7,3.3-0.7c2,0,3.4,0.5,4.4,1.4
			c0.9,0.9,1.4,2.2,1.4,3.8c0,0.7-0.1,1.4-0.3,2.3l-2,9.5c0,0.2-0.1,0.4-0.3,0.5c-0.2,0.1-0.3,0.2-0.6,0.2h-0.6
			c-0.2,0-0.4-0.1-0.5-0.2c-0.1-0.1-0.1-0.3-0.1-0.5l2-9.3c0.2-1.1,0.3-1.9,0.3-2.5c0-1.1-0.3-1.9-0.9-2.4c-0.6-0.5-1.5-0.8-2.9-0.8
			c-1.8,0-3.3,0.5-4.5,1.5c-1.2,1-2.1,2.4-2.4,4.2l-2,9.3c0,0.2-0.1,0.4-0.3,0.5c-0.2,0.1-0.3,0.2-0.6,0.2h-0.6
			C357,488.2,356.9,488.1,356.8,488z"/>
		<path class="st1" d="M378.1,486.7c-0.9-1.2-1.4-2.7-1.4-4.5c0-0.7,0-1.3,0.1-1.8c0.1-0.4,0.2-1.1,0.4-1.9c0.6-2.3,1.6-4.2,3-5.8
			c1.4-1.5,3.3-2.3,5.7-2.3c2.5,0,4.2,0.9,5.1,2.6l1.7-7.9c0-0.2,0.1-0.4,0.3-0.5c0.2-0.1,0.3-0.2,0.6-0.2h0.6
			c0.2,0,0.4,0.1,0.5,0.2c0.1,0.1,0.1,0.3,0.1,0.5l-4.7,22.2c0,0.2-0.1,0.4-0.3,0.5c-0.2,0.1-0.3,0.2-0.6,0.2h-0.6
			c-0.2,0-0.4-0.1-0.5-0.2c-0.1-0.1-0.1-0.3-0.1-0.5l0.3-1.6c-0.8,0.9-1.6,1.5-2.5,2c-0.9,0.4-2,0.7-3.3,0.7
			C380.5,488.5,379,487.9,378.1,486.7z M385.8,485.7c1-0.6,1.8-1.3,2.4-2.2c0.6-0.9,1.1-1.8,1.3-2.8c0.2-0.6,0.3-1.5,0.6-2.6
			c0.1-0.6,0.1-1,0.1-1.3c0-1.2-0.3-2.3-1-3.1c-0.7-0.8-1.8-1.2-3.2-1.2c-1.7,0-3.1,0.6-4.2,1.7c-1.1,1.2-1.9,2.6-2.5,4.4
			c-0.2,0.5-0.3,1.2-0.4,1.9c-0.1,0.7-0.2,1.4-0.2,1.9c0,2.8,1.3,4.2,3.8,4.2C383.7,486.6,384.8,486.3,385.8,485.7z"/>
		<path class="st1" d="M396.9,485.1h1.5c0.2,0,0.3,0.1,0.3,0.2c0.1,0.1,0.1,0.3,0,0.4l-2.4,4.2c-0.1,0.2-0.3,0.4-0.4,0.5
			c-0.1,0.1-0.3,0.2-0.6,0.2h-0.6c-0.3,0-0.4-0.1-0.4-0.4l0.1-0.3l1.5-4C396.1,485.4,396.5,485.1,396.9,485.1z"/>
		<path class="st1" d="M409.6,488c-0.1-0.1-0.2-0.3-0.2-0.4c0-0.1,0-0.3,0.1-0.4l13-21.6c0.3-0.4,0.6-0.7,1.1-0.7h1.4
			c0.5,0,0.8,0.2,0.8,0.7l3.8,21.6c0,0.1,0,0.2,0,0.3c0,0.2-0.1,0.4-0.2,0.5c-0.1,0.1-0.3,0.2-0.4,0.2h-0.7c-0.4,0-0.7-0.2-0.8-0.7
			l-1-5.1h-11.7l-3.3,5.3c-0.2,0.3-0.5,0.5-0.8,0.5H410C409.8,488.2,409.7,488.1,409.6,488z M416.1,480.3h10.2l-2.3-13.1
			L416.1,480.3z"/>
		<path class="st1" d="M434.8,486.9c-1.1-1-1.6-2.5-1.6-4.3c0-0.7,0.1-1.3,0.2-1.8c0.3-1.3,0.5-2.2,0.6-2.7c0.6-2.4,1.6-4.3,3.1-5.7
			c1.5-1.3,3.4-2,5.7-2c2.1,0,3.6,0.5,4.5,1.4c1,1,1.4,2.1,1.4,3.4c0,0.2,0,0.4,0,0.6c0,0.2-0.1,0.4-0.2,0.5
			c-0.1,0.1-0.3,0.2-0.5,0.2h-0.6c-0.2,0-0.4,0-0.5-0.1c-0.1-0.1-0.2-0.3-0.1-0.5c0-1.2-0.3-2.1-1-2.7c-0.7-0.6-1.7-0.9-3-0.9
			c-1.6,0-3,0.5-4.2,1.5c-1.2,1-2.1,2.5-2.5,4.4c-0.1,0.4-0.3,1.2-0.5,2.3c-0.1,0.6-0.2,1.2-0.2,1.9c0,2.7,1.3,4,4,4
			c2.7,0,4.7-1.1,5.8-3.4c0.2-0.3,0.3-0.5,0.4-0.6c0.1-0.1,0.3-0.1,0.5-0.1h0.6c0.2,0,0.3,0.1,0.4,0.2c0.1,0.1,0.1,0.3,0.1,0.5
			c-0.3,0.9-0.7,1.7-1.4,2.5c-0.6,0.8-1.5,1.5-2.6,2c-1.1,0.5-2.4,0.8-3.8,0.8C437.4,488.5,435.9,488,434.8,486.9z"/>
		<path class="st1" d="M450.7,488c-0.1-0.1-0.1-0.3-0.1-0.5l4.7-22.2c0-0.2,0.1-0.4,0.3-0.5c0.2-0.1,0.3-0.2,0.6-0.2h0.6
			c0.2,0,0.4,0.1,0.5,0.2c0.1,0.1,0.1,0.3,0.1,0.5l-1.7,7.9c0.8-0.8,1.6-1.5,2.5-1.9c0.9-0.5,2-0.7,3.3-0.7c1.9,0,3.4,0.5,4.3,1.5
			c1,1,1.5,2.3,1.5,4c0,0.5-0.1,1.2-0.2,2l-2,9.5c0,0.2-0.1,0.4-0.3,0.5c-0.2,0.1-0.3,0.2-0.6,0.2h-0.6c-0.2,0-0.4-0.1-0.5-0.2
			c-0.1-0.1-0.1-0.3-0.1-0.5l2-9.3c0.2-0.8,0.3-1.5,0.3-2.1c0-2.4-1.3-3.6-3.8-3.6c-1.6,0-3.1,0.5-4.4,1.5c-1.3,1-2.1,2.4-2.5,4.1
			l-2,9.3c0,0.2-0.1,0.4-0.3,0.5c-0.2,0.1-0.3,0.2-0.6,0.2h-0.6C451,488.2,450.8,488.1,450.7,488z"/>
		<path class="st1" d="M472.7,486.9c-1-1.1-1.5-2.6-1.5-4.4c0-0.5,0-1,0.1-1.6c0.1-0.7,0.3-1.6,0.6-2.7c0.7-2.3,1.8-4.2,3.4-5.6
			c1.6-1.4,3.4-2.1,5.6-2.1c1.9,0,3.3,0.5,4.3,1.5c1,1,1.5,2.5,1.5,4.3c0,0.8-0.1,1.7-0.3,2.7l-0.1,0.5c0,0.2-0.2,0.4-0.3,0.5
			c-0.2,0.1-0.4,0.2-0.6,0.2h-11.8l-0.1,0.3c-0.1,0.4-0.1,0.8-0.1,1.3c0,1.3,0.4,2.4,1.1,3.3c0.7,0.9,1.7,1.3,3,1.3
			c1.2,0,2.3-0.2,3.1-0.7c0.9-0.5,1.5-1,1.9-1.4c0.3-0.3,0.5-0.4,0.6-0.5c0.1-0.1,0.3-0.1,0.6-0.1h0.5c0.2,0,0.3,0,0.4,0.1
			c0.1,0.1,0.2,0.2,0.2,0.4c0,0.4-0.4,1-1.1,1.6c-0.7,0.7-1.7,1.3-2.9,1.8c-1.2,0.5-2.5,0.8-3.8,0.8
			C475.1,488.5,473.7,487.9,472.7,486.9z M484.4,478.5l0-0.1c0.1-0.6,0.2-1.2,0.2-1.6c0-1.3-0.4-2.3-1.1-3.1
			c-0.7-0.8-1.8-1.2-3.1-1.2c-1.6,0-3,0.6-4.2,1.7c-1.2,1.1-2,2.5-2.3,4.2l0,0.1H484.4z"/>
		<path class="st1" d="M490.9,487.3c-0.6-0.5-0.9-1.3-0.9-2.3c0-0.7,0.1-1.5,0.3-2.4l2.1-9.8h-2.6c-0.2,0-0.4-0.1-0.5-0.2
			c-0.1-0.1-0.1-0.3-0.1-0.5l0.1-0.5c0-0.2,0.2-0.4,0.3-0.5c0.2-0.1,0.4-0.2,0.6-0.2h2.6l1.2-5.6c0-0.2,0.1-0.4,0.3-0.5
			c0.2-0.1,0.3-0.2,0.6-0.2h0.6c0.2,0,0.4,0.1,0.5,0.2c0.1,0.1,0.1,0.3,0.1,0.5l-1.2,5.6h4.1c0.2,0,0.4,0.1,0.5,0.2
			c0.1,0.1,0.1,0.3,0.1,0.5l-0.1,0.5c0,0.2-0.1,0.4-0.3,0.5c-0.2,0.1-0.4,0.2-0.6,0.2h-4.1l-2.1,9.7c-0.2,1.1-0.4,1.8-0.4,2.2
			c0,0.5,0.2,0.9,0.4,1.2c0.3,0.2,0.8,0.4,1.6,0.4h2c0.2,0,0.4,0.1,0.5,0.2c0.1,0.1,0.1,0.3,0.1,0.5l-0.1,0.5c0,0.2-0.1,0.4-0.3,0.5
			c-0.2,0.1-0.3,0.2-0.6,0.2H494C492.5,488.2,491.5,487.9,490.9,487.3z"/>
		<path class="st1" d="M502.3,486.9c-1-1.1-1.5-2.6-1.5-4.4c0-0.5,0-1,0.1-1.6c0.1-0.7,0.3-1.6,0.6-2.7c0.7-2.3,1.8-4.2,3.4-5.6
			c1.6-1.4,3.4-2.1,5.6-2.1c1.9,0,3.3,0.5,4.3,1.5c1,1,1.5,2.5,1.5,4.3c0,0.8-0.1,1.7-0.3,2.7l-0.1,0.5c0,0.2-0.2,0.4-0.3,0.5
			c-0.2,0.1-0.4,0.2-0.6,0.2H503l-0.1,0.3c-0.1,0.4-0.1,0.8-0.1,1.3c0,1.3,0.4,2.4,1.1,3.3c0.7,0.9,1.7,1.3,3,1.3
			c1.2,0,2.3-0.2,3.1-0.7c0.9-0.5,1.5-1,1.9-1.4c0.3-0.3,0.5-0.4,0.6-0.5c0.1-0.1,0.3-0.1,0.6-0.1h0.5c0.2,0,0.3,0,0.4,0.1
			c0.1,0.1,0.2,0.2,0.2,0.4c0,0.4-0.4,1-1.1,1.6c-0.7,0.7-1.7,1.3-2.9,1.8c-1.2,0.5-2.5,0.8-3.8,0.8
			C504.7,488.5,503.3,487.9,502.3,486.9z M514,478.5l0-0.1c0.1-0.6,0.2-1.2,0.2-1.6c0-1.3-0.4-2.3-1.1-3.1c-0.7-0.8-1.8-1.2-3.1-1.2
			c-1.6,0-3,0.6-4.2,1.7c-1.2,1.1-2,2.5-2.3,4.2l0,0.1H514z"/>
		<path class="st1" d="M519.3,485.1h1.5c0.2,0,0.3,0.1,0.3,0.2c0.1,0.1,0.1,0.3,0,0.4l-2.4,4.2c-0.1,0.2-0.3,0.4-0.4,0.5
			c-0.1,0.1-0.3,0.2-0.6,0.2h-0.6c-0.3,0-0.4-0.1-0.4-0.4l0.1-0.3l1.5-4C518.6,485.4,518.9,485.1,519.3,485.1z"/>
		<path class="st1" d="M535.6,488c-0.1-0.1-0.1-0.3-0.1-0.5l4.6-21.8c0-0.2,0.1-0.4,0.3-0.5c0.2-0.1,0.4-0.2,0.6-0.2h7.8
			c2,0,3.6,0.4,4.7,1.2c1.1,0.8,1.7,2.1,1.7,3.7c0,0.6-0.1,1.2-0.2,1.8c-0.4,1.8-1.1,3.2-2.2,4.2c-1.1,1.1-2.5,1.8-4.2,2.2l3.4,9.1
			c0,0.1,0,0.2,0,0.4c0,0.2-0.1,0.3-0.3,0.5c-0.2,0.1-0.3,0.2-0.5,0.2h-0.4c-0.3,0-0.6-0.1-0.7-0.2c-0.1-0.1-0.3-0.4-0.4-0.7l-3.4-9
			h-6.9l-1.9,9.1c0,0.2-0.2,0.4-0.3,0.5c-0.2,0.1-0.4,0.2-0.6,0.2h-0.6C535.9,488.2,535.7,488.1,535.6,488z M546.2,476.3
			c3.8,0,6.1-1.6,6.7-4.7c0.1-0.5,0.2-1,0.2-1.3c0-2.3-1.6-3.4-4.9-3.4H542l-2,9.5H546.2z"/>
		<path class="st1" d="M558.1,486.9c-1-1.1-1.5-2.6-1.5-4.4c0-0.5,0-1,0.1-1.6c0.1-0.7,0.3-1.6,0.6-2.7c0.7-2.3,1.8-4.2,3.4-5.6
			c1.6-1.4,3.4-2.1,5.6-2.1c1.9,0,3.3,0.5,4.3,1.5c1,1,1.5,2.5,1.5,4.3c0,0.8-0.1,1.7-0.3,2.7l-0.1,0.5c0,0.2-0.2,0.4-0.3,0.5
			c-0.2,0.1-0.4,0.2-0.6,0.2h-11.8l-0.1,0.3c-0.1,0.4-0.1,0.8-0.1,1.3c0,1.3,0.4,2.4,1.1,3.3c0.7,0.9,1.7,1.3,3,1.3
			c1.2,0,2.3-0.2,3.1-0.7c0.9-0.5,1.5-1,1.9-1.4c0.3-0.3,0.5-0.4,0.6-0.5c0.1-0.1,0.3-0.1,0.6-0.1h0.5c0.2,0,0.3,0,0.4,0.1
			c0.1,0.1,0.2,0.2,0.2,0.4c0,0.4-0.4,1-1.1,1.6c-0.7,0.7-1.7,1.3-2.9,1.8c-1.2,0.5-2.5,0.8-3.8,0.8
			C560.6,488.5,559.1,487.9,558.1,486.9z M569.9,478.5l0-0.1c0.1-0.6,0.2-1.2,0.2-1.6c0-1.3-0.4-2.3-1.1-3.1
			c-0.7-0.8-1.8-1.2-3.1-1.2c-1.6,0-3,0.6-4.2,1.7c-1.2,1.1-2,2.5-2.3,4.2l0,0.1H569.9z M565.2,468.2c-0.1-0.1-0.1-0.2,0-0.4
			c0-0.2,0.1-0.3,0.3-0.4l2.9-2.8c0.2-0.2,0.5-0.4,0.6-0.5c0.2-0.1,0.4-0.1,0.7-0.1h1.4c0.2,0,0.3,0,0.4,0.1
			c0.1,0.1,0.1,0.2,0.1,0.3c0,0.2-0.1,0.4-0.3,0.5l-4.3,3c-0.2,0.1-0.4,0.2-0.5,0.3c-0.1,0-0.3,0.1-0.6,0.1h-0.4
			C565.3,468.4,565.2,468.3,565.2,468.2z"/>
		<path class="st1" d="M572.6,494.3c-0.1-0.1-0.1-0.3-0.1-0.5l4.7-22.2c0-0.2,0.1-0.4,0.3-0.5c0.2-0.1,0.3-0.2,0.6-0.2h0.6
			c0.2,0,0.4,0.1,0.5,0.2c0.1,0.1,0.1,0.3,0.1,0.5l-0.3,1.6c0.8-0.9,1.6-1.5,2.5-2c0.9-0.4,2-0.7,3.3-0.7c2,0,3.5,0.6,4.4,1.7
			c0.9,1.2,1.4,2.7,1.4,4.5c0,0.7,0,1.3-0.1,1.8c-0.1,0.4-0.2,1.1-0.4,1.9c-0.6,2.3-1.6,4.2-3,5.8c-1.4,1.5-3.3,2.3-5.7,2.3
			c-2.5,0-4.2-0.9-5.1-2.6l-1.7,7.9c0,0.2-0.1,0.4-0.3,0.5c-0.2,0.1-0.3,0.2-0.6,0.2h-0.6C572.9,494.5,572.7,494.4,572.6,494.3z
			 M585.6,484.8c1.1-1.2,1.9-2.6,2.5-4.4c0.2-0.5,0.3-1.2,0.4-1.9c0.1-0.7,0.2-1.4,0.2-1.9c0-2.8-1.3-4.2-3.8-4.2
			c-1.2,0-2.3,0.3-3.3,0.9c-1,0.6-1.8,1.3-2.4,2.2c-0.6,0.9-1.1,1.8-1.3,2.8c-0.2,0.6-0.3,1.5-0.6,2.6c-0.1,0.6-0.1,1-0.1,1.3
			c0,1.2,0.3,2.3,1,3.1c0.7,0.8,1.8,1.2,3.2,1.2C583.1,486.6,584.5,486,585.6,484.8z"/>
		<path class="st1" d="M594.9,486.8c-0.9-1.1-1.3-2.6-1.3-4.4c0-0.6,0.1-1.2,0.2-2c0.1-0.4,0.2-1.1,0.4-1.9c1.4-5.4,4.2-8.1,8.6-8.1
			c1.4,0,2.4,0.2,3.2,0.7c0.8,0.5,1.4,1.1,1.8,1.9l0.3-1.6c0-0.2,0.1-0.4,0.3-0.5c0.2-0.1,0.3-0.2,0.6-0.2h0.6
			c0.2,0,0.4,0.1,0.5,0.2c0.1,0.1,0.1,0.3,0.1,0.5l-3.4,15.8c0,0.2-0.1,0.4-0.3,0.5c-0.2,0.1-0.3,0.2-0.6,0.2h-0.6
			c-0.2,0-0.4-0.1-0.5-0.2c-0.1-0.1-0.1-0.3-0.1-0.5l0.3-1.6c-0.8,0.9-1.6,1.5-2.5,2c-0.8,0.4-1.9,0.6-3.2,0.6
			C597.2,488.5,595.8,487.9,594.9,486.8z M602.5,485.7c0.9-0.6,1.7-1.3,2.3-2.2c0.6-0.9,1-1.8,1.3-2.8c0.2-0.6,0.3-1.5,0.6-2.6
			c0.1-0.4,0.1-0.9,0.1-1.5c0-1.2-0.3-2.2-1-3c-0.6-0.8-1.7-1.2-3.1-1.2c-1.7,0-3.1,0.6-4.1,1.7c-1.1,1.1-1.8,2.6-2.4,4.4
			c-0.2,0.5-0.3,1.2-0.4,1.9c-0.1,0.8-0.2,1.5-0.2,2.1c0,2.7,1.2,4,3.6,4C600.4,486.6,601.5,486.3,602.5,485.7z"/>
		<path class="st1" d="M612.2,488c-0.1-0.1-0.1-0.3-0.1-0.5l3.4-15.8c0-0.2,0.2-0.4,0.3-0.5c0.2-0.1,0.4-0.2,0.6-0.2h0.5
			c0.2,0,0.4,0.1,0.5,0.2c0.1,0.1,0.1,0.3,0.1,0.5l-0.3,1.5c0.5-0.8,1.2-1.3,2-1.7c0.9-0.4,1.8-0.6,3-0.6h1.2c0.2,0,0.4,0.1,0.5,0.2
			c0.1,0.1,0.1,0.3,0.1,0.5l-0.1,0.5c0,0.2-0.1,0.4-0.3,0.5c-0.2,0.1-0.4,0.2-0.6,0.2h-1.4c-1.3,0-2.5,0.4-3.4,1.2
			c-0.9,0.8-1.6,1.8-1.8,3.2l-2.2,10.3c0,0.2-0.1,0.4-0.3,0.5c-0.2,0.1-0.4,0.2-0.6,0.2h-0.5C612.4,488.2,612.3,488.1,612.2,488z"/>
		<path class="st1" d="M625.8,486.9c-1-1.1-1.5-2.6-1.5-4.4c0-0.5,0-1,0.1-1.6c0.1-0.7,0.3-1.6,0.6-2.7c0.7-2.3,1.8-4.2,3.4-5.6
			c1.6-1.4,3.4-2.1,5.6-2.1c1.9,0,3.3,0.5,4.3,1.5c1,1,1.5,2.5,1.5,4.3c0,0.8-0.1,1.7-0.3,2.7l-0.1,0.5c0,0.2-0.2,0.4-0.3,0.5
			c-0.2,0.1-0.4,0.2-0.6,0.2h-11.8l-0.1,0.3c-0.1,0.4-0.1,0.8-0.1,1.3c0,1.3,0.4,2.4,1.1,3.3c0.7,0.9,1.7,1.3,3,1.3
			c1.2,0,2.3-0.2,3.1-0.7c0.9-0.5,1.5-1,1.9-1.4c0.3-0.3,0.5-0.4,0.6-0.5c0.1-0.1,0.3-0.1,0.6-0.1h0.5c0.2,0,0.3,0,0.4,0.1
			c0.1,0.1,0.2,0.2,0.2,0.4c0,0.4-0.4,1-1.1,1.6c-0.7,0.7-1.7,1.3-2.9,1.8c-1.2,0.5-2.5,0.8-3.8,0.8
			C628.2,488.5,626.8,487.9,625.8,486.9z M637.5,478.5l0-0.1c0.1-0.6,0.2-1.2,0.2-1.6c0-1.3-0.4-2.3-1.1-3.1
			c-0.7-0.8-1.8-1.2-3.1-1.2c-1.6,0-3,0.6-4.2,1.7c-1.2,1.1-2,2.5-2.3,4.2l0,0.1H637.5z"/>
		<path class="st1" d="M650.1,488c-0.1-0.1-0.1-0.3-0.1-0.5l0.3-1.3c0-0.2,0.2-0.4,0.3-0.5c0.2-0.1,0.4-0.2,0.6-0.2h1.3
			c0.2,0,0.4,0.1,0.5,0.2c0.1,0.1,0.1,0.3,0.1,0.5l-0.3,1.3c0,0.2-0.2,0.4-0.3,0.5c-0.2,0.1-0.4,0.2-0.6,0.2h-1.3
			C650.4,488.2,650.2,488.1,650.1,488z M651.5,483.2c-0.1-0.1-0.1-0.3-0.1-0.5l3.6-17.1c0-0.2,0.1-0.4,0.3-0.5
			c0.2-0.1,0.4-0.2,0.6-0.2h0.6c0.2,0,0.4,0.1,0.5,0.2c0.1,0.1,0.1,0.3,0.1,0.5l-3.6,17.1c0,0.2-0.1,0.4-0.3,0.5
			c-0.2,0.1-0.4,0.2-0.6,0.2H652C651.7,483.4,651.6,483.3,651.5,483.2z"/>
	</g>
</g>
</svg>
