<svg xmlns="http://www.w3.org/2000/svg" width="85.668" height="14.5" viewBox="0 0 85.668 14.5">
  <g id="Groupe_602" data-name="Groupe 602" transform="translate(-70 -962)">
    <g id="Groupe_67" data-name="Groupe 67" transform="translate(70 962)">
      <path id="Tracé_67" data-name="Tracé 67" d="M238.83,246.768l2.163,4.382a.244.244,0,0,0,.184.134l4.836.7a.244.244,0,0,1,.135.417l-3.5,3.411a.244.244,0,0,0-.07.216l.826,4.816a.244.244,0,0,1-.354.258l-4.325-2.274a.244.244,0,0,0-.227,0l-4.325,2.274a.244.244,0,0,1-.354-.258l.826-4.816a.244.244,0,0,0-.07-.216l-3.5-3.411a.244.244,0,0,1,.135-.417l4.836-.7a.244.244,0,0,0,.184-.134l2.163-4.382A.244.244,0,0,1,238.83,246.768Z" transform="translate(-231 -246.632)" fill="#a77fb7"/>
      <g id="Groupe_40" data-name="Groupe 40" transform="translate(0.985 1.148)">
        <path id="Tracé_68" data-name="Tracé 68" d="M280.318,296.423l-1.927,3.733a.645.645,0,0,1-.515.346l-4.184.382,4.421.207a.645.645,0,0,0,.635-.421Z" transform="translate(-273.692 -296.423)" fill="#b999c5"/>
      </g>
      <path id="Tracé_69" data-name="Tracé 69" d="M353.1,477.134l-.1.554a.244.244,0,0,0,.354.258l4.325-2.274a.244.244,0,0,1,.227,0l4.325,2.274a.244.244,0,0,0,.354-.258l-.826-4.816a.245.245,0,0,1,.07-.216l3.5-3.411a.244.244,0,0,0-.135-.417l-1.62-.235A18.676,18.676,0,0,1,353.1,477.134Z" transform="translate(-350.189 -463.474)" fill="#9876a8"/>
    </g>
    <g id="Groupe_68" data-name="Groupe 68" transform="translate(87.553 962)">
      <path id="Tracé_67-2" data-name="Tracé 67" d="M238.83,246.768l2.163,4.382a.244.244,0,0,0,.184.134l4.836.7a.244.244,0,0,1,.135.417l-3.5,3.411a.244.244,0,0,0-.07.216l.826,4.816a.244.244,0,0,1-.354.258l-4.325-2.274a.244.244,0,0,0-.227,0l-4.325,2.274a.244.244,0,0,1-.354-.258l.826-4.816a.244.244,0,0,0-.07-.216l-3.5-3.411a.244.244,0,0,1,.135-.417l4.836-.7a.244.244,0,0,0,.184-.134l2.163-4.382A.244.244,0,0,1,238.83,246.768Z" transform="translate(-231 -246.632)" fill="#a77fb7"/>
      <g id="Groupe_40-2" data-name="Groupe 40" transform="translate(0.985 1.148)">
        <path id="Tracé_68-2" data-name="Tracé 68" d="M280.318,296.423l-1.927,3.733a.645.645,0,0,1-.515.346l-4.184.382,4.421.207a.645.645,0,0,0,.635-.421Z" transform="translate(-273.692 -296.423)" fill="#b999c5"/>
      </g>
      <path id="Tracé_69-2" data-name="Tracé 69" d="M353.1,477.134l-.1.554a.244.244,0,0,0,.354.258l4.325-2.274a.244.244,0,0,1,.227,0l4.325,2.274a.244.244,0,0,0,.354-.258l-.826-4.816a.245.245,0,0,1,.07-.216l3.5-3.411a.244.244,0,0,0-.135-.417l-1.62-.235A18.676,18.676,0,0,1,353.1,477.134Z" transform="translate(-350.189 -463.474)" fill="#9876a8"/>
    </g>
    <g id="Groupe_69" data-name="Groupe 69" transform="translate(105.105 962)">
      <path id="Tracé_67-3" data-name="Tracé 67" d="M238.83,246.768l2.163,4.382a.244.244,0,0,0,.184.134l4.836.7a.244.244,0,0,1,.135.417l-3.5,3.411a.244.244,0,0,0-.07.216l.826,4.816a.244.244,0,0,1-.354.258l-4.325-2.274a.244.244,0,0,0-.227,0l-4.325,2.274a.244.244,0,0,1-.354-.258l.826-4.816a.244.244,0,0,0-.07-.216l-3.5-3.411a.244.244,0,0,1,.135-.417l4.836-.7a.244.244,0,0,0,.184-.134l2.163-4.382A.244.244,0,0,1,238.83,246.768Z" transform="translate(-231 -246.632)" fill="#a77fb7"/>
      <g id="Groupe_40-3" data-name="Groupe 40" transform="translate(0.985 1.148)">
        <path id="Tracé_68-3" data-name="Tracé 68" d="M280.318,296.423l-1.927,3.733a.645.645,0,0,1-.515.346l-4.184.382,4.421.207a.645.645,0,0,0,.635-.421Z" transform="translate(-273.692 -296.423)" fill="#b999c5"/>
      </g>
      <path id="Tracé_69-3" data-name="Tracé 69" d="M353.1,477.134l-.1.554a.244.244,0,0,0,.354.258l4.325-2.274a.244.244,0,0,1,.227,0l4.325,2.274a.244.244,0,0,0,.354-.258l-.826-4.816a.245.245,0,0,1,.07-.216l3.5-3.411a.244.244,0,0,0-.135-.417l-1.62-.235A18.676,18.676,0,0,1,353.1,477.134Z" transform="translate(-350.189 -463.474)" fill="#9876a8"/>
    </g>
    <g id="Groupe_78" data-name="Groupe 78" transform="translate(140.447 962)">
      <path id="Tracé_67-4" data-name="Tracé 67" d="M238.83,246.768l2.163,4.382a.244.244,0,0,0,.184.134l4.836.7a.244.244,0,0,1,.135.417l-3.5,3.411a.244.244,0,0,0-.07.216l.826,4.816a.244.244,0,0,1-.354.258l-4.325-2.274a.244.244,0,0,0-.227,0l-4.325,2.274a.244.244,0,0,1-.354-.258l.826-4.816a.244.244,0,0,0-.07-.216l-3.5-3.411a.244.244,0,0,1,.135-.417l4.836-.7a.244.244,0,0,0,.184-.134l2.163-4.382A.244.244,0,0,1,238.83,246.768Z" transform="translate(-231 -246.632)" fill="#cec9c9"/>
      <g id="Groupe_40-4" data-name="Groupe 40" transform="translate(0.985 1.148)">
        <path id="Tracé_68-4" data-name="Tracé 68" d="M280.318,296.423l-1.927,3.733a.645.645,0,0,1-.515.346l-4.184.382,4.421.207a.645.645,0,0,0,.635-.421Z" transform="translate(-273.692 -296.423)" fill="#cec9c9"/>
      </g>
      <path id="Tracé_69-4" data-name="Tracé 69" d="M353.1,477.134l-.1.554a.244.244,0,0,0,.354.258l4.325-2.274a.244.244,0,0,1,.227,0l4.325,2.274a.244.244,0,0,0,.354-.258l-.826-4.816a.245.245,0,0,1,.07-.216l3.5-3.411a.244.244,0,0,0-.135-.417l-1.62-.235A18.676,18.676,0,0,1,353.1,477.134Z" transform="translate(-350.189 -463.474)" fill="#cec9c9"/>
    </g>
    <g id="Groupe_79" data-name="Groupe 79" transform="translate(122.447 962)">
      <path id="Tracé_67-5" data-name="Tracé 67" d="M238.83,246.768l2.163,4.382a.244.244,0,0,0,.184.134l4.836.7a.244.244,0,0,1,.135.417l-3.5,3.411a.244.244,0,0,0-.07.216l.826,4.816a.244.244,0,0,1-.354.258l-4.325-2.274a.244.244,0,0,0-.227,0l-4.325,2.274a.244.244,0,0,1-.354-.258l.826-4.816a.244.244,0,0,0-.07-.216l-3.5-3.411a.244.244,0,0,1,.135-.417l4.836-.7a.244.244,0,0,0,.184-.134l2.163-4.382A.244.244,0,0,1,238.83,246.768Z" transform="translate(-231 -246.632)" fill="#cec9c9"/>
      <g id="Groupe_40-5" data-name="Groupe 40" transform="translate(0.985 1.148)">
        <path id="Tracé_68-5" data-name="Tracé 68" d="M280.318,296.423l-1.927,3.733a.645.645,0,0,1-.515.346l-4.184.382,4.421.207a.645.645,0,0,0,.635-.421Z" transform="translate(-273.692 -296.423)" fill="#cec9c9"/>
      </g>
      <path id="Tracé_69-5" data-name="Tracé 69" d="M353.1,477.134l-.1.554a.244.244,0,0,0,.354.258l4.325-2.274a.244.244,0,0,1,.227,0l4.325,2.274a.244.244,0,0,0,.354-.258l-.826-4.816a.245.245,0,0,1,.07-.216l3.5-3.411a.244.244,0,0,0-.135-.417l-1.62-.235A18.676,18.676,0,0,1,353.1,477.134Z" transform="translate(-350.189 -463.474)" fill="#cec9c9"/>
    </g>
  </g>
</svg>
