<?xml version="1.0" encoding="UTF-8" standalone="no"?>
<svg
   xmlns:dc="http://purl.org/dc/elements/1.1/"
   xmlns:cc="http://creativecommons.org/ns#"
   xmlns:rdf="http://www.w3.org/1999/02/22-rdf-syntax-ns#"
   xmlns:svg="http://www.w3.org/2000/svg"
   xmlns="http://www.w3.org/2000/svg"
   xmlns:sodipodi="http://sodipodi.sourceforge.net/DTD/sodipodi-0.dtd"
   xmlns:inkscape="http://www.inkscape.org/namespaces/inkscape"
   width="217.081"
   height="247.88"
   viewBox="0 0 217.081 247.88"
   version="1.1"
   id="svg18"
   sodipodi:docname="Tracé 72.svg"
   inkscape:version="0.92.4 (5da689c313, 2019-01-14)">
  <metadata
     id="metadata22">
    <rdf:RDF>
      <cc:Work
         rdf:about="">
        <dc:format>image/svg+xml</dc:format>
        <dc:type
           rdf:resource="http://purl.org/dc/dcmitype/StillImage" />
      </cc:Work>
    </rdf:RDF>
  </metadata>
  <sodipodi:namedview
     pagecolor="#ffffff"
     bordercolor="#666666"
     borderopacity="1"
     objecttolerance="10"
     gridtolerance="10"
     guidetolerance="10"
     inkscape:pageopacity="0"
     inkscape:pageshadow="2"
     inkscape:window-width="1920"
     inkscape:window-height="1001"
     id="namedview20"
     showgrid="false"
     inkscape:snap-center="true"
     inkscape:object-nodes="false"
     inkscape:zoom="0.95207357"
     inkscape:cx="-35.355947"
     inkscape:cy="123.94"
     inkscape:window-x="-9"
     inkscape:window-y="-9"
     inkscape:window-maximized="1"
     inkscape:current-layer="svg18" />
  <defs
     id="defs13">
    <filter
       id="Tracé_72"
       x="0"
       y="0"
       width="217.081"
       height="247.88"
       filterUnits="userSpaceOnUse">
      <feOffset
         dx="3"
         dy="7"
         input="SourceAlpha"
         id="feOffset2" />
      <feGaussianBlur
         stdDeviation="3"
         result="blur"
         id="feGaussianBlur4" />
      <feFlood
         flood-opacity="0.161"
         id="feFlood6" />
      <feComposite
         operator="in"
         in2="blur"
         id="feComposite8"
         result="result1" />
      <feComposite
         in="SourceGraphic"
         in2="result1"
         id="feComposite10" />
    </filter>
  </defs>
  <g
     transform="matrix(1, 0, 0, 1, 0, 0)"
     filter="url(#Tracé_72)"
     id="g16"
     inkscape:export-xdpi="200"
     inkscape:export-ydpi="200">
    <path
       id="Tracé_72-2"
       data-name="Tracé 72"
       d="M229.88,99.541l-57.47,99.541H57.47L0,99.541,57.47,0H172.41Z"
       transform="translate(205.08 2) rotate(90)"
       fill="#7ac1b7" />
  </g>
  <path
     inkscape:connector-curvature="0"
     style="fill:#ffffff"
     id="Tracé_74"
     data-name="Tracé 74"
     d="m 156.6217,139.78252 a 2.525,2.525 0 0 0 2.4,-1.851 q 5.766,-27.083 11.539,-54.159005 a 2.548,2.548 0 0 0 -2.4,-3.195 H 64.154699 c -0.737,-3.508004 -1.468,-7.030004 -2.2,-10.540004 q -1.271,-6.032 -2.521,-12.078 a 2.525,2.525 0 0 0 -2.4,-1.853 h -14.196 c -3.2,0 -3.211,5.047 0,5.047 h 12.177 q 4.425,21.223004 8.855,42.465009 a 2.675,2.675 0 0 0 0.2,0.955 q 4.088,19.628 8.181,39.252 l 2.015,9.651 a 12.536,12.536 0 0 0 3.628,24.284 c 6.946,0.3 12.132003,-5.078 12.832003,-11.762 a 2.634,2.634 0 0 0 0.079,-0.749 2.556,2.556 0 0 0 -0.079,-0.739 13.915,13.915 0 0 0 -2.538,-6.755 H 142.8427 a 12.453,12.453 0 0 0 -2.538,7.494 12.588,12.588 0 0 0 11.831,12.512 c 6.956,0.3 12.14,-5.078 12.841,-11.762 a 3.06,3.06 0 0 0 0.078,-0.749 2.558,2.558 0 0 0 -0.078,-0.739 c -0.672,-6.467 -5.557,-11.8 -12.3,-11.8 H 79.190699 q -1.342,-6.463 -2.695,-12.927 z m -87.159001,-33.737 h 16.773 q 2.453003,14.345 4.912003,28.69 H 75.447699 l -5.984,-28.69 z m 47.982001,28.69 v -28.69 h 22.483 q -2.468,14.345 -4.912,28.69 z m -4.982,0 H 96.178702 q -2.45,-14.345 -4.914,-28.69 H 112.4647 Z m 42.157,0 h -14.574 q 2.45,-14.345 4.914,-28.69 h 15.78 q -3.068,14.345 -6.119,28.69 z m 0.2,-49.109005 h 10.262 q -1.65,7.69 -3.279,15.372005 H 68.401699 q -1.587,-7.690005 -3.2,-15.372005 z M 71.034699,165.25152 c 0,-9.683 14.28,-9.594 14.788,0 -0.508,9.594 -14.788,9.681 -14.788,0 z m 89.037001,0 c -0.515,9.594 -14.786,9.681 -14.786,0 0,-9.681 14.272,-9.594 14.786,0 z m 0,0"
     inkscape:export-xdpi="200"
     inkscape:export-ydpi="200" />
</svg>
