<?xml version="1.0" encoding="UTF-8" standalone="no"?>
<!-- Generator: Adobe Illustrator 22.1.0, SVG Export Plug-In . SVG Version: 6.00 Build 0)  -->

<svg
   xmlns:dc="http://purl.org/dc/elements/1.1/"
   xmlns:cc="http://creativecommons.org/ns#"
   xmlns:rdf="http://www.w3.org/1999/02/22-rdf-syntax-ns#"
   xmlns:svg="http://www.w3.org/2000/svg"
   xmlns="http://www.w3.org/2000/svg"
   xmlns:sodipodi="http://sodipodi.sourceforge.net/DTD/sodipodi-0.dtd"
   xmlns:inkscape="http://www.inkscape.org/namespaces/inkscape"
   version="1.1"
   id="Calque_1"
   x="0px"
   y="0px"
   viewBox="0 0 21.6 21.6"
   xml:space="preserve"
   sodipodi:docname="ddddd.svg"
   inkscape:version="0.92.4 (5da689c313, 2019-01-14)"
   width="21.6"
   height="21.6"><metadata
   id="metadata18"><rdf:RDF><cc:Work
       rdf:about=""><dc:format>image/svg+xml</dc:format><dc:type
         rdf:resource="http://purl.org/dc/dcmitype/StillImage" /></cc:Work></rdf:RDF></metadata><defs
   id="defs16" /><sodipodi:namedview
   pagecolor="#ffffff"
   bordercolor="#666666"
   borderopacity="1"
   objecttolerance="10"
   gridtolerance="10"
   guidetolerance="10"
   inkscape:pageopacity="0"
   inkscape:pageshadow="2"
   inkscape:window-width="958"
   inkscape:window-height="991"
   id="namedview14"
   showgrid="false"
   inkscape:zoom="18.009259"
   inkscape:cx="8.0167425"
   inkscape:cy="6.0322578"
   inkscape:window-x="-8"
   inkscape:window-y="0"
   inkscape:window-maximized="0"
   inkscape:current-layer="Calque_1" />
<style
   type="text/css"
   id="style2">
	.st0{fill:#A77EB7;}
	.st1{fill:#FFFFFF;stroke:#FFFFFF;stroke-width:0.5;}
</style>
<circle
   id="Ellipse_5"
   class="st0"
   cx="10.8"
   cy="10.8"
   r="10.8"
   inkscape:export-xdpi="1000"
   inkscape:export-ydpi="1000"
   style="fill:#a77eb7" />
<g
   id="g6"
   inkscape:export-xdpi="1000"
   inkscape:export-ydpi="1000"
   transform="translate(-385.30001,-385.99999)">
	<path
   id="Tracé_58-2_11_"
   class="st0"
   d="m 394.6,401.5 -1.7,-6.9 c 0,-0.6 0.2,-1.1 0.5,-1.6 1.3,-2 4.7,-2.1 5.3,0.4 0,0.1 0,0.1 0,0.2 h 0.8 l 0.5,0.4 c 0.1,0 0.3,0.6 0.3,0.7 1,0.4 0.6,1.7 0.6,3 0.1,1.1 -0.4,2.2 -1.4,2.7 -0.5,0.2 -1.9,1.3 -2.5,1.2 z"
   inkscape:connector-curvature="0"
   style="fill:#a77eb7" />
</g>
<g
   id="Groupe_27"
   transform="translate(-554.50901,-533.04699)"
   inkscape:export-xdpi="1000"
   inkscape:export-ydpi="1000">
	<g
   id="Groupe_25"
   transform="translate(183.29,161.128)">
		
			<rect
   id="Rectangle_10"
   x="386.39999"
   y="385.79999"
   transform="matrix(0.7071,-0.7071,0.7071,0.7071,-160.6413,386.8419)"
   class="st1"
   width="0.5"
   height="3.0999999"
   style="fill:#ffffff;stroke:#ffffff;stroke-width:0.5" />
	</g>
	<g
   id="Groupe_26"
   transform="translate(175.209,153.047)">
		<path
   id="Tracé_57"
   class="st1"
   d="m 390.3,386.5 c 2.5,0 4.5,2 4.5,4.5 0,2.5 -2,4.5 -4.5,4.5 -2.5,0 -4.5,-2 -4.5,-4.5 0,-2.5 2,-4.5 4.5,-4.5 m 0,-0.4 c -2.7,0 -4.9,2.2 -4.9,4.9 0,2.7 2.2,4.9 4.9,4.9 2.7,0 4.9,-2.2 4.9,-4.9 0,0 0,0 0,0 0,-2.7 -2.2,-4.9 -4.9,-4.9 z"
   inkscape:connector-curvature="0"
   style="fill:#ffffff;stroke:#ffffff;stroke-width:0.5" />
	</g>
</g>
</svg>