<?xml version="1.0" encoding="UTF-8" standalone="no"?>
<!-- Generator: Adobe Illustrator 22.1.0, SVG Export Plug-In . SVG Version: 6.00 Build 0)  -->

<svg
   xmlns:dc="http://purl.org/dc/elements/1.1/"
   xmlns:cc="http://creativecommons.org/ns#"
   xmlns:rdf="http://www.w3.org/1999/02/22-rdf-syntax-ns#"
   xmlns:svg="http://www.w3.org/2000/svg"
   xmlns="http://www.w3.org/2000/svg"
   xmlns:sodipodi="http://sodipodi.sourceforge.net/DTD/sodipodi-0.dtd"
   xmlns:inkscape="http://www.inkscape.org/namespaces/inkscape"
   version="1.1"
   id="Calque_1"
   x="0px"
   y="0px"
   viewBox="0 0 27.6 27.6"
   xml:space="preserve"
   sodipodi:docname="es.svg"
   inkscape:version="0.92.4 (5da689c313, 2019-01-14)"
   width="27.6"
   height="27.6"><metadata
   id="metadata15"><rdf:RDF><cc:Work
       rdf:about=""><dc:format>image/svg+xml</dc:format><dc:type
         rdf:resource="http://purl.org/dc/dcmitype/StillImage" /></cc:Work></rdf:RDF></metadata><defs
   id="defs13" /><sodipodi:namedview
   pagecolor="#ffffff"
   bordercolor="#666666"
   borderopacity="1"
   objecttolerance="10"
   gridtolerance="10"
   guidetolerance="10"
   inkscape:pageopacity="0"
   inkscape:pageshadow="2"
   inkscape:window-width="1920"
   inkscape:window-height="1001"
   id="namedview11"
   showgrid="false"
   inkscape:zoom="9.9661062"
   inkscape:cx="5.0492575"
   inkscape:cy="7.8427857"
   inkscape:window-x="-9"
   inkscape:window-y="-9"
   inkscape:window-maximized="1"
   inkscape:current-layer="Calque_1" />
<style
   type="text/css"
   id="style2">
	.st0{fill:#A77EB7;}
	.st1{fill:#FFFFFF;}
</style>
<g
   id="Composant_7_4"
   inkscape:export-xdpi="750"
   inkscape:export-ydpi="750"
   transform="translate(-382.30001,-382.99999)">
	<circle
   id="Ellipse_5"
   class="st0"
   cx="396.10001"
   cy="396.79999"
   r="13.8"
   style="fill:#a77eb7" />
	<g
   id="g6">
		<path
   id="Tracé_58-2_11_"
   class="st0"
   d="m 394.1,405.8 -4.3,-10.1 c -0.2,-0.7 -0.1,-1.4 0.1,-2.1 1,-2.4 5.3,-1.5 6.8,2.2 0,0.1 0.1,0.2 0.1,0.3 l 1,0.3 0.8,0.7 c 0.1,0 -2.2,0.2 -2.1,0.2 0.5,1.3 -0.3,4.3 0,6 0.4,1.6 0.5,3.3 0.3,4.9 -1.2,0.2 -2.5,0.1 -3.7,-0.2 z"
   inkscape:connector-curvature="0"
   style="fill:#a77eb7" />
	</g>
</g>
<path
   id="Tracé_64"
   class="st1"
   d="m 9.9999941,13.800012 v 10.3 c 0,0.1 0.1999999,0.3 0.3999999,0.3 h 5.1 c 0.2,0 0.4,-0.1 0.4,-0.3 v -10.5 h 3.7 c 0.2,0 0.3,-0.1 0.4,-0.2 l 0.4,-3.2 c 0,-0.2 -0.1,-0.2999996 -0.4,-0.2999996 h -4.1 v -2.2 c 0,-0.5 0.6,-1 1.3,-1 h 2.8 c 0.2,0 0.4,-0.1 0.4,-0.3 v -3.2 c 0,-0.1 -0.2,-0.3 -0.4,-0.3 h -4.8 c -2.8,0 -5.1,1.7 -5.1,3.9 v 3.1 H 7.5999941 c -0.2,0 -0.4,0.1 -0.4,0.2999996 v 3.2 c 0,0.1 0.2,0.3 0.4,0.3 h 2.4999999 v 0.1 z"
   inkscape:export-xdpi="750"
   inkscape:export-ydpi="750"
   inkscape:connector-curvature="0"
   style="fill:#ffffff" />
</svg>