<?xml version="1.0" encoding="UTF-8" standalone="no"?>
<!-- Generator: Adobe Illustrator 22.1.0, SVG Export Plug-In . SVG Version: 6.00 Build 0)  -->

<svg
   xmlns:dc="http://purl.org/dc/elements/1.1/"
   xmlns:cc="http://creativecommons.org/ns#"
   xmlns:rdf="http://www.w3.org/1999/02/22-rdf-syntax-ns#"
   xmlns:svg="http://www.w3.org/2000/svg"
   xmlns="http://www.w3.org/2000/svg"
   xmlns:sodipodi="http://sodipodi.sourceforge.net/DTD/sodipodi-0.dtd"
   xmlns:inkscape="http://www.inkscape.org/namespaces/inkscape"
   version="1.1"
   id="Calque_1"
   x="0px"
   y="0px"
   viewBox="0 0 28.6 21.700001"
   xml:space="preserve"
   sodipodi:docname="dsqq.svg"
   inkscape:version="0.92.4 (5da689c313, 2019-01-14)"
   width="28.6"
   height="21.700001"><metadata
   id="metadata10"><rdf:RDF><cc:Work
       rdf:about=""><dc:format>image/svg+xml</dc:format><dc:type
         rdf:resource="http://purl.org/dc/dcmitype/StillImage" /></cc:Work></rdf:RDF></metadata><defs
   id="defs8" /><sodipodi:namedview
   pagecolor="#ffffff"
   bordercolor="#666666"
   borderopacity="1"
   objecttolerance="10"
   gridtolerance="10"
   guidetolerance="10"
   inkscape:pageopacity="0"
   inkscape:pageshadow="2"
   inkscape:window-width="960"
   inkscape:window-height="1001"
   id="namedview6"
   showgrid="false"
   inkscape:zoom="8.9631338"
   inkscape:cx="13.71011"
   inkscape:cy="5.0668226"
   inkscape:window-x="-9"
   inkscape:window-y="-9"
   inkscape:window-maximized="0"
   inkscape:current-layer="Calque_1" />
<style
   type="text/css"
   id="style2">
	.st0{fill:#010202;}
</style>
<path
   id="Tracé_52"
   class="st0"
   d="M 26.1,0 H 2.5 C 1.1,0 0,1.1 0,2.5 v 16.7 c 0,1.4 1.1,2.5 2.5,2.5 h 23.6 c 1.4,0 2.5,-1.1 2.5,-2.5 V 2.5 C 28.6,1.1 27.5,0 26.1,0 Z M 25.7,1.6 14.3,12.9 2.8,1.6 Z M 1.6,18.8 v -16 l 8.1,8 z m 1.2,1.1 8.1,-8 2.8,2.8 c 0.3,0.3 0.9,0.3 1.2,0 l 2.8,-2.7 8,8 z m 24.1,-1.1 -8,-8 8,-8 z"
   inkscape:export-xdpi="1000"
   inkscape:export-ydpi="1000"
   inkscape:connector-curvature="0"
   style="fill:#010202" />
</svg>