<svg xmlns="http://www.w3.org/2000/svg" xmlns:xlink="http://www.w3.org/1999/xlink" width="217.081" height="247.88" viewBox="0 0 217.081 247.88">
  <defs>
    <filter id="Tracé_73" x="0" y="0" width="217.081" height="247.88" filterUnits="userSpaceOnUse">
      <feOffset dx="3" dy="7" input="SourceAlpha"/>
      <feGaussianBlur stdDeviation="3" result="blur"/>
      <feFlood flood-opacity="0.161"/>
      <feComposite operator="in" in2="blur"/>
      <feComposite in="SourceGraphic"/>
    </filter>
  </defs>
  <g id="Composant_32_4" data-name="Composant 32 – 4" transform="translate(6 2)">
    <g transform="matrix(1, 0, 0, 1, -6, -2)" filter="url(#Tracé_73)">
      <path id="Tracé_73-2" data-name="Tracé 73" d="M229.88,99.541l-57.47,99.541H57.47L0,99.541,57.47,0H172.41Z" transform="translate(205.08 2) rotate(90)" fill="#80c2ae"/>
    </g>
    <path id="Tracé_76" data-name="Tracé 76" d="M355.346,223.375a21.471,21.471,0,0,0-23.177-8.621l-15.91-15.91L312.9,202.2l10.685,10.681a3.9,3.9,0,1,1-5.515,5.515l-10.681-10.7-3.358,3.377,14.535,14.535a21.5,21.5,0,0,0,20.7,31.4l-9.731-14.174a4.272,4.272,0,0,1,1.106-5.935l10.742-7.381a4.3,4.3,0,0,1,5.95,1.087l9.71,14.174A21.454,21.454,0,0,0,355.346,223.375Zm-67.438-44.562a3.837,3.837,0,0,1,2.749,1.145l11.923,11.923,3.357-3.358-15.471-15.472a21.5,21.5,0,0,0-21.12-30.981l9.865,14.058a4.282,4.282,0,0,1-1.051,5.954l-10.662,7.5a4.263,4.263,0,0,1-5.954-1.051l-9.882-14.077a21.514,21.514,0,0,0,25.468,29.722l16.58,16.578,3.375-3.358-11.923-11.923a3.9,3.9,0,0,1,0-5.513A3.836,3.836,0,0,1,287.908,178.813Z" transform="translate(-203.958 -85.377)" fill="#fff"/>
    <path id="Rectangle_184" data-name="Rectangle 184" d="M.974,0H3.649a.972.972,0,0,1,.972.972v18.78a.972.972,0,0,1-.972.972H.972A.972.972,0,0,1,0,19.753V.974A.974.974,0,0,1,.974,0Z" transform="translate(80.347 120.441) rotate(-45)" fill="#fff"/>
    <path id="Tracé_77" data-name="Tracé 77" d="M295.868,189.542l-26.288,28.673-3.241,3.529a10,10,0,0,1-3.417,2.268,9.337,9.337,0,0,1-2.917.708,8.411,8.411,0,0,1-.992.055,10.222,10.222,0,0,1-7.328-3.014,10.349,10.349,0,0,1,0-14.668l3.512-3.224,28.671-26.309Z" transform="translate(-204.897 -53.088)" fill="#fff"/>
    <path id="Tracé_78" data-name="Tracé 78" d="M327.341,153.909l-5,7.862-4.428,1.889-39.7,39.717-4.922-4.922,39.719-39.717,1.889-4.407,7.862-5,.418.422-5.8,4.846c-1.013,1.011-.555,3.186.456,4.216,1.049,1.03,3.281,1.639,4.313.61l4.748-5.952Z" transform="translate(-182.515 -78.713)" fill="#fff"/>
  </g>
</svg>
