<svg xmlns="http://www.w3.org/2000/svg" xmlns:xlink="http://www.w3.org/1999/xlink" width="217.081" height="247.88" viewBox="0 0 217.081 247.88">
  <defs>
    <filter id="Tracé_79" x="0" y="0" width="217.081" height="247.88" filterUnits="userSpaceOnUse">
      <feOffset dx="3" dy="7" input="SourceAlpha"/>
      <feGaussianBlur stdDeviation="3" result="blur"/>
      <feFlood flood-opacity="0.161"/>
      <feComposite operator="in" in2="blur"/>
      <feComposite in="SourceGraphic"/>
    </filter>
  </defs>
  <g id="Composant_33_4" data-name="Composant 33 – 4" transform="translate(6 2)">
    <g transform="matrix(1, 0, 0, 1, -6, -2)" filter="url(#Tracé_79)">
      <path id="Tracé_79-2" data-name="Tracé 79" d="M229.88,99.541l-57.47,99.541H57.47L0,99.541,57.47,0H172.41Z" transform="translate(205.08 2) rotate(90)" fill="#8ccaab"/>
    </g>
    <path id="Tracé_75" data-name="Tracé 75" d="M556.049,360.633v.008a11.331,11.331,0,0,0,1.171-4.863v-7.011c0-11.614-18.839-21.036-42.073-21.036s-42.073,9.422-42.073,21.036a10.947,10.947,0,0,1,.172-1.7c-8.688,3.848-14.2,9.464-14.2,15.721V369.8c0,6.505,5.918,12.318,15.2,16.174a11.305,11.305,0,0,0-1.173,4.861v7.013a12.061,12.061,0,0,0,2.453,7.013,12.052,12.052,0,0,0-2.453,7.011v7.013c0,11.614,18.841,21.036,42.073,21.036s42.073-9.422,42.073-21.036v-7.013a12.175,12.175,0,0,0-2.526-7.122c-.015.013-.029.034-.042.048a12.852,12.852,0,0,0,2.4-5.252c8.69-3.856,14.2-9.462,14.2-15.722v-7.013c0-6.505-5.916-12.326-15.195-16.181Zm-40.9-29.4c22.727,0,38.566,9.237,38.566,17.53s-15.84,17.53-38.566,17.53-38.566-9.245-38.566-17.53,15.84-17.53,38.566-17.53Zm-52.59,31.554c0-4.094,3.884-8.4,10.517-11.731v4.718c0,11.614,18.841,21.036,42.073,21.036a82.274,82.274,0,0,0,10.054-.63,67.518,67.518,0,0,1-24.077,4.136c-22.727,0-38.566-9.245-38.566-17.53Zm91.156,49.084c0,8.285-15.84,17.53-38.566,17.53s-38.566-9.245-38.566-17.53A8.345,8.345,0,0,1,478,407.718a.108.108,0,0,1-.029-.034c7.06,6.664,21.057,11.2,37.176,11.2,16.141,0,30.068-4.573,37.115-11.25l-.013.011a8.319,8.319,0,0,1,1.465,4.226Zm-14.476-7.64a67.464,67.464,0,0,1-24.091,4.134c-22.727,0-38.566-9.245-38.566-17.53a7.874,7.874,0,0,1,1.034-3.587,66.5,66.5,0,0,0,11.3,2.677c5.231,8.642,21.269,14.935,40.259,14.935a81.434,81.434,0,0,0,10.094-.637c-.008,0-.015.008-.029.008Zm-10.065-9.89A68.671,68.671,0,0,1,506.04,390.6c19.77-1.166,35.382-9.1,36.985-19.1,4.773-2.116,8.594-4.752,11.053-7.751h-.008c8.489,3.451,13.669,8.381,13.669,13.064,0,8.285-15.84,17.53-38.566,17.53Zm-6.534-40.47c0-.738-.589-1.307-1.767-1.683a60.344,60.344,0,0,0-7.862-1.467q-5.474-.77-8.558-1.534a14.789,14.789,0,0,1-5.008-2.123,3.929,3.929,0,0,1-1.923-3.19c0-1.589,1.15-3.028,3.438-4.3s5.889-2.041,10.805-2.329v-2.5h6.643v2.5q11.134.555,14.415,5.164l-9.149,1.534c-1.786-2.11-4.538-3.163-8.279-3.163a11.783,11.783,0,0,0-4.512.712c-1.137.465-1.706,1.042-1.706,1.711,0,.685.548,1.206,1.644,1.576a54.541,54.541,0,0,0,7.026,1.356q5.915.881,9.279,1.669a15.794,15.794,0,0,1,5.374,2.171,3.95,3.95,0,0,1,2.007,3.239c0,1.9-1.383,3.478-4.144,4.744s-6.744,2.015-11.956,2.24v3.245h-6.643v-3.23q-13.035-.547-16.139-6.206l10.271-1.095q1.428,3.554,9.451,3.554a14.888,14.888,0,0,0,5.525-.761q1.766-.758,1.767-1.835Zm0,0" transform="translate(-415.311 -269.213)" fill="#fff"/>
  </g>
</svg>
