<svg xmlns="http://www.w3.org/2000/svg" width="143.896" height="24.397" viewBox="0 0 143.896 24.397">
  <g id="Groupe_606" data-name="Groupe 606" transform="translate(-502.245 -2002.874)">
    <g id="Groupe_596" data-name="Groupe 596" transform="translate(620.531 2002.874)">
      <path id="Tracé_67" data-name="Tracé 67" d="M244.174,246.861l3.639,7.373a.411.411,0,0,0,.309.225l8.136,1.182a.411.411,0,0,1,.228.7l-5.887,5.739a.411.411,0,0,0-.118.364l1.39,8.1a.411.411,0,0,1-.6.433L244,267.155a.411.411,0,0,0-.382,0l-7.277,3.826a.411.411,0,0,1-.6-.433l1.39-8.1a.411.411,0,0,0-.118-.364l-5.887-5.739a.411.411,0,0,1,.228-.7l8.136-1.182a.411.411,0,0,0,.309-.225l3.639-7.373A.411.411,0,0,1,244.174,246.861Z" transform="translate(-231 -246.632)" fill="#cec9c9"/>
      <g id="Groupe_40" data-name="Groupe 40" transform="translate(1.657 1.932)">
        <path id="Tracé_68" data-name="Tracé 68" d="M284.84,296.423,281.6,302.7a1.085,1.085,0,0,1-.866.583l-7.04.643,7.438.348a1.085,1.085,0,0,0,1.069-.708Z" transform="translate(-273.692 -296.423)" fill="#cec9c9"/>
      </g>
      <path id="Tracé_69" data-name="Tracé 69" d="M353.168,482.963l-.16.932a.411.411,0,0,0,.6.433l7.277-3.826a.411.411,0,0,1,.383,0l7.277,3.826a.411.411,0,0,0,.6-.433l-1.39-8.1a.411.411,0,0,1,.118-.364l5.887-5.739a.411.411,0,0,0-.228-.7l-2.725-.4C366.393,476.5,359.644,480.668,353.168,482.963Z" transform="translate(-348.268 -459.98)" fill="#cec9c9"/>
    </g>
    <g id="Groupe_597" data-name="Groupe 597" transform="translate(590.531 2002.874)">
      <path id="Tracé_67-2" data-name="Tracé 67" d="M244.174,246.861l3.639,7.373a.411.411,0,0,0,.309.225l8.136,1.182a.411.411,0,0,1,.228.7l-5.887,5.739a.411.411,0,0,0-.118.364l1.39,8.1a.411.411,0,0,1-.6.433L244,267.155a.411.411,0,0,0-.382,0l-7.277,3.826a.411.411,0,0,1-.6-.433l1.39-8.1a.411.411,0,0,0-.118-.364l-5.887-5.739a.411.411,0,0,1,.228-.7l8.136-1.182a.411.411,0,0,0,.309-.225l3.639-7.373A.411.411,0,0,1,244.174,246.861Z" transform="translate(-231 -246.632)" fill="#cec9c9"/>
      <g id="Groupe_40-2" data-name="Groupe 40" transform="translate(1.657 1.932)">
        <path id="Tracé_68-2" data-name="Tracé 68" d="M284.84,296.423,281.6,302.7a1.085,1.085,0,0,1-.866.583l-7.04.643,7.438.348a1.085,1.085,0,0,0,1.069-.708Z" transform="translate(-273.692 -296.423)" fill="#cec9c9"/>
      </g>
      <path id="Tracé_69-2" data-name="Tracé 69" d="M353.168,482.963l-.16.932a.411.411,0,0,0,.6.433l7.277-3.826a.411.411,0,0,1,.383,0l7.277,3.826a.411.411,0,0,0,.6-.433l-1.39-8.1a.411.411,0,0,1,.118-.364l5.887-5.739a.411.411,0,0,0-.228-.7l-2.725-.4C366.393,476.5,359.644,480.668,353.168,482.963Z" transform="translate(-348.268 -459.98)" fill="#cec9c9"/>
    </g>
    <g id="Groupe_598" data-name="Groupe 598" transform="translate(560.245 2002.874)">
      <path id="Tracé_67-3" data-name="Tracé 67" d="M244.174,246.861l3.639,7.373a.411.411,0,0,0,.309.225l8.136,1.182a.411.411,0,0,1,.228.7l-5.887,5.739a.411.411,0,0,0-.118.364l1.39,8.1a.411.411,0,0,1-.6.433L244,267.155a.411.411,0,0,0-.382,0l-7.277,3.826a.411.411,0,0,1-.6-.433l1.39-8.1a.411.411,0,0,0-.118-.364l-5.887-5.739a.411.411,0,0,1,.228-.7l8.136-1.182a.411.411,0,0,0,.309-.225l3.639-7.373A.411.411,0,0,1,244.174,246.861Z" transform="translate(-231 -246.632)" fill="#cec9c9"/>
      <g id="Groupe_40-3" data-name="Groupe 40" transform="translate(1.657 1.932)">
        <path id="Tracé_68-3" data-name="Tracé 68" d="M284.84,296.423,281.6,302.7a1.085,1.085,0,0,1-.866.583l-7.04.643,7.438.348a1.085,1.085,0,0,0,1.069-.708Z" transform="translate(-273.692 -296.423)" fill="#cec9c9"/>
      </g>
      <path id="Tracé_69-3" data-name="Tracé 69" d="M353.168,482.963l-.16.932a.411.411,0,0,0,.6.433l7.277-3.826a.411.411,0,0,1,.383,0l7.277,3.826a.411.411,0,0,0,.6-.433l-1.39-8.1a.411.411,0,0,1,.118-.364l5.887-5.739a.411.411,0,0,0-.228-.7l-2.725-.4C366.393,476.5,359.644,480.668,353.168,482.963Z" transform="translate(-348.268 -459.98)" fill="#cec9c9"/>
    </g>
    <g id="Groupe_599" data-name="Groupe 599" transform="translate(531.245 2002.874)">
      <path id="Tracé_67-4" data-name="Tracé 67" d="M244.174,246.861l3.639,7.373a.411.411,0,0,0,.309.225l8.136,1.182a.411.411,0,0,1,.228.7l-5.887,5.739a.411.411,0,0,0-.118.364l1.39,8.1a.411.411,0,0,1-.6.433L244,267.155a.411.411,0,0,0-.382,0l-7.277,3.826a.411.411,0,0,1-.6-.433l1.39-8.1a.411.411,0,0,0-.118-.364l-5.887-5.739a.411.411,0,0,1,.228-.7l8.136-1.182a.411.411,0,0,0,.309-.225l3.639-7.373A.411.411,0,0,1,244.174,246.861Z" transform="translate(-231 -246.632)" fill="#cec9c9"/>
      <g id="Groupe_40-4" data-name="Groupe 40" transform="translate(1.657 1.932)">
        <path id="Tracé_68-4" data-name="Tracé 68" d="M284.84,296.423,281.6,302.7a1.085,1.085,0,0,1-.866.583l-7.04.643,7.438.348a1.085,1.085,0,0,0,1.069-.708Z" transform="translate(-273.692 -296.423)" fill="#cec9c9"/>
      </g>
      <path id="Tracé_69-4" data-name="Tracé 69" d="M353.168,482.963l-.16.932a.411.411,0,0,0,.6.433l7.277-3.826a.411.411,0,0,1,.383,0l7.277,3.826a.411.411,0,0,0,.6-.433l-1.39-8.1a.411.411,0,0,1,.118-.364l5.887-5.739a.411.411,0,0,0-.228-.7l-2.725-.4C366.393,476.5,359.644,480.668,353.168,482.963Z" transform="translate(-348.268 -459.98)" fill="#cec9c9"/>
    </g>
    <g id="Groupe_600" data-name="Groupe 600" transform="translate(502.245 2002.874)">
      <path id="Tracé_67-5" data-name="Tracé 67" d="M244.174,246.861l3.639,7.373a.411.411,0,0,0,.309.225l8.136,1.182a.411.411,0,0,1,.228.7l-5.887,5.739a.411.411,0,0,0-.118.364l1.39,8.1a.411.411,0,0,1-.6.433L244,267.155a.411.411,0,0,0-.382,0l-7.277,3.826a.411.411,0,0,1-.6-.433l1.39-8.1a.411.411,0,0,0-.118-.364l-5.887-5.739a.411.411,0,0,1,.228-.7l8.136-1.182a.411.411,0,0,0,.309-.225l3.639-7.373A.411.411,0,0,1,244.174,246.861Z" transform="translate(-231 -246.632)" fill="#cec9c9"/>
      <g id="Groupe_40-5" data-name="Groupe 40" transform="translate(1.657 1.932)">
        <path id="Tracé_68-5" data-name="Tracé 68" d="M284.84,296.423,281.6,302.7a1.085,1.085,0,0,1-.866.583l-7.04.643,7.438.348a1.085,1.085,0,0,0,1.069-.708Z" transform="translate(-273.692 -296.423)" fill="#cec9c9"/>
      </g>
      <path id="Tracé_69-5" data-name="Tracé 69" d="M353.168,482.963l-.16.932a.411.411,0,0,0,.6.433l7.277-3.826a.411.411,0,0,1,.383,0l7.277,3.826a.411.411,0,0,0,.6-.433l-1.39-8.1a.411.411,0,0,1,.118-.364l5.887-5.739a.411.411,0,0,0-.228-.7l-2.725-.4C366.393,476.5,359.644,480.668,353.168,482.963Z" transform="translate(-348.268 -459.98)" fill="#cec9c9"/>
    </g>
  </g>
</svg>
