<?xml version="1.0" encoding="UTF-8" standalone="no"?>
<!-- Generator: Adobe Illustrator 22.1.0, SVG Export Plug-In . SVG Version: 6.00 Build 0)  -->

<svg
   xmlns:dc="http://purl.org/dc/elements/1.1/"
   xmlns:cc="http://creativecommons.org/ns#"
   xmlns:rdf="http://www.w3.org/1999/02/22-rdf-syntax-ns#"
   xmlns:svg="http://www.w3.org/2000/svg"
   xmlns="http://www.w3.org/2000/svg"
   xmlns:sodipodi="http://sodipodi.sourceforge.net/DTD/sodipodi-0.dtd"
   xmlns:inkscape="http://www.inkscape.org/namespaces/inkscape"
   version="1.1"
   id="Calque_1"
   x="0px"
   y="0px"
   viewBox="0 0 21.6 21.6"
   xml:space="preserve"
   sodipodi:docname="fds.svg"
   inkscape:version="0.92.4 (5da689c313, 2019-01-14)"
   width="21.6"
   height="21.6"><metadata
   id="metadata17"><rdf:RDF><cc:Work
       rdf:about=""><dc:format>image/svg+xml</dc:format><dc:type
         rdf:resource="http://purl.org/dc/dcmitype/StillImage" /></cc:Work></rdf:RDF></metadata><defs
   id="defs15" /><sodipodi:namedview
   pagecolor="#ffffff"
   bordercolor="#666666"
   borderopacity="1"
   objecttolerance="10"
   gridtolerance="10"
   guidetolerance="10"
   inkscape:pageopacity="0"
   inkscape:pageshadow="2"
   inkscape:window-width="1920"
   inkscape:window-height="1001"
   id="namedview13"
   showgrid="false"
   inkscape:zoom="18.009259"
   inkscape:cx="10.363082"
   inkscape:cy="10.358336"
   inkscape:window-x="-9"
   inkscape:window-y="-9"
   inkscape:window-maximized="1"
   inkscape:current-layer="Calque_1" />
<style
   type="text/css"
   id="style2">
	.st0{fill:#A77EB7;}
	.st1{fill:#FFFFFF;}
</style>
<g
   id="Composant_7_2"
   inkscape:export-xdpi="933.33441"
   inkscape:export-ydpi="933.33441"
   transform="translate(-385.30001,-385.99999)">
	<circle
   id="Ellipse_5"
   class="st0"
   cx="396.10001"
   cy="396.79999"
   r="10.8"
   style="fill:#a77eb7" />
	<g
   id="g6">
		<path
   id="Tracé_58-2_11_"
   class="st0"
   d="m 393.6,401.5 -1.2,-1.9 c 0.1,-0.8 0.4,-1.6 0.8,-2.3 1.3,-2 1.1,-2.3 1.7,0.2 0,0.1 1.8,-0.1 1.8,0 l 1.2,-0.2 h 0.7 c 0.1,0 1.3,0.2 1.3,0.2 1,0.4 2,2.5 1.9,3.8 0,0.9 -2.3,-1.5 -3.5,-1 -0.5,0.2 -1.9,1.3 -2.5,1.2 z"
   inkscape:connector-curvature="0"
   style="fill:#a77eb7" />
	</g>
</g>
<g
   id="Groupe_28"
   transform="translate(-615.06201,-650.24099)"
   inkscape:export-xdpi="933.33441"
   inkscape:export-ydpi="933.33441">
	<path
   id="Tracé_59"
   class="st1"
   d="m 629,658.3 c 0,1.7 -1.4,3 -3,3 -1.6,0 -3,-1.4 -3,-3 0,-1.6 1.4,-3 3,-3 1.6,0 3,1.4 3,3 z"
   inkscape:connector-curvature="0"
   style="fill:#ffffff" />
	<path
   id="Tracé_60"
   class="st1"
   d="m 620.1,665.7 h 11.7 v -1 c 0,-1.5 -1.2,-2.6 -2.6,-2.6 0,0 0,0 0,0 h -6.4 c -1.5,0 -2.6,1.2 -2.6,2.6 z"
   inkscape:connector-curvature="0"
   style="fill:#ffffff" />
</g>
</svg>