<?xml version="1.0" encoding="UTF-8" standalone="no"?>
<svg
   xmlns:dc="http://purl.org/dc/elements/1.1/"
   xmlns:cc="http://creativecommons.org/ns#"
   xmlns:rdf="http://www.w3.org/1999/02/22-rdf-syntax-ns#"
   xmlns:svg="http://www.w3.org/2000/svg"
   xmlns="http://www.w3.org/2000/svg"
   xmlns:sodipodi="http://sodipodi.sourceforge.net/DTD/sodipodi-0.dtd"
   xmlns:inkscape="http://www.inkscape.org/namespaces/inkscape"
   id="Groupe_601"
   data-name="Groupe 601"
   width="25.61"
   height="24.397"
   viewBox="0 0 25.61 24.397"
   version="1.1"
   sodipodi:docname="Groupe 601.svg"
   inkscape:version="0.92.4 (5da689c313, 2019-01-14)">
  <metadata
     id="metadata11">
    <rdf:RDF>
      <cc:Work
         rdf:about="">
        <dc:format>image/svg+xml</dc:format>
        <dc:type
           rdf:resource="http://purl.org/dc/dcmitype/StillImage" />
      </cc:Work>
    </rdf:RDF>
  </metadata>
  <defs
     id="defs9" />
  <sodipodi:namedview
     pagecolor="#ffffff"
     bordercolor="#666666"
     borderopacity="1"
     objecttolerance="10"
     gridtolerance="10"
     guidetolerance="10"
     inkscape:pageopacity="0"
     inkscape:pageshadow="2"
     inkscape:window-width="1920"
     inkscape:window-height="1001"
     id="namedview7"
     showgrid="false"
     inkscape:zoom="9.6733207"
     inkscape:cx="-1.3576646"
     inkscape:cy="12.1985"
     inkscape:window-x="-9"
     inkscape:window-y="-9"
     inkscape:window-maximized="1"
     inkscape:current-layer="Groupe_601" />
  <path
     id="Tracé_67"
     data-name="Tracé 67"
     d="M244.174,246.861l3.639,7.373a.411.411,0,0,0,.309.225l8.136,1.182a.411.411,0,0,1,.228.7l-5.887,5.739a.411.411,0,0,0-.118.364l1.39,8.1a.411.411,0,0,1-.6.433L244,267.155a.411.411,0,0,0-.382,0l-7.277,3.826a.411.411,0,0,1-.6-.433l1.39-8.1a.411.411,0,0,0-.118-.364l-5.887-5.739a.411.411,0,0,1,.228-.7l8.136-1.182a.411.411,0,0,0,.309-.225l3.639-7.373A.411.411,0,0,1,244.174,246.861Z"
     transform="translate(-231 -246.632)"
     fill="#a77fb7"
     inkscape:export-xdpi="1000"
     inkscape:export-ydpi="1000" />
  <g
     id="Groupe_40"
     data-name="Groupe 40"
     transform="translate(1.657 1.932)"
     inkscape:export-xdpi="1000"
     inkscape:export-ydpi="1000">
    <path
       id="Tracé_68"
       data-name="Tracé 68"
       d="M284.84,296.423,281.6,302.7a1.085,1.085,0,0,1-.866.583l-7.04.643,7.438.348a1.085,1.085,0,0,0,1.069-.708Z"
       transform="translate(-273.692 -296.423)"
       fill="#b999c5" />
  </g>
  <path
     id="Tracé_69"
     data-name="Tracé 69"
     d="M353.168,482.963l-.16.932a.411.411,0,0,0,.6.433l7.277-3.826a.411.411,0,0,1,.383,0l7.277,3.826a.411.411,0,0,0,.6-.433l-1.39-8.1a.411.411,0,0,1,.118-.364l5.887-5.739a.411.411,0,0,0-.228-.7l-2.725-.4C366.393,476.5,359.644,480.668,353.168,482.963Z"
     transform="translate(-348.268 -459.98)"
     fill="#9876a8"
     inkscape:export-xdpi="1000"
     inkscape:export-ydpi="1000" />
</svg>
