<?xml version="1.0" encoding="UTF-8" standalone="no"?>
<!-- Generator: Adobe Illustrator 22.1.0, SVG Export Plug-In . SVG Version: 6.00 Build 0)  -->

<svg
   xmlns:dc="http://purl.org/dc/elements/1.1/"
   xmlns:cc="http://creativecommons.org/ns#"
   xmlns:rdf="http://www.w3.org/1999/02/22-rdf-syntax-ns#"
   xmlns:svg="http://www.w3.org/2000/svg"
   xmlns="http://www.w3.org/2000/svg"
   xmlns:sodipodi="http://sodipodi.sourceforge.net/DTD/sodipodi-0.dtd"
   xmlns:inkscape="http://www.inkscape.org/namespaces/inkscape"
   version="1.1"
   id="Calque_1"
   x="0px"
   y="0px"
   viewBox="0 0 16.487644 19.576965"
   xml:space="preserve"
   sodipodi:docname="zzz.svg"
   width="16.487644"
   height="19.576965"
   inkscape:version="0.92.4 (5da689c313, 2019-01-14)"><metadata
   id="metadata11"><rdf:RDF><cc:Work
       rdf:about=""><dc:format>image/svg+xml</dc:format><dc:type
         rdf:resource="http://purl.org/dc/dcmitype/StillImage" /></cc:Work></rdf:RDF></metadata><defs
   id="defs9" /><sodipodi:namedview
   pagecolor="#ffffff"
   bordercolor="#666666"
   borderopacity="1"
   objecttolerance="10"
   gridtolerance="10"
   guidetolerance="10"
   inkscape:pageopacity="0"
   inkscape:pageshadow="2"
   inkscape:window-width="1920"
   inkscape:window-height="1001"
   id="namedview7"
   showgrid="false"
   inkscape:zoom="2.3838384"
   inkscape:cx="-73.945006"
   inkscape:cy="16.869679"
   inkscape:window-x="-9"
   inkscape:window-y="-9"
   inkscape:window-maximized="1"
   inkscape:current-layer="Calque_1" />
<style
   type="text/css"
   id="style2">
	.st0{fill:#A77EB7;}
</style>
<path
   id="Tracé_65"
   class="st0"
   d="m 14,2.4638391 c -3.1,-3.19999998 -8.2,-3.29999998 -11.4,-0.2 -0.1,0.1 -0.2,0.1 -0.2,0.2 -3.2,3.3 -3.2,8.5999999 0,11.9999999 l 4.4,4.5 c 0.8,0.8 2,0.8 2.8,0.1 0,0 0,0 0.1,-0.1 l 4.4,-4.5 c 3.2,-3.3 3.2,-8.5999999 -0.1,-11.9999999 z m -0.8,11.1999999 -4.4,4.5 c -0.4,0.4 -0.9,0.4 -1.3,0 0,0 0,0 0,0 l -4.4,-4.5 c -2.8,-2.9 -2.8,-7.4999999 0,-10.3999999 2.7,-2.79999998 7.1,-2.89999998 9.9,-0.2 0.1,0.1 0.1,0.1 0.2,0.2 2.8,2.9 2.8,7.4999999 0,10.3999999 z"
   inkscape:connector-curvature="0"
   style="fill:#a77eb7" />
<path
   id="Tracé_66"
   class="st0"
   d="m 8.2,5.9638391 c -1.3,0 -2.4,1.1 -2.4,2.4 0,1.3 1.1,2.3999999 2.4,2.3999999 1.3,0 2.4,-1.0999999 2.4,-2.3999999 v 0 c 0,-1.3 -1.1,-2.4 -2.4,-2.4 z m 0,3.9 c -0.8,0 -1.5,-0.7 -1.5,-1.5 0,-0.8 0.7,-1.5 1.5,-1.5 0.8,0 1.5,0.7 1.5,1.5 0,0.8 -0.7,1.5 -1.5,1.5 z"
   inkscape:connector-curvature="0"
   style="fill:#a77eb7" />
</svg>