<?xml version="1.0" encoding="UTF-8" standalone="no"?>
<!-- Generator: Adobe Illustrator 22.1.0, SVG Export Plug-In . SVG Version: 6.00 Build 0)  -->

<svg
   xmlns:dc="http://purl.org/dc/elements/1.1/"
   xmlns:cc="http://creativecommons.org/ns#"
   xmlns:rdf="http://www.w3.org/1999/02/22-rdf-syntax-ns#"
   xmlns:svg="http://www.w3.org/2000/svg"
   xmlns="http://www.w3.org/2000/svg"
   xmlns:sodipodi="http://sodipodi.sourceforge.net/DTD/sodipodi-0.dtd"
   xmlns:inkscape="http://www.inkscape.org/namespaces/inkscape"
   version="1.1"
   id="Calque_1"
   x="0px"
   y="0px"
   viewBox="0 0 30.026684 34.955128"
   xml:space="preserve"
   sodipodi:docname="sefs.svg"
   inkscape:version="0.92.4 (5da689c313, 2019-01-14)"
   width="30.026684"
   height="34.955128"><metadata
   id="metadata17"><rdf:RDF><cc:Work
       rdf:about=""><dc:format>image/svg+xml</dc:format><dc:type
         rdf:resource="http://purl.org/dc/dcmitype/StillImage" /></cc:Work></rdf:RDF></metadata><defs
   id="defs15" /><sodipodi:namedview
   pagecolor="#ffffff"
   bordercolor="#666666"
   borderopacity="1"
   objecttolerance="10"
   gridtolerance="10"
   guidetolerance="10"
   inkscape:pageopacity="0"
   inkscape:pageshadow="2"
   inkscape:window-width="1920"
   inkscape:window-height="1001"
   id="namedview13"
   showgrid="false"
   inkscape:zoom="7.869076"
   inkscape:cx="7.5194874"
   inkscape:cy="7.9319194"
   inkscape:window-x="-9"
   inkscape:window-y="-9"
   inkscape:window-maximized="1"
   inkscape:current-layer="Calque_1" />
<style
   type="text/css"
   id="style2">
	.st0{fill:#717070;}
	.st1{font-family:'SegoeUI';}
	.st2{font-size:8px;}
	.st3{fill:#A77EB7;}
</style>
<g
   id="Composant_9_8"
   inkscape:export-xdpi="639.90588"
   inkscape:export-ydpi="639.90588"
   transform="translate(-378.37452,-377.98279)">
	<text
   transform="translate(380.0262,411.0551)"
   class="st0 st1 st2"
   id="text4"
   style="font-size:8px;font-family:SegoeUI;fill:#717070">Signaler</text>


	<g
   id="Groupe_31"
   transform="translate(-1029.907,-901.238)">
		<g
   id="Groupe_29"
   transform="translate(1029.907,901.238)">
			<path
   id="Tracé_61"
   class="st3"
   d="m 404.4,403.8 h -23.1 c -1.4,0.2 -2.7,-0.8 -2.9,-2.2 -0.1,-0.7 0.1,-1.4 0.5,-2 l 11.6,-20 c 0.5,-1.3 2,-2 3.3,-1.4 0.7,0.3 1.2,0.8 1.4,1.4 l 11.6,20 c 0.9,1.1 0.7,2.7 -0.4,3.6 -0.6,0.6 -1.3,0.8 -2,0.6 z m -11.6,-24.3 c -0.4,0 -0.8,0.3 -1.2,0.9 l -11.6,20 c -0.5,0.5 -0.5,1.2 0,1.7 0.3,0.3 0.8,0.5 1.2,0.3 h 23.1 c 0.6,0.2 1.3,-0.2 1.5,-0.8 0.1,-0.4 0,-0.9 -0.3,-1.2 l -11.6,-20 c -0.2,-0.6 -0.7,-0.9 -1.1,-0.9 z"
   inkscape:connector-curvature="0"
   style="fill:#a77eb7" />
		</g>
		<g
   id="Groupe_30"
   transform="translate(1042.753,906.877)">
			<path
   id="Tracé_62"
   class="st3"
   d="m 381.1,395.1 c -0.3,0.3 -0.7,0.5 -1.1,0.5 -0.9,0 -1.6,-0.7 -1.6,-1.6 0,0 0,0 0,0 0,-0.4 0.2,-0.8 0.5,-1.1 0.3,-0.3 0.7,-0.5 1.1,-0.5 0.9,0 1.6,0.7 1.6,1.6 0,0 0,0 0,0 0,0.4 -0.2,0.8 -0.5,1.1 z m -2.7,-17 0.3,13.1 h 2.3 l 0.6,-13.1 z"
   inkscape:connector-curvature="0"
   style="fill:#a77eb7" />
		</g>
	</g>
</g>
</svg>