<svg xmlns="http://www.w3.org/2000/svg" width="53.998" height="53.98" viewBox="0 0 53.998 53.98">
  <path id="Tracé_131" data-name="Tracé 131" d="M95.73,158.426l-4.1,3.967a40.99,40.99,0,0,1-8.643-6.69,41.616,41.616,0,0,1-6.73-8.684l3.935-3.987a2.693,2.693,0,0,0-.006-3.79L69.3,128.284a2.693,2.693,0,0,0-3.808-.011l-5.319,5.283a9.093,9.093,0,0,0-1.77,10.391,81.5,81.5,0,0,0,36.618,36.618,9,9,0,0,0,3.94.905,9.123,9.123,0,0,0,6.451-2.676l5.3-5.317a2.693,2.693,0,0,0,0-3.8l-11.2-11.216A2.693,2.693,0,0,0,95.73,158.426Zm6.635,17.327a4.789,4.789,0,0,1-5.469.941,77.2,77.2,0,0,1-34.626-34.627,4.786,4.786,0,0,1,.936-5.465l3.663-3.638a.718.718,0,0,1,1.016,0l7.626,7.673a.718.718,0,0,1,0,1.011l-4.45,4.507.6,1.341a41.623,41.623,0,0,0,8.285,11.247,40.912,40.912,0,0,0,11.2,8.238l1.323.581,4.6-4.455a.719.719,0,0,1,1.008.009l7.937,7.951a.718.718,0,0,1,0,1.015ZM91.587,140.836" transform="translate(-57.495 -127.49)"/>
</svg>
