<?xml version="1.0" encoding="UTF-8" standalone="no"?>
<!-- Generator: Adobe Illustrator 22.1.0, SVG Export Plug-In . SVG Version: 6.00 Build 0)  -->

<svg
   xmlns:dc="http://purl.org/dc/elements/1.1/"
   xmlns:cc="http://creativecommons.org/ns#"
   xmlns:rdf="http://www.w3.org/1999/02/22-rdf-syntax-ns#"
   xmlns:svg="http://www.w3.org/2000/svg"
   xmlns="http://www.w3.org/2000/svg"
   xmlns:sodipodi="http://sodipodi.sourceforge.net/DTD/sodipodi-0.dtd"
   xmlns:inkscape="http://www.inkscape.org/namespaces/inkscape"
   version="1.1"
   id="Calque_1"
   x="0px"
   y="0px"
   viewBox="0 0 536 196"
   xml:space="preserve"
   sodipodi:docname="logo_nav.svg"
   width="536"
   height="196"
   inkscape:version="0.92.4 (5da689c313, 2019-01-14)"><metadata
   id="metadata157"><rdf:RDF><cc:Work
       rdf:about=""><dc:format>image/svg+xml</dc:format><dc:type
         rdf:resource="http://purl.org/dc/dcmitype/StillImage" /></cc:Work></rdf:RDF></metadata><defs
   id="defs155" /><sodipodi:namedview
   pagecolor="#ffffff"
   bordercolor="#666666"
   borderopacity="1"
   objecttolerance="10"
   gridtolerance="10"
   guidetolerance="10"
   inkscape:pageopacity="0"
   inkscape:pageshadow="2"
   inkscape:window-width="1920"
   inkscape:window-height="1001"
   id="namedview153"
   showgrid="false"
   inkscape:zoom="0.2979798"
   inkscape:cx="-191.56271"
   inkscape:cy="98.5"
   inkscape:window-x="-9"
   inkscape:window-y="-9"
   inkscape:window-maximized="1"
   inkscape:current-layer="Calque_1" />
<style
   type="text/css"
   id="style2">
	.st0{fill:#A77FB7;}
	.st1{fill:#FFFFFF;}
	.st2{fill:none;}
	.st3{fill:#DFC5E1;}
</style>
<g
   id="g150"
   transform="translate(-127.8,-298.5)">
	<g
   id="g108">
		<g
   id="g6">
			<path
   class="st0"
   d="m 596.9,364 c 5.6,0.3 10.2,4.6 10.8,10.2 1.6,10 -10.1,10 -15.3,8.8 -5.2,-1.2 -9.5,-6.7 -5.7,-13.5 3.2,-5.7 10.2,-5.5 10.2,-5.5 z"
   id="path4"
   inkscape:connector-curvature="0"
   style="fill:#a77fb7" />
		</g>
		<g
   id="g10">
			<rect
   x="314.10001"
   y="449.70001"
   class="st1"
   width="347.20001"
   height="6.9000001"
   id="rect8"
   style="fill:#ffffff" />
		</g>
		<g
   id="g48">
			<g
   id="g16">
				<path
   class="st1"
   d="m 386.6,428.9 c -0.3,0.4 -0.4,0.8 -0.4,1.1 0,0.8 0.8,1.5 2.3,2.1 1.6,0.6 3.4,0.9 5.7,1 0.4,4.1 0.8,6.4 1.2,7 -0.5,1.1 -2,2.1 -4.5,3.2 -2.4,1.1 -5.2,1.6 -8.3,1.6 -4.1,0 -7.6,-0.9 -10.5,-2.6 -2.9,-1.7 -4.4,-4 -4.4,-6.8 0,-0.7 0.1,-1.4 0.2,-2 l 9.1,-40.6 c 2.3,-1.5 5,-2.6 8.1,-3.4 3.2,-0.8 6.4,-1.2 9.9,-1.2 4.9,0 9.1,0.8 12.5,2.5 4,1.9 6.4,4.6 7.2,8.1 l 9.7,40.2 c -3,3.8 -7.8,5.8 -14.5,5.8 -3.2,0 -6,-0.6 -8.2,-1.7 -2.2,-1.2 -3.6,-2.8 -3.9,-5 l -0.9,-5.2 c 1.7,0 3.4,-0.4 4.9,-1 1.6,-0.6 2.4,-1.3 2.4,-2 0,-0.5 -0.2,-0.8 -0.6,-1.1 -1.1,0.8 -2.4,1.4 -4,1.7 -1.6,0.4 -3,0.6 -4.4,0.6 -3.5,0 -6.5,-0.7 -8.6,-2.3 z m 9.6,-12.5 c 0.5,0 0.9,-0.1 1.2,-0.3 -0.7,-4.3 -1.2,-6.9 -1.5,-7.7 -0.3,-0.8 -0.8,-1.2 -1.4,-1.2 -0.3,0 -0.6,0.1 -1,0.3 l 1.6,8.6 c 0.2,0.2 0.6,0.3 1.1,0.3 z"
   id="path12"
   inkscape:connector-curvature="0"
   style="fill:#ffffff" />
				<path
   class="st2"
   d="m 410.2,445.5 c -3.3,0 -6.2,-0.6 -8.5,-1.8 -2.4,-1.2 -3.8,-3.1 -4.2,-5.4 l -1.1,-5.9 h 0.7 c 1.6,0 3.2,-0.3 4.7,-0.9 1.5,-0.6 2,-1.1 2,-1.4 0,-0.1 0,-0.3 -0.1,-0.4 -1.1,0.7 -2.3,1.2 -3.7,1.6 -1.6,0.4 -3.1,0.6 -4.5,0.6 -3.6,0 -6.5,-0.7 -8.7,-2.1 0,0.1 0,0.2 0,0.3 0,0.7 1.1,1.2 1.9,1.5 1.5,0.5 3.3,0.9 5.5,1 h 0.5 v 0.5 c 0.5,5.4 0.9,6.5 1.1,6.7 l 0.2,0.3 -0.2,0.3 c -0.6,1.2 -2.2,2.3 -4.8,3.4 -2.5,1.1 -5.4,1.6 -8.5,1.6 -4.2,0 -7.8,-0.9 -10.7,-2.7 -3.1,-1.9 -4.6,-4.3 -4.6,-7.3 0,-0.8 0.1,-1.5 0.2,-2.1 l 9.1,-40.8 0.2,-0.1 c 2.3,-1.5 5.1,-2.6 8.3,-3.5 3.2,-0.8 6.6,-1.3 10,-1.3 5,0 9.3,0.9 12.8,2.5 4.1,1.9 6.6,4.8 7.5,8.5 l 9.8,40.5 -0.2,0.2 c -2.9,4.2 -7.9,6.2 -14.7,6.2 z m -12.5,-12 0.8,4.6 c 0.3,2 1.5,3.5 3.6,4.6 2.2,1.1 4.8,1.7 8,1.7 6.3,0 11,-1.8 13.8,-5.3 l -9.7,-40 c -0.8,-3.4 -3.1,-6 -6.9,-7.8 -3.4,-1.6 -7.5,-2.4 -12.3,-2.4 -3.3,0 -6.6,0.4 -9.7,1.2 -3,0.8 -5.6,1.9 -7.8,3.2 l -9,40.4 c -0.1,0.5 -0.2,1.1 -0.2,1.8 0,2.6 1.3,4.6 4.1,6.3 2.8,1.7 6.2,2.5 10.2,2.5 3,0 5.7,-0.5 8,-1.6 2.5,-1.1 3.6,-2 4,-2.7 -0.3,-0.7 -0.7,-2.3 -1.1,-6.4 -2.1,-0.2 -3.8,-0.5 -5.3,-1 -1.8,-0.6 -2.7,-1.5 -2.7,-2.6 0,-0.5 0.2,-0.9 0.5,-1.4 l 0.3,-0.5 0.5,0.4 c 2,1.5 4.8,2.2 8.5,2.2 1.3,0 2.7,-0.2 4.2,-0.6 1.5,-0.4 2.8,-0.9 3.8,-1.7 l 0.3,-0.2 0.3,0.3 c 0.5,0.4 0.8,0.9 0.8,1.6 0,1.3 -1.6,2 -2.8,2.5 -1.1,0.5 -2.6,0.8 -4.2,0.9 z M 396.2,417 c -0.6,0 -1.1,-0.2 -1.5,-0.5 l -0.1,-0.1 -1.7,-9.2 0.4,-0.2 c 0.5,-0.2 0.9,-0.3 1.3,-0.3 0.6,0 1.4,0.3 1.9,1.6 0.3,0.9 0.8,3.4 1.5,7.8 l 0.1,0.4 -0.3,0.2 c -0.5,0.2 -1.1,0.3 -1.6,0.3 z m -0.6,-1.2 c 0.4,0.2 0.8,0.1 1.1,0 -0.7,-4 -1.2,-6.4 -1.4,-7.2 -0.3,-0.8 -0.7,-0.8 -0.9,-0.8 -0.1,0 -0.2,0 -0.4,0.1 z"
   id="path14"
   inkscape:connector-curvature="0"
   style="fill:none" />
			</g>
			<g
   id="g22">
				<path
   class="st1"
   d="m 452.2,434.1 -4.9,9.6 c -2.1,0.8 -4.5,1.2 -7,1.2 -4.4,0 -8,-1.3 -10.8,-3.8 -2.8,-2.5 -4.2,-5.9 -4.2,-10.1 0,-3.8 1.3,-7.1 3.8,-10 2.5,-2.9 6.1,-5.4 10.8,-7.4 -0.3,-0.9 -0.9,-1.4 -1.7,-1.4 -0.8,0 -2.3,0.8 -4.5,2.3 -2.1,-1.1 -4,-2.9 -5.6,-5.5 -1.6,-2.6 -2.4,-5.5 -2.4,-8.9 0,-3.4 1.2,-6.2 3.7,-8.6 2.5,-2.4 5.9,-3.6 10.2,-3.6 3.8,0 6.8,0.7 9.3,2.1 l 4.5,9 3.7,-9.2 c 2.4,-1.1 5.1,-1.6 8.1,-1.6 4.2,0 7.7,1.2 10.3,3.5 2.6,2.4 4,5.7 4,10 0,3.6 -1.3,6.9 -3.8,10 -2.5,3.1 -5.8,5.6 -9.8,7.4 0.3,0.8 0.9,1.2 1.7,1.2 0.8,0 2.1,-0.6 3.9,-1.9 l 8.8,11 c 0,4.6 -1.1,8.2 -3.4,11 -2.5,3 -6,4.5 -10.4,4.5 -6.9,0.1 -11.6,-3.5 -14.3,-10.8 z"
   id="path18"
   inkscape:connector-curvature="0"
   style="fill:#ffffff" />
				<path
   class="st2"
   d="m 466.3,445.6 c -6.6,0 -11.3,-3.4 -14.2,-10.1 l -4.5,8.7 -0.2,0.1 c -2.2,0.8 -4.6,1.2 -7.2,1.2 -4.5,0 -8.3,-1.3 -11.2,-3.9 -2.9,-2.6 -4.4,-6.2 -4.4,-10.5 0,-3.9 1.3,-7.4 3.9,-10.4 2.5,-2.9 6,-5.3 10.4,-7.3 -0.3,-0.5 -0.7,-0.5 -1,-0.5 -0.4,0 -1.5,0.3 -4.2,2.2 l -0.3,0.2 -0.3,-0.2 c -2.2,-1.2 -4.2,-3.1 -5.8,-5.7 -1.7,-2.6 -2.5,-5.7 -2.5,-9.2 0,-3.5 1.3,-6.5 3.9,-9 2.6,-2.5 6.2,-3.7 10.6,-3.7 3.8,0 7,0.7 9.5,2.2 l 0.1,0.1 4,8 3.3,-8.2 0.2,-0.1 c 2.5,-1.1 5.3,-1.7 8.3,-1.7 4.4,0 8,1.2 10.7,3.6 2.8,2.5 4.2,6 4.2,10.5 0,3.7 -1.3,7.2 -3.9,10.4 -2.5,3 -5.6,5.5 -9.4,7.3 0.2,0.3 0.5,0.4 0.9,0.4 0.5,0 1.5,-0.3 3.6,-1.8 l 0.4,-0.3 9.2,11.6 v 0.2 c 0,4.7 -1.2,8.5 -3.5,11.3 -2.4,3 -6,4.6 -10.6,4.6 z m -14,-12.9 0.5,1.2 c 2.6,7.1 7.1,10.5 13.6,10.5 4.2,0 7.6,-1.5 9.9,-4.3 2.1,-2.6 3.2,-6.1 3.3,-10.4 l -8.3,-10.4 c -1.7,1.1 -3,1.7 -3.8,1.7 -1.1,0 -1.8,-0.6 -2.2,-1.6 l -0.2,-0.5 0.5,-0.2 c 3.9,-1.8 7.1,-4.2 9.6,-7.2 2.4,-3 3.7,-6.2 3.7,-9.6 0,-4.1 -1.3,-7.3 -3.8,-9.6 -2.5,-2.2 -5.9,-3.4 -9.9,-3.4 -2.8,0 -5.4,0.5 -7.7,1.5 l -4.1,10.2 -5,-10 c -2.3,-1.3 -5.3,-1.9 -8.8,-1.9 -4.2,0 -7.5,1.2 -9.8,3.4 -2.3,2.3 -3.5,5 -3.5,8.2 0,3.2 0.8,6.1 2.3,8.6 1.5,2.3 3.2,4.1 5.1,5.1 2.9,-1.9 4,-2.2 4.6,-2.2 0.7,0 1.8,0.3 2.3,1.8 l 0.2,0.5 -0.5,0.2 c -4.5,1.9 -8.1,4.4 -10.5,7.2 -2.4,2.8 -3.7,6.1 -3.7,9.7 0,4 1.4,7.3 4,9.7 2.7,2.4 6.2,3.6 10.5,3.6 2.3,0 4.5,-0.4 6.5,-1.1 z"
   id="path20"
   inkscape:connector-curvature="0"
   style="fill:none" />
			</g>
			<g
   id="g28">
				<path
   class="st1"
   d="m 508.2,445.5 c -5.1,0 -9.7,-1 -13.9,-3.1 -4.2,-2.1 -7.6,-5.3 -10.2,-9.6 -2.6,-4.3 -3.9,-9.7 -3.9,-16.1 0,-9.4 2.8,-16.7 8.4,-21.9 5,-4.6 11.4,-7 19.3,-7 8.6,0 15.3,2.7 20.3,8 5,5.3 7.5,12.3 7.5,20.9 0,9.6 -2.7,17 -8,22 -4.8,4.5 -11.3,6.8 -19.5,6.8 z m 1.7,-30.8 c 0,-2.8 -0.1,-4.8 -0.4,-5.9 -0.3,-1.1 -0.7,-1.6 -1.4,-1.6 -0.4,0 -0.8,0.1 -1.2,0.4 0.1,0.5 0.1,1.2 0.3,2 0.1,0.9 0.2,2.7 0.2,5.5 v 2.8 c 0,1.9 0,3.3 -0.1,4.2 -0.1,0.9 -0.2,1.6 -0.2,2.3 0,0.3 -0.1,0.7 -0.1,1 0.3,0.3 0.7,0.4 1.2,0.4 0.7,0 1.2,-0.5 1.4,-1.6 0.3,-1.1 0.4,-3 0.4,-5.9 v -3.6 z"
   id="path24"
   inkscape:connector-curvature="0"
   style="fill:#ffffff" />
				<path
   class="st2"
   d="m 508.2,446.1 c -5.1,0 -9.9,-1.1 -14.2,-3.2 -4.3,-2.1 -7.8,-5.4 -10.5,-9.8 -2.6,-4.4 -4,-9.9 -4,-16.4 0,-9.5 2.9,-17 8.6,-22.3 5.1,-4.7 11.7,-7.1 19.7,-7.1 8.7,0 15.7,2.7 20.7,8.1 5.1,5.4 7.6,12.6 7.6,21.3 0,9.7 -2.8,17.3 -8.2,22.4 -4.7,4.6 -11.4,7 -19.7,7 z m -0.3,-57.8 c -7.7,0 -14.1,2.3 -18.9,6.8 -5.5,5.1 -8.3,12.4 -8.3,21.5 0,6.3 1.3,11.7 3.8,15.9 2.5,4.2 5.9,7.3 10,9.4 4.1,2 8.7,3.1 13.7,3.1 8,0 14.4,-2.3 19.1,-6.7 5.2,-4.9 7.8,-12.2 7.8,-21.6 0,-8.5 -2.5,-15.4 -7.3,-20.5 -4.8,-5.3 -11.5,-7.9 -19.9,-7.9 z m 0.2,38.1 c -0.6,0 -1.1,-0.2 -1.5,-0.6 l -0.2,-0.2 0.3,-3.6 c 0.1,-0.9 0.1,-2.3 0.1,-4.2 V 415 c 0,-2.7 -0.1,-4.6 -0.2,-5.4 -0.1,-0.9 -0.2,-1.5 -0.3,-2.1 v -0.3 l 0.2,-0.2 c 0.4,-0.4 1,-0.6 1.5,-0.6 0.7,0 1.6,0.4 2,2 0.3,1.1 0.4,3.1 0.4,6 v 3.7 c 0,2.9 -0.1,4.9 -0.4,6 -0.3,2 -1.2,2.3 -1.9,2.3 z m -0.5,-1.2 c 0.2,0.1 0.4,0.1 0.6,0.1 0.1,0 0.6,0 0.9,-1.2 0.2,-1 0.4,-2.9 0.4,-5.7 v -3.7 c 0,-2.8 -0.1,-4.7 -0.4,-5.7 -0.3,-1.2 -0.7,-1.2 -0.9,-1.2 -0.2,0 -0.4,0 -0.5,0.1 0.1,0.5 0.1,1 0.2,1.7 0.1,0.9 0.2,2.7 0.2,5.5 v 2.8 c 0,1.9 0,3.4 -0.1,4.3 z"
   id="path26"
   inkscape:connector-curvature="0"
   style="fill:none" />
			</g>
			<g
   id="g34">
				<path
   class="st1"
   d="m 548,444.2 c -3.2,0 -5.6,-0.8 -7.3,-2.5 -1.7,-1.7 -2.6,-4.2 -2.6,-7.6 v -41.7 c 1.5,-1.3 3.3,-2.3 5.5,-3 2.2,-0.7 4.4,-1 6.8,-1 3.4,0 6.4,0.9 8.7,2.6 2.6,1.9 3.9,4.6 3.9,8 v 23.3 c -1.6,0.1 -3.2,0.6 -4.7,1.3 -1.5,0.8 -2.3,1.5 -2.3,2.3 0,0.5 0.3,0.9 0.8,1.2 2.8,-2.4 7,-3.5 12.5,-3.5 h 10.1 c 1.9,3.3 2.8,6.7 2.8,10.1 0,1.7 -0.3,3.6 -0.9,5.7 -0.6,2.1 -1.4,3.7 -2.4,4.8 z"
   id="path30"
   inkscape:connector-curvature="0"
   style="fill:#ffffff" />
				<path
   class="st2"
   d="M 579.2,444.7 H 548 c -3.3,0 -5.9,-0.9 -7.7,-2.7 -1.8,-1.8 -2.8,-4.5 -2.8,-8 v -42 l 0.2,-0.2 c 1.6,-1.3 3.5,-2.4 5.7,-3.1 2.2,-0.7 4.6,-1.1 6.9,-1.1 3.5,0 6.6,0.9 9.1,2.7 2.7,2 4.1,4.9 4.1,8.5 v 23.9 H 563 c -1.5,0.1 -3,0.6 -4.5,1.3 -1.3,0.6 -2,1.3 -2,1.8 0,0.1 0,0.3 0.2,0.5 2.9,-2.2 7.1,-3.4 12.6,-3.4 h 10.4 l 0.2,0.3 c 1.9,3.4 2.9,6.9 2.9,10.4 0,1.8 -0.3,3.7 -0.9,5.8 -0.6,2.2 -1.5,3.8 -2.5,5 z m -40.6,-52.1 v 41.5 c 0,3.2 0.8,5.6 2.4,7.2 1.6,1.6 3.9,2.4 6.9,2.4 h 30.8 c 0.9,-1 1.6,-2.5 2.1,-4.4 0.6,-2 0.9,-3.9 0.9,-5.5 0,-3.2 -0.9,-6.4 -2.6,-9.5 h -9.8 c -5.4,0 -9.5,1.1 -12.2,3.4 l -0.3,0.3 -0.4,-0.2 c -0.9,-0.6 -1.1,-1.2 -1.1,-1.7 0,-1 0.9,-2 2.6,-2.8 1.4,-0.7 2.9,-1.1 4.4,-1.3 v -22.8 c 0,-3.3 -1.2,-5.7 -3.7,-7.6 -2.3,-1.6 -5.1,-2.4 -8.4,-2.4 -2.3,0 -4.5,0.3 -6.6,1 -1.8,0.4 -3.6,1.3 -5,2.4 z"
   id="path32"
   inkscape:connector-curvature="0"
   style="fill:none" />
			</g>
			<g
   id="g40">
				<path
   class="st1"
   d="m 609,396.8 v 44.1 c -1.3,1.1 -3.1,2.1 -5.2,2.9 -2.2,0.8 -4.8,1.2 -8,1.2 -3.2,0 -5.8,-0.7 -8,-2.1 -2.5,-1.5 -3.7,-3.6 -3.7,-6.4 v -44.1 c 1.3,-1.1 3.1,-2.1 5.2,-2.9 2.2,-0.8 4.8,-1.2 7.9,-1.2 3.1,0 5.8,0.7 8.1,2 2.4,1.6 3.7,3.8 3.7,6.5 z"
   id="path36"
   inkscape:connector-curvature="0"
   style="fill:#ffffff" />
				<path
   class="st2"
   d="m 595.7,447.2 c -3.6,0 -6.7,-0.8 -9.2,-2.4 -3.1,-1.9 -4.8,-4.8 -4.8,-8.3 v -45.1 l 0.8,-0.7 c 1.5,-1.3 3.5,-2.4 6,-3.3 2.4,-0.9 5.4,-1.3 8.7,-1.3 3.5,0 6.6,0.8 9.2,2.4 3.1,2 4.8,4.9 4.8,8.4 V 442 l -0.8,0.7 c -1.5,1.3 -3.5,2.4 -6,3.3 -2.3,0.8 -5.3,1.2 -8.7,1.2 z m -9.4,-53.7 v 43 c 0,1.9 0.8,3.4 2.6,4.4 1.8,1.2 4.1,1.8 6.8,1.8 2.9,0 5.3,-0.3 7.2,-1 1.5,-0.5 2.7,-1.1 3.7,-1.8 v -43 c 0,-1.9 -0.8,-3.4 -2.6,-4.5 -1.8,-1.1 -4.2,-1.7 -6.8,-1.7 -2.8,0 -5.2,0.3 -7.2,1 -1.4,0.5 -2.7,1.1 -3.7,1.8 z"
   id="path38"
   inkscape:connector-curvature="0"
   style="fill:none" />
			</g>
			<g
   id="g46">
				<path
   class="st1"
   d="m 648.6,410.9 v 30 c -1.3,1.1 -3.1,2.1 -5.2,2.9 -2.2,0.8 -4.8,1.2 -8,1.2 -3.1,0 -5.8,-0.7 -8,-2.1 -2.5,-1.5 -3.7,-3.6 -3.7,-6.4 V 409 h -9.9 c -2,-2.9 -3.1,-6.1 -3.1,-9.6 0,-2.4 0.4,-4.4 1.1,-6.2 0.8,-1.7 1.7,-3.1 2.8,-4.1 h 44.1 c 0.8,1.3 1.5,2.8 2,4.7 0.5,1.8 0.8,3.6 0.8,5.4 0,3.4 -0.7,5.8 -2.2,7.4 -1.5,1.6 -3.5,2.4 -6,2.4 h -12.5 c -0.1,0.2 -0.1,0.4 -0.1,0.6 0,0.5 0.3,0.9 0.9,1 0.6,0.2 2,0.3 4,0.3 z"
   id="path42"
   inkscape:connector-curvature="0"
   style="fill:#ffffff" />
				<path
   class="st2"
   d="m 650.9,441.9 -0.8,0.7 c -1.5,1.3 -3.5,2.4 -6,3.3 -2.4,0.8 -5.4,1.3 -8.7,1.3 -3.6,0 -6.7,-0.8 -9.2,-2.4 -3.1,-1.9 -4.8,-4.8 -4.8,-8.3 v -25.2 h -8.8 l -0.7,-1 c -2.3,-3.3 -3.5,-7 -3.5,-10.9 0,-2.7 0.4,-5 1.3,-7.1 0.9,-2.1 2,-3.7 3.4,-4.9 l 0.6,-0.6 h 46.2 l 0.7,1.1 c 0.9,1.5 1.7,3.2 2.3,5.2 0.6,2 0.9,4.1 0.9,6.1 0,3.9 -1,7 -2.8,9 -1.9,2.1 -4.5,3.1 -7.6,3.1 h -2.5 M 615,406.6 h 11 v 29.8 c 0,1.9 0.8,3.4 2.6,4.4 1.8,1.2 4.1,1.8 6.8,1.8 2.9,0 5.3,-0.3 7.2,-1 1.5,-0.5 2.7,-1.1 3.7,-1.8 v -26.6 h -0.6 c -3,0 -4.1,-0.2 -4.7,-0.4 -1.5,-0.4 -2.5,-1.7 -2.5,-3.2 0,-0.5 0.1,-1.1 0.3,-1.5 l 0.6,-1.4 h 14 c 1.9,0 3.3,-0.5 4.3,-1.6 1.1,-1.1 1.6,-3.1 1.6,-5.8 0,-1.6 -0.2,-3.2 -0.7,-4.8 -0.3,-1.1 -0.7,-2.1 -1.2,-3 h -41.8 c -0.6,0.7 -1.2,1.6 -1.6,2.7 -0.6,1.5 -0.9,3.2 -0.9,5.3 -0.2,2.5 0.5,4.9 1.9,7.1 z m 27.2,1.8 c 0,0 0,0 0,0 0,0 0,0 0,0 z"
   id="path44"
   inkscape:connector-curvature="0"
   style="fill:none" />
			</g>
		</g>
		<g
   id="g54">
			<path
   class="st0"
   d="m 349.1,366.5 c -1.4,-6.7 -4.2,-13.1 -6.9,-19.4 -3.2,-7.6 -4.8,-15.3 -2.5,-23.4 0.4,-1.7 0.1,-3.5 0.1,-6.8 -2.5,1.9 -4.5,2.6 -5.2,4 -2.5,5 -5.7,10.1 -6.6,15.5 -1.3,7.5 -0.8,15.2 -1.1,22.9 -0.5,10.3 -3.9,19.1 -12.6,25.1 3.4,7.7 7.5,15 12.2,22 2.1,3.1 6,6.3 5,11.1 14.7,-13.6 22,-30.5 17.6,-51 z"
   id="path50"
   inkscape:connector-curvature="0"
   style="fill:#a77fb7" />
			<path
   class="st1"
   d="m 327.7,424 1.4,-7 c 0.5,-2.5 -0.8,-4.3 -2.9,-7 -0.6,-0.8 -1.2,-1.5 -1.8,-2.3 -4.7,-7.1 -8.9,-14.6 -12.4,-22.4 l -0.8,-1.7 1.6,-1.1 c 7.3,-5 11.2,-12.7 11.6,-23.3 0.1,-2.5 0.1,-5 0.2,-7.5 0,-5.2 0.1,-10.5 1,-15.7 0.8,-4.6 3,-8.9 5.2,-13.1 0.6,-1 1.1,-2.1 1.6,-3.1 0.7,-1.5 2.1,-2.3 3.6,-3.3 0.7,-0.4 1.5,-0.9 2.3,-1.5 l 3.7,-2.7 v 4.6 c 0,1.1 0,2.1 0.1,2.9 0.1,1.7 0.1,3.1 -0.2,4.5 -1.9,6.8 -1.1,13.6 2.4,21.9 2.7,6.4 5.5,13 7,19.8 v 0 c 4.3,20.1 -1.9,37.9 -18.4,53.2 z M 317,385.2 c 3.2,6.9 7,13.7 11.2,20 0.4,0.6 1,1.3 1.5,2 1.2,1.5 2.6,3.3 3.4,5.4 12.7,-13.3 17.3,-28.6 13.7,-45.5 v 0 c -1.4,-6.4 -4.1,-12.8 -6.7,-18.9 -3.9,-9.3 -4.8,-17.2 -2.6,-25 0.1,-0.5 0.2,-1.2 0.1,-2 -0.5,0.3 -0.9,0.6 -1,0.9 -0.5,1.1 -1.1,2.1 -1.7,3.2 -2,3.8 -4.1,7.8 -4.8,11.7 -0.8,4.8 -0.9,9.8 -0.9,15 0,2.5 0,5.1 -0.2,7.6 -0.5,11.2 -4.4,19.7 -12,25.6 z"
   id="path52"
   inkscape:connector-curvature="0"
   style="fill:#ffffff" />
		</g>
		<g
   id="g60">
			<path
   class="st0"
   d="m 310.5,352.8 c -1.4,-6.7 -4.2,-13.1 -6.9,-19.4 -3.2,-7.6 -4.8,-15.3 -2.5,-23.4 0.4,-1.7 0.1,-3.5 0.1,-6.8 -2.5,1.9 -4.5,2.6 -5.2,4 -2.5,5 -5.7,10.1 -6.6,15.5 -1.3,7.5 -0.8,15.2 -1.1,22.9 -0.5,10.3 -3.9,19.1 -12.6,25.1 3.4,7.7 7.5,15 12.2,22 2.1,3.1 6,6.3 5,11.1 14.7,-13.7 22,-30.5 17.6,-51 z"
   id="path56"
   inkscape:connector-curvature="0"
   style="fill:#a77fb7" />
			<path
   class="st1"
   d="m 289.1,410.3 1.4,-7 c 0.5,-2.5 -0.8,-4.3 -3,-7 -0.6,-0.7 -1.2,-1.5 -1.8,-2.3 -4.7,-7.1 -8.9,-14.6 -12.4,-22.4 l -0.8,-1.7 1.6,-1.1 c 7.3,-5 11.2,-12.7 11.6,-23.3 0.1,-2.4 0.1,-4.9 0.2,-7.4 0,-5.2 0.1,-10.6 1,-15.8 0.8,-4.6 3,-8.9 5.2,-13.1 0.6,-1 1.1,-2.1 1.6,-3.1 0.7,-1.5 2,-2.3 3.6,-3.3 0.7,-0.4 1.5,-0.9 2.3,-1.6 l 3.7,-2.7 v 4.6 c 0,1.1 0,2.1 0.1,2.9 0.1,1.7 0.2,3.1 -0.2,4.5 -1.9,6.8 -1.1,13.6 2.4,21.9 2.7,6.4 5.5,13 7,19.8 v 0 c 4.3,20 -1.9,37.9 -18.4,53.2 z m -10.7,-38.9 c 3.2,6.9 7,13.6 11.2,20 0.4,0.6 1,1.3 1.5,2 1.2,1.5 2.6,3.3 3.4,5.4 12.7,-13.3 17.3,-28.6 13.7,-45.5 v 0 c -1.4,-6.4 -4.1,-12.8 -6.7,-18.9 -3.9,-9.3 -4.8,-17.2 -2.6,-25 0.1,-0.5 0.1,-1.2 0.1,-2 -0.5,0.3 -0.9,0.6 -1,0.8 -0.5,1.1 -1.1,2.1 -1.7,3.2 -2,3.8 -4.1,7.8 -4.8,11.7 -0.9,4.9 -0.9,9.8 -1,15.1 0,2.5 0,5 -0.2,7.5 -0.4,11.4 -4.3,19.8 -11.9,25.7 z"
   id="path58"
   inkscape:connector-curvature="0"
   style="fill:#ffffff" />
		</g>
		<g
   id="g66">
			<path
   class="st0"
   d="m 230.7,354.9 c 1.4,-6.7 4.2,-13.1 6.9,-19.4 3.2,-7.6 4.8,-15.3 2.5,-23.4 -0.5,-1.7 -0.1,-3.5 -0.1,-6.8 2.5,1.9 4.5,2.6 5.2,4 2.5,5 5.7,10.1 6.6,15.5 1.3,7.5 0.8,15.2 1.1,22.9 0.5,10.3 3.9,19.1 12.6,25.1 -3.5,7.7 -7.6,15 -12.3,22 -2.1,3.1 -6,6.3 -5,11.1 -14.6,-13.6 -21.9,-30.5 -17.5,-51 z"
   id="path62"
   inkscape:connector-curvature="0"
   style="fill:#a77fb7" />
			<path
   class="st1"
   d="m 252,412.4 -5.2,-4.8 c -16.5,-15.2 -22.7,-33.1 -18.4,-53.2 v 0 c 1.5,-6.9 4.3,-13.4 7,-19.8 3.6,-8.4 4.3,-15.2 2.5,-22 -0.4,-1.4 -0.3,-2.8 -0.2,-4.5 0,-0.8 0.1,-1.8 0.1,-2.9 v -4.6 l 3.7,2.7 c 0.8,0.6 1.6,1.1 2.3,1.6 1.5,1 2.8,1.8 3.6,3.3 0.5,1 1.1,2.1 1.6,3.1 2.2,4.1 4.5,8.4 5.2,13.1 0.9,5.2 1,10.6 1,15.8 0,2.4 0,4.9 0.2,7.3 0.5,10.7 4.3,18.3 11.6,23.3 l 1.6,1.1 -0.8,1.7 c -3.5,7.8 -7.7,15.3 -12.5,22.3 -0.5,0.8 -1.1,1.6 -1.7,2.3 -2.2,2.7 -3.5,4.5 -3,7.1 z m -19.1,-57 c -3.6,16.9 0.9,32.2 13.6,45.5 0.8,-2.1 2.2,-3.9 3.4,-5.4 0.6,-0.7 1.1,-1.4 1.5,-2 4.3,-6.3 8.1,-13.1 11.3,-20 -7.6,-5.9 -11.5,-14.3 -12,-25.8 -0.1,-2.5 -0.1,-5 -0.2,-7.5 0,-5.2 -0.1,-10.2 -1,-15 -0.7,-3.9 -2.7,-7.9 -4.8,-11.7 -0.6,-1.1 -1.1,-2.1 -1.7,-3.2 -0.1,-0.2 -0.5,-0.5 -1,-0.9 0,0.8 0,1.5 0.1,2 2.1,7.8 1.3,15.7 -2.6,24.9 -2.5,6.3 -5.2,12.7 -6.6,19.1 z"
   id="path64"
   inkscape:connector-curvature="0"
   style="fill:#ffffff" />
		</g>
		<g
   id="g72">
			<path
   class="st0"
   d="m 372.3,422.2 c 3.7,-5.7 6.3,-12.2 8.9,-18.6 3.1,-7.7 7.4,-14.2 14.8,-18.4 1.5,-0.8 2.5,-2.4 4.8,-4.8 -3.1,-0.5 -5,-1.3 -6.5,-0.9 -5.4,1.8 -11.2,3.1 -15.7,6.3 -6.2,4.3 -11.3,10.2 -17,15.4 -7.6,7 -16.3,10.8 -26.7,8.8 -3,7.9 -5.3,16 -6.9,24.2 -0.7,3.7 -0.1,8.7 -4.3,11.4 20.2,0.9 37.2,-5.8 48.6,-23.4 z"
   id="path68"
   inkscape:connector-curvature="0"
   style="fill:#a77fb7" />
			<path
   class="st1"
   d="m 326.9,448.1 c -1.1,0 -2.2,0 -3.3,-0.1 l -7.2,-0.3 6,-3.9 c 2.1,-1.4 2.5,-3.6 2.9,-7.1 0.1,-1 0.2,-1.9 0.4,-2.9 1.6,-8.3 4,-16.6 7,-24.6 l 0.7,-1.8 1.9,0.4 c 8.7,1.6 16.8,-1.1 24.7,-8.3 1.8,-1.6 3.5,-3.3 5.2,-5 3.7,-3.7 7.6,-7.5 12,-10.5 3.9,-2.7 8.5,-4.2 13,-5.6 1.1,-0.3 2.2,-0.7 3.3,-1 1.6,-0.5 3.1,-0.2 4.9,0.2 0.8,0.2 1.7,0.4 2.7,0.5 l 4.5,0.7 -3.2,3.2 c -0.8,0.8 -1.4,1.5 -2,2.1 -1.2,1.3 -2.1,2.3 -3.3,3 -6.1,3.5 -10.4,8.8 -13.8,17.2 l -0.1,0.2 c -2.6,6.3 -5.2,12.9 -9,18.7 v 0 c -10.5,16.6 -26.4,24.9 -47.3,24.9 z m 9.6,-35.4 c -2.6,7.2 -4.7,14.6 -6.2,22.1 -0.1,0.7 -0.2,1.6 -0.3,2.5 -0.2,2 -0.5,4.2 -1.4,6.2 18.4,-0.4 32.4,-8 41.8,-22.5 3.5,-5.5 6.1,-11.8 8.6,-18 l 0.1,-0.2 c 3.8,-9.3 8.8,-15.5 15.8,-19.5 0.5,-0.3 0.9,-0.7 1.5,-1.3 -0.6,-0.1 -1.1,-0.2 -1.3,-0.1 -1.1,0.4 -2.2,0.7 -3.3,1.1 -4.2,1.3 -8.5,2.6 -11.8,4.9 -4.1,2.8 -7.6,6.3 -11.4,10 -1.7,1.7 -3.5,3.5 -5.4,5.1 -8.4,7.7 -17.2,10.9 -26.7,9.7 z"
   id="path70"
   inkscape:connector-curvature="0"
   style="fill:#ffffff" />
		</g>
		<g
   id="g78">
			<path
   class="st0"
   d="m 161.1,418.3 c -3.7,-5.7 -6.3,-12.2 -8.9,-18.6 -3.1,-7.7 -7.4,-14.2 -14.8,-18.4 -1.5,-0.8 -2.5,-2.4 -4.8,-4.8 3.1,-0.5 5,-1.4 6.5,-0.9 5.4,1.8 11.2,3.1 15.7,6.3 6.2,4.3 11.3,10.2 17,15.4 7.6,7 16.3,10.8 26.7,8.8 3,7.9 5.3,16 6.9,24.2 0.7,3.7 0.1,8.7 4.3,11.4 -20.1,0.9 -37.2,-5.8 -48.6,-23.4 z"
   id="path74"
   inkscape:connector-curvature="0"
   style="fill:#a77fb7" />
			<path
   class="st1"
   d="m 206.5,444.2 c -20.8,0 -36.7,-8.3 -47.3,-24.7 v 0 c -3.8,-5.9 -6.4,-12.4 -9,-18.7 l -0.1,-0.2 c -3.4,-8.4 -7.7,-13.7 -13.8,-17.2 -1.3,-0.7 -2.2,-1.7 -3.3,-3 -0.6,-0.6 -1.2,-1.3 -2,-2.1 l -3.2,-3.2 4.5,-0.7 c 1,-0.1 1.9,-0.4 2.7,-0.5 1.8,-0.4 3.3,-0.8 4.9,-0.2 1.1,0.4 2.2,0.7 3.3,1 4.5,1.4 9.1,2.8 13,5.5 4.4,3.1 8.2,6.9 11.9,10.5 1.7,1.7 3.5,3.4 5.2,5 7.9,7.2 15.9,9.9 24.7,8.3 l 1.9,-0.4 0.7,1.8 c 3,8 5.4,16.2 7,24.6 0.2,0.9 0.3,1.9 0.4,2.9 0.4,3.5 0.8,5.7 2.9,7.1 l 6,3.9 -7.1,0.3 c -1.2,0 -2.2,0 -3.3,0 z M 163.1,417 c 9.4,14.5 23.4,22.1 41.7,22.5 -0.9,-2.1 -1.2,-4.3 -1.4,-6.2 -0.1,-0.9 -0.2,-1.7 -0.3,-2.5 -1.5,-7.5 -3.5,-14.9 -6.1,-22.1 -9.5,1.2 -18.3,-2 -26.7,-9.7 -1.8,-1.7 -3.6,-3.4 -5.4,-5.2 -3.6,-3.5 -7.3,-7.2 -11.4,-10 -3.3,-2.3 -7.6,-3.6 -11.7,-4.9 -1.1,-0.4 -2.2,-0.7 -3.4,-1.1 -0.2,-0.1 -0.7,0 -1.3,0.1 0.6,0.6 1,1.1 1.5,1.3 7,4 12,10.2 15.8,19.5 l 0.1,0.2 c 2.5,6.3 5,12.7 8.6,18.1 z"
   id="path76"
   inkscape:connector-curvature="0"
   style="fill:#ffffff" />
		</g>
		<g
   id="g84">
			<path
   class="st0"
   d="m 188,361.7 c 1.4,-6.7 4.2,-13.1 6.9,-19.4 3.2,-7.6 4.8,-15.3 2.5,-23.4 -0.4,-1.6 0,-3.5 0,-6.8 2.5,1.9 4.5,2.6 5.2,4 2.5,5 5.7,10.1 6.6,15.5 1.3,7.5 0.8,15.2 1.1,22.9 0.5,10.3 3.9,19.1 12.6,25.1 -3.4,7.7 -7.5,15 -12.2,22 -2.1,3.1 -6,6.3 -5,11.1 -14.8,-13.7 -22.1,-30.5 -17.7,-51 z"
   id="path80"
   inkscape:connector-curvature="0"
   style="fill:#a77fb7" />
			<path
   class="st1"
   d="m 209.4,419.1 -5.2,-4.8 c -16.6,-15.2 -22.8,-33.1 -18.5,-53.2 1.5,-6.8 4.3,-13.4 7,-19.7 v -0.1 c 3.5,-8.4 4.3,-15.1 2.4,-21.9 -0.4,-1.4 -0.3,-2.8 -0.2,-4.4 0.1,-0.9 0.1,-1.9 0.1,-3 v -4.6 l 3.7,2.7 c 0.8,0.6 1.6,1.1 2.3,1.5 1.5,1 2.9,1.8 3.6,3.3 0.5,1 1.1,2.1 1.6,3.1 2.2,4.1 4.5,8.4 5.2,13.1 0.9,5.2 1,10.6 1,15.8 0,2.4 0,4.9 0.2,7.3 0.5,10.7 4.3,18.3 11.6,23.3 l 1.6,1.1 -0.8,1.7 c -3.5,7.8 -7.7,15.3 -12.4,22.4 -0.5,0.8 -1.1,1.6 -1.7,2.3 -2.2,2.7 -3.5,4.5 -3,7 z m -9.9,-102.9 c 0,0.9 0,1.5 0.1,2 2.1,7.8 1.3,15.7 -2.6,24.9 v 0.1 c -2.6,6.1 -5.3,12.5 -6.7,18.9 v 0 c -3.7,17 1,32.2 13.7,45.5 0.8,-2.1 2.2,-3.9 3.4,-5.4 0.6,-0.7 1.1,-1.4 1.5,-2 4.3,-6.3 8,-13.1 11.3,-20 -7.6,-5.9 -11.5,-14.3 -12,-25.8 -0.1,-2.5 -0.1,-5.1 -0.2,-7.5 -0.1,-5.2 -0.1,-10.2 -1,-15.1 -0.7,-3.9 -2.7,-7.9 -4.8,-11.7 -0.6,-1.1 -1.1,-2.1 -1.7,-3.2 -0.1,0 -0.5,-0.4 -1,-0.7 z"
   id="path82"
   inkscape:connector-curvature="0"
   style="fill:#ffffff" />
		</g>
		<g
   id="g90">
			<ellipse
   class="st0"
   cx="265.60001"
   cy="420.60001"
   rx="72.099998"
   ry="54.200001"
   id="ellipse86"
   style="fill:#a77fb7" />
			<path
   class="st1"
   d="m 265.6,477 c -41,0 -74.4,-25.3 -74.4,-56.5 0,-31.2 33.4,-56.5 74.4,-56.5 41,0 74.4,25.3 74.4,56.5 0,31.2 -33.4,56.5 -74.4,56.5 z m 0,-108.3 c -38.5,0 -69.8,23.3 -69.8,51.9 0,28.6 31.3,51.9 69.8,51.9 38.5,0 69.8,-23.3 69.8,-51.9 0,-28.6 -31.3,-51.9 -69.8,-51.9 z"
   id="path88"
   inkscape:connector-curvature="0"
   style="fill:#ffffff" />
		</g>
		<g
   id="g94">
			<path
   class="st1"
   d="m 230.4,399.6 c -5.3,0.3 -9.5,4.3 -10.1,9.6 -1.5,9.4 9.5,9.4 14.4,8.3 4.9,-1.1 8.9,-6.3 5.3,-12.6 -3.1,-5.5 -9.6,-5.3 -9.6,-5.3 z"
   id="path92"
   inkscape:connector-curvature="0"
   style="fill:#ffffff" />
		</g>
		<g
   id="g98">
			<path
   class="st1"
   d="m 294.4,399.6 c 5.3,0.3 9.5,4.3 10.1,9.6 1.5,9.4 -9.5,9.4 -14.4,8.3 -4.9,-1.1 -8.9,-6.3 -5.3,-12.6 3.1,-5.5 9.6,-5.3 9.6,-5.3 z"
   id="path96"
   inkscape:connector-curvature="0"
   style="fill:#ffffff" />
		</g>
		<g
   id="g102">
			<path
   class="st3"
   d="m 284.5,427.2 c -0.1,3.2 4.1,6 9.4,6.1 5.3,0.2 9.6,-2.3 9.8,-5.5 0.1,-3.2 -4.1,-6 -9.4,-6.2 -5.3,-0.2 -9.7,2.3 -9.8,5.6 z"
   id="path100"
   inkscape:connector-curvature="0"
   style="fill:#dfc5e1" />
		</g>
		<g
   id="g106">
			<path
   class="st3"
   d="m 221.2,426.4 c -0.1,3.2 4.1,6 9.4,6.1 5.3,0.1 9.7,-2.3 9.8,-5.5 0.1,-3.2 -4.1,-6 -9.4,-6.2 -5.4,-0.1 -9.7,2.4 -9.8,5.6 z"
   id="path104"
   inkscape:connector-curvature="0"
   style="fill:#dfc5e1" />
		</g>
	</g>
	<g
   id="g148">
		<path
   class="st1"
   d="M 325.2,487.4 322,465.7 v -0.1 c 0,-0.2 0.1,-0.4 0.2,-0.5 0.1,-0.1 0.3,-0.2 0.5,-0.2 h 0.7 c 0.4,0 0.6,0.2 0.6,0.5 l 3,20.4 11.6,-20.4 c 0.2,-0.3 0.4,-0.5 0.7,-0.5 h 1 c 0.2,0 0.3,0.1 0.4,0.2 0.1,0.1 0.1,0.2 0.1,0.4 0,0.2 0,0.3 -0.1,0.5 l -12.2,21.4 c -0.2,0.3 -0.4,0.5 -0.6,0.6 -0.2,0.1 -0.4,0.2 -0.7,0.2 h -1 c -0.6,0 -0.9,-0.3 -1,-0.8 z"
   id="path110"
   inkscape:connector-curvature="0"
   style="fill:#ffffff" />
		<path
   class="st1"
   d="m 340.9,486.9 c -1,-1.1 -1.5,-2.6 -1.5,-4.4 0,-0.5 0,-1 0.1,-1.6 0.1,-0.7 0.3,-1.6 0.6,-2.7 0.7,-2.3 1.8,-4.2 3.4,-5.6 1.6,-1.4 3.4,-2.1 5.6,-2.1 1.9,0 3.3,0.5 4.3,1.5 1,1 1.5,2.5 1.5,4.3 0,0.8 -0.1,1.7 -0.3,2.7 l -0.1,0.5 c 0,0.2 -0.2,0.4 -0.3,0.5 -0.2,0.1 -0.4,0.2 -0.6,0.2 h -11.8 l -0.1,0.3 c -0.1,0.4 -0.1,0.8 -0.1,1.3 0,1.3 0.4,2.4 1.1,3.3 0.7,0.9 1.7,1.3 3,1.3 1.2,0 2.3,-0.2 3.1,-0.7 0.9,-0.5 1.5,-1 1.9,-1.4 0.3,-0.3 0.5,-0.4 0.6,-0.5 0.1,-0.1 0.3,-0.1 0.6,-0.1 h 0.5 c 0.2,0 0.3,0 0.4,0.1 0.1,0.1 0.2,0.2 0.2,0.4 0,0.4 -0.4,1 -1.1,1.6 -0.7,0.7 -1.7,1.3 -2.9,1.8 -1.2,0.5 -2.5,0.8 -3.8,0.8 -1.8,0.1 -3.3,-0.5 -4.3,-1.5 z m 11.8,-8.4 v -0.1 c 0.1,-0.6 0.2,-1.2 0.2,-1.6 0,-1.3 -0.4,-2.3 -1.1,-3.1 -0.7,-0.8 -1.8,-1.2 -3.1,-1.2 -1.6,0 -3,0.6 -4.2,1.7 -1.2,1.1 -2,2.5 -2.3,4.2 v 0.1 z"
   id="path112"
   inkscape:connector-curvature="0"
   style="fill:#ffffff" />
		<path
   class="st1"
   d="m 356.8,488 c -0.1,-0.1 -0.1,-0.3 -0.1,-0.5 l 3.4,-15.8 c 0,-0.2 0.1,-0.4 0.3,-0.5 0.2,-0.1 0.4,-0.2 0.6,-0.2 h 0.6 c 0.2,0 0.4,0.1 0.5,0.2 0.1,0.1 0.1,0.3 0.1,0.5 l -0.3,1.6 c 0.7,-0.8 1.6,-1.5 2.6,-1.9 1,-0.5 2.1,-0.7 3.3,-0.7 2,0 3.4,0.5 4.4,1.4 0.9,0.9 1.4,2.2 1.4,3.8 0,0.7 -0.1,1.4 -0.3,2.3 l -2,9.5 c 0,0.2 -0.1,0.4 -0.3,0.5 -0.2,0.1 -0.3,0.2 -0.6,0.2 h -0.6 c -0.2,0 -0.4,-0.1 -0.5,-0.2 -0.1,-0.1 -0.1,-0.3 -0.1,-0.5 l 2,-9.3 c 0.2,-1.1 0.3,-1.9 0.3,-2.5 0,-1.1 -0.3,-1.9 -0.9,-2.4 -0.6,-0.5 -1.5,-0.8 -2.9,-0.8 -1.8,0 -3.3,0.5 -4.5,1.5 -1.2,1 -2.1,2.4 -2.4,4.2 l -2,9.3 c 0,0.2 -0.1,0.4 -0.3,0.5 -0.2,0.1 -0.3,0.2 -0.6,0.2 h -0.6 c -0.3,-0.2 -0.4,-0.3 -0.5,-0.4 z"
   id="path114"
   inkscape:connector-curvature="0"
   style="fill:#ffffff" />
		<path
   class="st1"
   d="m 378.1,486.7 c -0.9,-1.2 -1.4,-2.7 -1.4,-4.5 0,-0.7 0,-1.3 0.1,-1.8 0.1,-0.4 0.2,-1.1 0.4,-1.9 0.6,-2.3 1.6,-4.2 3,-5.8 1.4,-1.5 3.3,-2.3 5.7,-2.3 2.5,0 4.2,0.9 5.1,2.6 l 1.7,-7.9 c 0,-0.2 0.1,-0.4 0.3,-0.5 0.2,-0.1 0.3,-0.2 0.6,-0.2 h 0.6 c 0.2,0 0.4,0.1 0.5,0.2 0.1,0.1 0.1,0.3 0.1,0.5 l -4.7,22.2 c 0,0.2 -0.1,0.4 -0.3,0.5 -0.2,0.1 -0.3,0.2 -0.6,0.2 h -0.6 c -0.2,0 -0.4,-0.1 -0.5,-0.2 -0.1,-0.1 -0.1,-0.3 -0.1,-0.5 l 0.3,-1.6 c -0.8,0.9 -1.6,1.5 -2.5,2 -0.9,0.4 -2,0.7 -3.3,0.7 -2,0.1 -3.5,-0.5 -4.4,-1.7 z m 7.7,-1 c 1,-0.6 1.8,-1.3 2.4,-2.2 0.6,-0.9 1.1,-1.8 1.3,-2.8 0.2,-0.6 0.3,-1.5 0.6,-2.6 0.1,-0.6 0.1,-1 0.1,-1.3 0,-1.2 -0.3,-2.3 -1,-3.1 -0.7,-0.8 -1.8,-1.2 -3.2,-1.2 -1.7,0 -3.1,0.6 -4.2,1.7 -1.1,1.2 -1.9,2.6 -2.5,4.4 -0.2,0.5 -0.3,1.2 -0.4,1.9 -0.1,0.7 -0.2,1.4 -0.2,1.9 0,2.8 1.3,4.2 3.8,4.2 1.2,0 2.3,-0.3 3.3,-0.9 z"
   id="path116"
   inkscape:connector-curvature="0"
   style="fill:#ffffff" />
		<path
   class="st1"
   d="m 396.9,485.1 h 1.5 c 0.2,0 0.3,0.1 0.3,0.2 0.1,0.1 0.1,0.3 0,0.4 l -2.4,4.2 c -0.1,0.2 -0.3,0.4 -0.4,0.5 -0.1,0.1 -0.3,0.2 -0.6,0.2 h -0.6 c -0.3,0 -0.4,-0.1 -0.4,-0.4 l 0.1,-0.3 1.5,-4 c 0.2,-0.5 0.6,-0.8 1,-0.8 z"
   id="path118"
   inkscape:connector-curvature="0"
   style="fill:#ffffff" />
		<path
   class="st1"
   d="m 409.6,488 c -0.1,-0.1 -0.2,-0.3 -0.2,-0.4 0,-0.1 0,-0.3 0.1,-0.4 l 13,-21.6 c 0.3,-0.4 0.6,-0.7 1.1,-0.7 h 1.4 c 0.5,0 0.8,0.2 0.8,0.7 l 3.8,21.6 c 0,0.1 0,0.2 0,0.3 0,0.2 -0.1,0.4 -0.2,0.5 -0.1,0.1 -0.3,0.2 -0.4,0.2 h -0.7 c -0.4,0 -0.7,-0.2 -0.8,-0.7 l -1,-5.1 h -11.7 l -3.3,5.3 c -0.2,0.3 -0.5,0.5 -0.8,0.5 H 410 c -0.2,0 -0.3,-0.1 -0.4,-0.2 z m 6.5,-7.7 h 10.2 L 424,467.2 Z"
   id="path120"
   inkscape:connector-curvature="0"
   style="fill:#ffffff" />
		<path
   class="st1"
   d="m 434.8,486.9 c -1.1,-1 -1.6,-2.5 -1.6,-4.3 0,-0.7 0.1,-1.3 0.2,-1.8 0.3,-1.3 0.5,-2.2 0.6,-2.7 0.6,-2.4 1.6,-4.3 3.1,-5.7 1.5,-1.3 3.4,-2 5.7,-2 2.1,0 3.6,0.5 4.5,1.4 1,1 1.4,2.1 1.4,3.4 0,0.2 0,0.4 0,0.6 0,0.2 -0.1,0.4 -0.2,0.5 -0.1,0.1 -0.3,0.2 -0.5,0.2 h -0.6 c -0.2,0 -0.4,0 -0.5,-0.1 -0.1,-0.1 -0.2,-0.3 -0.1,-0.5 0,-1.2 -0.3,-2.1 -1,-2.7 -0.7,-0.6 -1.7,-0.9 -3,-0.9 -1.6,0 -3,0.5 -4.2,1.5 -1.2,1 -2.1,2.5 -2.5,4.4 -0.1,0.4 -0.3,1.2 -0.5,2.3 -0.1,0.6 -0.2,1.2 -0.2,1.9 0,2.7 1.3,4 4,4 2.7,0 4.7,-1.1 5.8,-3.4 0.2,-0.3 0.3,-0.5 0.4,-0.6 0.1,-0.1 0.3,-0.1 0.5,-0.1 h 0.6 c 0.2,0 0.3,0.1 0.4,0.2 0.1,0.1 0.1,0.3 0.1,0.5 -0.3,0.9 -0.7,1.7 -1.4,2.5 -0.6,0.8 -1.5,1.5 -2.6,2 -1.1,0.5 -2.4,0.8 -3.8,0.8 -2,0.2 -3.5,-0.3 -4.6,-1.4 z"
   id="path122"
   inkscape:connector-curvature="0"
   style="fill:#ffffff" />
		<path
   class="st1"
   d="m 450.7,488 c -0.1,-0.1 -0.1,-0.3 -0.1,-0.5 l 4.7,-22.2 c 0,-0.2 0.1,-0.4 0.3,-0.5 0.2,-0.1 0.3,-0.2 0.6,-0.2 h 0.6 c 0.2,0 0.4,0.1 0.5,0.2 0.1,0.1 0.1,0.3 0.1,0.5 l -1.7,7.9 c 0.8,-0.8 1.6,-1.5 2.5,-1.9 0.9,-0.5 2,-0.7 3.3,-0.7 1.9,0 3.4,0.5 4.3,1.5 1,1 1.5,2.3 1.5,4 0,0.5 -0.1,1.2 -0.2,2 l -2,9.5 c 0,0.2 -0.1,0.4 -0.3,0.5 -0.2,0.1 -0.3,0.2 -0.6,0.2 h -0.6 c -0.2,0 -0.4,-0.1 -0.5,-0.2 -0.1,-0.1 -0.1,-0.3 -0.1,-0.5 l 2,-9.3 c 0.2,-0.8 0.3,-1.5 0.3,-2.1 0,-2.4 -1.3,-3.6 -3.8,-3.6 -1.6,0 -3.1,0.5 -4.4,1.5 -1.3,1 -2.1,2.4 -2.5,4.1 l -2,9.3 c 0,0.2 -0.1,0.4 -0.3,0.5 -0.2,0.1 -0.3,0.2 -0.6,0.2 h -0.6 c -0.1,0 -0.3,-0.1 -0.4,-0.2 z"
   id="path124"
   inkscape:connector-curvature="0"
   style="fill:#ffffff" />
		<path
   class="st1"
   d="m 472.7,486.9 c -1,-1.1 -1.5,-2.6 -1.5,-4.4 0,-0.5 0,-1 0.1,-1.6 0.1,-0.7 0.3,-1.6 0.6,-2.7 0.7,-2.3 1.8,-4.2 3.4,-5.6 1.6,-1.4 3.4,-2.1 5.6,-2.1 1.9,0 3.3,0.5 4.3,1.5 1,1 1.5,2.5 1.5,4.3 0,0.8 -0.1,1.7 -0.3,2.7 l -0.1,0.5 c 0,0.2 -0.2,0.4 -0.3,0.5 -0.2,0.1 -0.4,0.2 -0.6,0.2 h -11.8 l -0.1,0.3 c -0.1,0.4 -0.1,0.8 -0.1,1.3 0,1.3 0.4,2.4 1.1,3.3 0.7,0.9 1.7,1.3 3,1.3 1.2,0 2.3,-0.2 3.1,-0.7 0.9,-0.5 1.5,-1 1.9,-1.4 0.3,-0.3 0.5,-0.4 0.6,-0.5 0.1,-0.1 0.3,-0.1 0.6,-0.1 h 0.5 c 0.2,0 0.3,0 0.4,0.1 0.1,0.1 0.2,0.2 0.2,0.4 0,0.4 -0.4,1 -1.1,1.6 -0.7,0.7 -1.7,1.3 -2.9,1.8 -1.2,0.5 -2.5,0.8 -3.8,0.8 -1.9,0.1 -3.3,-0.5 -4.3,-1.5 z m 11.7,-8.4 v -0.1 c 0.1,-0.6 0.2,-1.2 0.2,-1.6 0,-1.3 -0.4,-2.3 -1.1,-3.1 -0.7,-0.8 -1.8,-1.2 -3.1,-1.2 -1.6,0 -3,0.6 -4.2,1.7 -1.2,1.1 -2,2.5 -2.3,4.2 v 0.1 z"
   id="path126"
   inkscape:connector-curvature="0"
   style="fill:#ffffff" />
		<path
   class="st1"
   d="m 490.9,487.3 c -0.6,-0.5 -0.9,-1.3 -0.9,-2.3 0,-0.7 0.1,-1.5 0.3,-2.4 l 2.1,-9.8 h -2.6 c -0.2,0 -0.4,-0.1 -0.5,-0.2 -0.1,-0.1 -0.1,-0.3 -0.1,-0.5 l 0.1,-0.5 c 0,-0.2 0.2,-0.4 0.3,-0.5 0.2,-0.1 0.4,-0.2 0.6,-0.2 h 2.6 l 1.2,-5.6 c 0,-0.2 0.1,-0.4 0.3,-0.5 0.2,-0.1 0.3,-0.2 0.6,-0.2 h 0.6 c 0.2,0 0.4,0.1 0.5,0.2 0.1,0.1 0.1,0.3 0.1,0.5 l -1.2,5.6 h 4.1 c 0.2,0 0.4,0.1 0.5,0.2 0.1,0.1 0.1,0.3 0.1,0.5 l -0.1,0.5 c 0,0.2 -0.1,0.4 -0.3,0.5 -0.2,0.1 -0.4,0.2 -0.6,0.2 h -4.1 l -2.1,9.7 c -0.2,1.1 -0.4,1.8 -0.4,2.2 0,0.5 0.2,0.9 0.4,1.2 0.3,0.2 0.8,0.4 1.6,0.4 h 2 c 0.2,0 0.4,0.1 0.5,0.2 0.1,0.1 0.1,0.3 0.1,0.5 l -0.1,0.5 c 0,0.2 -0.1,0.4 -0.3,0.5 -0.2,0.1 -0.3,0.2 -0.6,0.2 H 494 c -1.5,0 -2.5,-0.3 -3.1,-0.9 z"
   id="path128"
   inkscape:connector-curvature="0"
   style="fill:#ffffff" />
		<path
   class="st1"
   d="m 502.3,486.9 c -1,-1.1 -1.5,-2.6 -1.5,-4.4 0,-0.5 0,-1 0.1,-1.6 0.1,-0.7 0.3,-1.6 0.6,-2.7 0.7,-2.3 1.8,-4.2 3.4,-5.6 1.6,-1.4 3.4,-2.1 5.6,-2.1 1.9,0 3.3,0.5 4.3,1.5 1,1 1.5,2.5 1.5,4.3 0,0.8 -0.1,1.7 -0.3,2.7 l -0.1,0.5 c 0,0.2 -0.2,0.4 -0.3,0.5 -0.2,0.1 -0.4,0.2 -0.6,0.2 h -12 l -0.1,0.3 c -0.1,0.4 -0.1,0.8 -0.1,1.3 0,1.3 0.4,2.4 1.1,3.3 0.7,0.9 1.7,1.3 3,1.3 1.2,0 2.3,-0.2 3.1,-0.7 0.9,-0.5 1.5,-1 1.9,-1.4 0.3,-0.3 0.5,-0.4 0.6,-0.5 0.1,-0.1 0.3,-0.1 0.6,-0.1 h 0.5 c 0.2,0 0.3,0 0.4,0.1 0.1,0.1 0.2,0.2 0.2,0.4 0,0.4 -0.4,1 -1.1,1.6 -0.7,0.7 -1.7,1.3 -2.9,1.8 -1.2,0.5 -2.5,0.8 -3.8,0.8 -1.7,0.1 -3.1,-0.5 -4.1,-1.5 z m 11.7,-8.4 v -0.1 c 0.1,-0.6 0.2,-1.2 0.2,-1.6 0,-1.3 -0.4,-2.3 -1.1,-3.1 -0.7,-0.8 -1.8,-1.2 -3.1,-1.2 -1.6,0 -3,0.6 -4.2,1.7 -1.2,1.1 -2,2.5 -2.3,4.2 v 0.1 z"
   id="path130"
   inkscape:connector-curvature="0"
   style="fill:#ffffff" />
		<path
   class="st1"
   d="m 519.3,485.1 h 1.5 c 0.2,0 0.3,0.1 0.3,0.2 0.1,0.1 0.1,0.3 0,0.4 l -2.4,4.2 c -0.1,0.2 -0.3,0.4 -0.4,0.5 -0.1,0.1 -0.3,0.2 -0.6,0.2 h -0.6 c -0.3,0 -0.4,-0.1 -0.4,-0.4 l 0.1,-0.3 1.5,-4 c 0.3,-0.5 0.6,-0.8 1,-0.8 z"
   id="path132"
   inkscape:connector-curvature="0"
   style="fill:#ffffff" />
		<path
   class="st1"
   d="m 535.6,488 c -0.1,-0.1 -0.1,-0.3 -0.1,-0.5 l 4.6,-21.8 c 0,-0.2 0.1,-0.4 0.3,-0.5 0.2,-0.1 0.4,-0.2 0.6,-0.2 h 7.8 c 2,0 3.6,0.4 4.7,1.2 1.1,0.8 1.7,2.1 1.7,3.7 0,0.6 -0.1,1.2 -0.2,1.8 -0.4,1.8 -1.1,3.2 -2.2,4.2 -1.1,1.1 -2.5,1.8 -4.2,2.2 l 3.4,9.1 c 0,0.1 0,0.2 0,0.4 0,0.2 -0.1,0.3 -0.3,0.5 -0.2,0.1 -0.3,0.2 -0.5,0.2 h -0.4 c -0.3,0 -0.6,-0.1 -0.7,-0.2 -0.1,-0.1 -0.3,-0.4 -0.4,-0.7 l -3.4,-9 h -6.9 l -1.9,9.1 c 0,0.2 -0.2,0.4 -0.3,0.5 -0.2,0.1 -0.4,0.2 -0.6,0.2 H 536 c -0.1,0 -0.3,-0.1 -0.4,-0.2 z m 10.6,-11.7 c 3.8,0 6.1,-1.6 6.7,-4.7 0.1,-0.5 0.2,-1 0.2,-1.3 0,-2.3 -1.6,-3.4 -4.9,-3.4 H 542 l -2,9.5 h 6.2 z"
   id="path134"
   inkscape:connector-curvature="0"
   style="fill:#ffffff" />
		<path
   class="st1"
   d="m 558.1,486.9 c -1,-1.1 -1.5,-2.6 -1.5,-4.4 0,-0.5 0,-1 0.1,-1.6 0.1,-0.7 0.3,-1.6 0.6,-2.7 0.7,-2.3 1.8,-4.2 3.4,-5.6 1.6,-1.4 3.4,-2.1 5.6,-2.1 1.9,0 3.3,0.5 4.3,1.5 1,1 1.5,2.5 1.5,4.3 0,0.8 -0.1,1.7 -0.3,2.7 l -0.1,0.5 c 0,0.2 -0.2,0.4 -0.3,0.5 -0.2,0.1 -0.4,0.2 -0.6,0.2 H 559 l -0.1,0.3 c -0.1,0.4 -0.1,0.8 -0.1,1.3 0,1.3 0.4,2.4 1.1,3.3 0.7,0.9 1.7,1.3 3,1.3 1.2,0 2.3,-0.2 3.1,-0.7 0.9,-0.5 1.5,-1 1.9,-1.4 0.3,-0.3 0.5,-0.4 0.6,-0.5 0.1,-0.1 0.3,-0.1 0.6,-0.1 h 0.5 c 0.2,0 0.3,0 0.4,0.1 0.1,0.1 0.2,0.2 0.2,0.4 0,0.4 -0.4,1 -1.1,1.6 -0.7,0.7 -1.7,1.3 -2.9,1.8 -1.2,0.5 -2.5,0.8 -3.8,0.8 -1.8,0.1 -3.3,-0.5 -4.3,-1.5 z m 11.8,-8.4 v -0.1 c 0.1,-0.6 0.2,-1.2 0.2,-1.6 0,-1.3 -0.4,-2.3 -1.1,-3.1 -0.7,-0.8 -1.8,-1.2 -3.1,-1.2 -1.6,0 -3,0.6 -4.2,1.7 -1.2,1.1 -2,2.5 -2.3,4.2 v 0.1 z m -4.7,-10.3 c -0.1,-0.1 -0.1,-0.2 0,-0.4 0,-0.2 0.1,-0.3 0.3,-0.4 l 2.9,-2.8 c 0.2,-0.2 0.5,-0.4 0.6,-0.5 0.2,-0.1 0.4,-0.1 0.7,-0.1 h 1.4 c 0.2,0 0.3,0 0.4,0.1 0.1,0.1 0.1,0.2 0.1,0.3 0,0.2 -0.1,0.4 -0.3,0.5 l -4.3,3 c -0.2,0.1 -0.4,0.2 -0.5,0.3 -0.1,0 -0.3,0.1 -0.6,0.1 h -0.4 c -0.2,0.1 -0.3,0 -0.3,-0.1 z"
   id="path136"
   inkscape:connector-curvature="0"
   style="fill:#ffffff" />
		<path
   class="st1"
   d="m 572.6,494.3 c -0.1,-0.1 -0.1,-0.3 -0.1,-0.5 l 4.7,-22.2 c 0,-0.2 0.1,-0.4 0.3,-0.5 0.2,-0.1 0.3,-0.2 0.6,-0.2 h 0.6 c 0.2,0 0.4,0.1 0.5,0.2 0.1,0.1 0.1,0.3 0.1,0.5 l -0.3,1.6 c 0.8,-0.9 1.6,-1.5 2.5,-2 0.9,-0.4 2,-0.7 3.3,-0.7 2,0 3.5,0.6 4.4,1.7 0.9,1.2 1.4,2.7 1.4,4.5 0,0.7 0,1.3 -0.1,1.8 -0.1,0.4 -0.2,1.1 -0.4,1.9 -0.6,2.3 -1.6,4.2 -3,5.8 -1.4,1.5 -3.3,2.3 -5.7,2.3 -2.5,0 -4.2,-0.9 -5.1,-2.6 l -1.7,7.9 c 0,0.2 -0.1,0.4 -0.3,0.5 -0.2,0.1 -0.3,0.2 -0.6,0.2 h -0.6 c -0.2,0 -0.4,-0.1 -0.5,-0.2 z m 13,-9.5 c 1.1,-1.2 1.9,-2.6 2.5,-4.4 0.2,-0.5 0.3,-1.2 0.4,-1.9 0.1,-0.7 0.2,-1.4 0.2,-1.9 0,-2.8 -1.3,-4.2 -3.8,-4.2 -1.2,0 -2.3,0.3 -3.3,0.9 -1,0.6 -1.8,1.3 -2.4,2.2 -0.6,0.9 -1.1,1.8 -1.3,2.8 -0.2,0.6 -0.3,1.5 -0.6,2.6 -0.1,0.6 -0.1,1 -0.1,1.3 0,1.2 0.3,2.3 1,3.1 0.7,0.8 1.8,1.2 3.2,1.2 1.7,0.1 3.1,-0.5 4.2,-1.7 z"
   id="path138"
   inkscape:connector-curvature="0"
   style="fill:#ffffff" />
		<path
   class="st1"
   d="m 594.9,486.8 c -0.9,-1.1 -1.3,-2.6 -1.3,-4.4 0,-0.6 0.1,-1.2 0.2,-2 0.1,-0.4 0.2,-1.1 0.4,-1.9 1.4,-5.4 4.2,-8.1 8.6,-8.1 1.4,0 2.4,0.2 3.2,0.7 0.8,0.5 1.4,1.1 1.8,1.9 l 0.3,-1.6 c 0,-0.2 0.1,-0.4 0.3,-0.5 0.2,-0.1 0.3,-0.2 0.6,-0.2 h 0.6 c 0.2,0 0.4,0.1 0.5,0.2 0.1,0.1 0.1,0.3 0.1,0.5 l -3.4,15.8 c 0,0.2 -0.1,0.4 -0.3,0.5 -0.2,0.1 -0.3,0.2 -0.6,0.2 h -0.6 c -0.2,0 -0.4,-0.1 -0.5,-0.2 -0.1,-0.1 -0.1,-0.3 -0.1,-0.5 l 0.3,-1.6 c -0.8,0.9 -1.6,1.5 -2.5,2 -0.8,0.4 -1.9,0.6 -3.2,0.6 -2.1,0.3 -3.5,-0.3 -4.4,-1.4 z m 7.6,-1.1 c 0.9,-0.6 1.7,-1.3 2.3,-2.2 0.6,-0.9 1,-1.8 1.3,-2.8 0.2,-0.6 0.3,-1.5 0.6,-2.6 0.1,-0.4 0.1,-0.9 0.1,-1.5 0,-1.2 -0.3,-2.2 -1,-3 -0.6,-0.8 -1.7,-1.2 -3.1,-1.2 -1.7,0 -3.1,0.6 -4.1,1.7 -1.1,1.1 -1.8,2.6 -2.4,4.4 -0.2,0.5 -0.3,1.2 -0.4,1.9 -0.1,0.8 -0.2,1.5 -0.2,2.1 0,2.7 1.2,4 3.6,4 1.2,0.1 2.3,-0.2 3.3,-0.8 z"
   id="path140"
   inkscape:connector-curvature="0"
   style="fill:#ffffff" />
		<path
   class="st1"
   d="m 612.2,488 c -0.1,-0.1 -0.1,-0.3 -0.1,-0.5 l 3.4,-15.8 c 0,-0.2 0.2,-0.4 0.3,-0.5 0.2,-0.1 0.4,-0.2 0.6,-0.2 h 0.5 c 0.2,0 0.4,0.1 0.5,0.2 0.1,0.1 0.1,0.3 0.1,0.5 l -0.3,1.5 c 0.5,-0.8 1.2,-1.3 2,-1.7 0.9,-0.4 1.8,-0.6 3,-0.6 h 1.2 c 0.2,0 0.4,0.1 0.5,0.2 0.1,0.1 0.1,0.3 0.1,0.5 l -0.1,0.5 c 0,0.2 -0.1,0.4 -0.3,0.5 -0.2,0.1 -0.4,0.2 -0.6,0.2 h -1.4 c -1.3,0 -2.5,0.4 -3.4,1.2 -0.9,0.8 -1.6,1.8 -1.8,3.2 l -2.2,10.3 c 0,0.2 -0.1,0.4 -0.3,0.5 -0.2,0.1 -0.4,0.2 -0.6,0.2 h -0.5 c -0.4,0 -0.5,-0.1 -0.6,-0.2 z"
   id="path142"
   inkscape:connector-curvature="0"
   style="fill:#ffffff" />
		<path
   class="st1"
   d="m 625.8,486.9 c -1,-1.1 -1.5,-2.6 -1.5,-4.4 0,-0.5 0,-1 0.1,-1.6 0.1,-0.7 0.3,-1.6 0.6,-2.7 0.7,-2.3 1.8,-4.2 3.4,-5.6 1.6,-1.4 3.4,-2.1 5.6,-2.1 1.9,0 3.3,0.5 4.3,1.5 1,1 1.5,2.5 1.5,4.3 0,0.8 -0.1,1.7 -0.3,2.7 l -0.1,0.5 c 0,0.2 -0.2,0.4 -0.3,0.5 -0.2,0.1 -0.4,0.2 -0.6,0.2 h -11.8 l -0.1,0.3 c -0.1,0.4 -0.1,0.8 -0.1,1.3 0,1.3 0.4,2.4 1.1,3.3 0.7,0.9 1.7,1.3 3,1.3 1.2,0 2.3,-0.2 3.1,-0.7 0.9,-0.5 1.5,-1 1.9,-1.4 0.3,-0.3 0.5,-0.4 0.6,-0.5 0.1,-0.1 0.3,-0.1 0.6,-0.1 h 0.5 c 0.2,0 0.3,0 0.4,0.1 0.1,0.1 0.2,0.2 0.2,0.4 0,0.4 -0.4,1 -1.1,1.6 -0.7,0.7 -1.7,1.3 -2.9,1.8 -1.2,0.5 -2.5,0.8 -3.8,0.8 -1.9,0.1 -3.3,-0.5 -4.3,-1.5 z m 11.7,-8.4 v -0.1 c 0.1,-0.6 0.2,-1.2 0.2,-1.6 0,-1.3 -0.4,-2.3 -1.1,-3.1 -0.7,-0.8 -1.8,-1.2 -3.1,-1.2 -1.6,0 -3,0.6 -4.2,1.7 -1.2,1.1 -2,2.5 -2.3,4.2 v 0.1 z"
   id="path144"
   inkscape:connector-curvature="0"
   style="fill:#ffffff" />
		<path
   class="st1"
   d="m 650.1,488 c -0.1,-0.1 -0.1,-0.3 -0.1,-0.5 l 0.3,-1.3 c 0,-0.2 0.2,-0.4 0.3,-0.5 0.2,-0.1 0.4,-0.2 0.6,-0.2 h 1.3 c 0.2,0 0.4,0.1 0.5,0.2 0.1,0.1 0.1,0.3 0.1,0.5 l -0.3,1.3 c 0,0.2 -0.2,0.4 -0.3,0.5 -0.2,0.1 -0.4,0.2 -0.6,0.2 h -1.3 c -0.2,0 -0.4,-0.1 -0.5,-0.2 z m 1.4,-4.8 c -0.1,-0.1 -0.1,-0.3 -0.1,-0.5 l 3.6,-17.1 c 0,-0.2 0.1,-0.4 0.3,-0.5 0.2,-0.1 0.4,-0.2 0.6,-0.2 h 0.6 c 0.2,0 0.4,0.1 0.5,0.2 0.1,0.1 0.1,0.3 0.1,0.5 l -3.6,17.1 c 0,0.2 -0.1,0.4 -0.3,0.5 -0.2,0.1 -0.4,0.2 -0.6,0.2 H 652 c -0.3,0 -0.4,-0.1 -0.5,-0.2 z"
   id="path146"
   inkscape:connector-curvature="0"
   style="fill:#ffffff" />
	</g>
</g>
</svg>