<?xml version="1.0" encoding="UTF-8" standalone="no"?>
<!-- Generator: Adobe Illustrator 22.1.0, SVG Export Plug-In . SVG Version: 6.00 Build 0)  -->

<svg
   xmlns:dc="http://purl.org/dc/elements/1.1/"
   xmlns:cc="http://creativecommons.org/ns#"
   xmlns:rdf="http://www.w3.org/1999/02/22-rdf-syntax-ns#"
   xmlns:svg="http://www.w3.org/2000/svg"
   xmlns="http://www.w3.org/2000/svg"
   xmlns:sodipodi="http://sodipodi.sourceforge.net/DTD/sodipodi-0.dtd"
   xmlns:inkscape="http://www.inkscape.org/namespaces/inkscape"
   version="1.1"
   id="Calque_1"
   x="0px"
   y="0px"
   viewBox="0 0 792 792"
   style="enable-background:new 0 0 792 792;"
   xml:space="preserve"
   sodipodi:docname="dsqq.svg"
   inkscape:version="0.92.4 (5da689c313, 2019-01-14)"><metadata
   id="metadata10"><rdf:RDF><cc:Work
       rdf:about=""><dc:format>image/svg+xml</dc:format><dc:type
         rdf:resource="http://purl.org/dc/dcmitype/StillImage" /></cc:Work></rdf:RDF></metadata><defs
   id="defs8" /><sodipodi:namedview
   pagecolor="#ffffff"
   bordercolor="#666666"
   borderopacity="1"
   objecttolerance="10"
   gridtolerance="10"
   guidetolerance="10"
   inkscape:pageopacity="0"
   inkscape:pageshadow="2"
   inkscape:window-width="1920"
   inkscape:window-height="1001"
   id="namedview6"
   showgrid="false"
   inkscape:zoom="35.852535"
   inkscape:cx="395.7"
   inkscape:cy="395.05"
   inkscape:window-x="-9"
   inkscape:window-y="-9"
   inkscape:window-maximized="1"
   inkscape:current-layer="Calque_1" />
<style
   type="text/css"
   id="style2">
	.st0{fill:#010202;}
</style>
<path
   id="Tracé_52"
   class="st0"
   d="M407.5,386.1h-23.6c-1.4,0-2.5,1.1-2.5,2.5v16.7c0,1.4,1.1,2.5,2.5,2.5h23.6  c1.4,0,2.5-1.1,2.5-2.5v-16.7C410,387.2,408.9,386.1,407.5,386.1z M407.1,387.7L395.7,399l-11.5-11.3H407.1z M383,404.9v-16l8.1,8  L383,404.9z M384.2,406l8.1-8l2.8,2.8c0.3,0.3,0.9,0.3,1.2,0l2.8-2.7l8,8L384.2,406z M408.3,404.9l-8-8l8-8V404.9z"
   inkscape:export-xdpi="1000"
   inkscape:export-ydpi="1000" />
</svg>