<?xml version="1.0" encoding="UTF-8" standalone="no"?>
<!-- Generator: Adobe Illustrator 22.1.0, SVG Export Plug-In . SVG Version: 6.00 Build 0)  -->

<svg
   xmlns:dc="http://purl.org/dc/elements/1.1/"
   xmlns:cc="http://creativecommons.org/ns#"
   xmlns:rdf="http://www.w3.org/1999/02/22-rdf-syntax-ns#"
   xmlns:svg="http://www.w3.org/2000/svg"
   xmlns="http://www.w3.org/2000/svg"
   xmlns:sodipodi="http://sodipodi.sourceforge.net/DTD/sodipodi-0.dtd"
   xmlns:inkscape="http://www.inkscape.org/namespaces/inkscape"
   version="1.1"
   id="Calque_1"
   x="0px"
   y="0px"
   viewBox="0 0 792 792"
   style="enable-background:new 0 0 792 792;"
   xml:space="preserve"
   sodipodi:docname="sefs.svg"
   inkscape:version="0.92.4 (5da689c313, 2019-01-14)"><metadata
   id="metadata17"><rdf:RDF><cc:Work
       rdf:about=""><dc:format>image/svg+xml</dc:format><dc:type
         rdf:resource="http://purl.org/dc/dcmitype/StillImage" /></cc:Work></rdf:RDF></metadata><defs
   id="defs15" /><sodipodi:namedview
   pagecolor="#ffffff"
   bordercolor="#666666"
   borderopacity="1"
   objecttolerance="10"
   gridtolerance="10"
   guidetolerance="10"
   inkscape:pageopacity="0"
   inkscape:pageshadow="2"
   inkscape:window-width="1920"
   inkscape:window-height="1001"
   id="namedview13"
   showgrid="false"
   inkscape:zoom="22.257108"
   inkscape:cx="393.38786"
   inkscape:cy="396.53965"
   inkscape:window-x="-9"
   inkscape:window-y="-9"
   inkscape:window-maximized="1"
   inkscape:current-layer="Calque_1" />
<style
   type="text/css"
   id="style2">
	.st0{fill:#717070;}
	.st1{font-family:'SegoeUI';}
	.st2{font-size:8px;}
	.st3{fill:#A77EB7;}
</style>
<g
   id="Composant_9_8"
   transform="translate(0 0)"
   inkscape:export-xdpi="639.90588"
   inkscape:export-ydpi="639.90588">
	<text
   transform="matrix(1 0 0 1 380.0262 411.0551)"
   class="st0 st1 st2"
   id="text4">Signaler</text>

	<g
   id="Groupe_31"
   transform="translate(-1029.907 -901.238)">
		<g
   id="Groupe_29"
   transform="translate(1029.907 901.238)">
			<path
   id="Tracé_61"
   class="st3"
   d="M404.4,403.8h-23.1c-1.4,0.2-2.7-0.8-2.9-2.2c-0.1-0.7,0.1-1.4,0.5-2l11.6-20     c0.5-1.3,2-2,3.3-1.4c0.7,0.3,1.2,0.8,1.4,1.4l11.6,20c0.9,1.1,0.7,2.7-0.4,3.6C405.8,403.8,405.1,404,404.4,403.8L404.4,403.8z      M392.8,379.5c-0.4,0-0.8,0.3-1.2,0.9l-11.6,20c-0.5,0.5-0.5,1.2,0,1.7c0.3,0.3,0.8,0.5,1.2,0.3h23.1c0.6,0.2,1.3-0.2,1.5-0.8     c0.1-0.4,0-0.9-0.3-1.2l-11.6-20C393.7,379.8,393.2,379.5,392.8,379.5L392.8,379.5z" />
		</g>
		<g
   id="Groupe_30"
   transform="translate(1042.753 906.877)">
			<path
   id="Tracé_62"
   class="st3"
   d="M381.1,395.1c-0.3,0.3-0.7,0.5-1.1,0.5c-0.9,0-1.6-0.7-1.6-1.6c0,0,0,0,0,0     c0-0.4,0.2-0.8,0.5-1.1c0.3-0.3,0.7-0.5,1.1-0.5c0.9,0,1.6,0.7,1.6,1.6c0,0,0,0,0,0C381.6,394.4,381.4,394.8,381.1,395.1z      M378.4,378.1l0.3,13.1h2.3l0.6-13.1H378.4z" />
		</g>
	</g>
</g>
</svg>